<svg width="28" height="29" viewBox="0 0 28 29" fill="none" xmlns="http://www.w3.org/2000/svg">
<path d="M25.6667 12.5941C25.6667 11.8591 25.3167 11.1707 24.7333 10.7274L15.4 3.72741C14.9961 3.42449 14.5049 3.26074 14 3.26074C13.4951 3.26074 13.0039 3.42449 12.6 3.72741L3.26667 10.7274C2.97687 10.9448 2.74167 11.2266 2.57967 11.5506C2.41767 11.8746 2.33333 12.2318 2.33333 12.5941M25.6667 12.5941V24.2607C25.6667 24.8796 25.4208 25.4731 24.9832 25.9107C24.5457 26.3482 23.9522 26.5941 23.3333 26.5941H4.66667C4.04783 26.5941 3.45433 26.3482 3.01675 25.9107C2.57916 25.4731 2.33333 24.8796 2.33333 24.2607V12.5941M25.6667 12.5941L15.2017 19.2441C14.8415 19.4697 14.425 19.5894 14 19.5894C13.575 19.5894 13.1585 19.4697 12.7983 19.2441L2.33333 12.5941" stroke="#09090B" stroke-width="2" stroke-linecap="round" stroke-linejoin="round"/>
</svg>
