<svg width="282" height="101" viewBox="0 0 282 101" fill="none" xmlns="http://www.w3.org/2000/svg">
<path d="M8 11.1152L10.5 13.6152L18.8333 5.28182M18 11.9485V17.7818C18 18.2238 17.8244 18.6478 17.5118 18.9603C17.1993 19.2729 16.7754 19.4485 16.3333 19.4485H4.66667C4.22464 19.4485 3.80072 19.2729 3.48816 18.9603C3.17559 18.6478 3 18.2238 3 17.7818V6.11515C3 5.67313 3.17559 5.2492 3.48816 4.93664C3.80072 4.62408 4.22464 4.44849 4.66667 4.44849H13.8333" stroke="#2FBF36" stroke-width="2" stroke-linecap="round" stroke-linejoin="round"/>
<path d="M29.9 16.9485V8.15649H35.318V9.09449H30.992V12.0485H35.066V12.9865H30.992V15.9965H35.318V16.9485H29.9ZM41.9893 16.9485L41.8493 15.4785V12.6085C41.8493 12.0065 41.721 11.5748 41.4643 11.3135C41.2077 11.0475 40.8227 10.9145 40.3093 10.9145C40.02 10.9145 39.7563 10.9565 39.5183 11.0405C39.285 11.1245 39.0983 11.2552 38.9583 11.4325C38.823 11.6052 38.7553 11.8292 38.7553 12.1045H37.5373C37.5373 11.6192 37.6563 11.2295 37.8943 10.9355C38.1323 10.6368 38.459 10.4222 38.8743 10.2915C39.2943 10.1562 39.7727 10.0885 40.3093 10.0885C40.8227 10.0885 41.2777 10.1748 41.6743 10.3475C42.071 10.5202 42.3813 10.7955 42.6053 11.1735C42.8293 11.5468 42.9413 12.0345 42.9413 12.6365V16.9485H41.9893ZM39.7073 17.1165C39.1567 17.1165 38.7017 17.0185 38.3423 16.8225C37.983 16.6265 37.7147 16.3722 37.5373 16.0595C37.36 15.7468 37.2713 15.4178 37.2713 15.0725C37.2713 14.6198 37.3833 14.2512 37.6073 13.9665C37.836 13.6818 38.1463 13.4742 38.5383 13.3435C38.9303 13.2082 39.3713 13.1405 39.8613 13.1405C40.2113 13.1405 40.5613 13.1755 40.9113 13.2455C41.266 13.3155 41.6113 13.4112 41.9473 13.5325V14.2185C41.6673 14.1065 41.35 14.0178 40.9953 13.9525C40.6453 13.8872 40.3233 13.8545 40.0293 13.8545C39.5813 13.8545 39.2033 13.9478 38.8953 14.1345C38.5873 14.3165 38.4333 14.6292 38.4333 15.0725C38.4333 15.3992 38.55 15.6792 38.7833 15.9125C39.0213 16.1458 39.3993 16.2625 39.9173 16.2625C40.2813 16.2625 40.608 16.1785 40.8973 16.0105C41.1913 15.8378 41.4223 15.6232 41.5903 15.3665C41.763 15.1098 41.8493 14.8532 41.8493 14.5965H42.1153C42.1153 15.0445 42.0173 15.4598 41.8213 15.8425C41.63 16.2252 41.3547 16.5332 40.9953 16.7665C40.636 16.9998 40.2067 17.1165 39.7073 17.1165ZM47.9783 17.1165C47.4416 17.1165 46.9399 16.9718 46.4733 16.6825C46.0113 16.3932 45.6379 15.9848 45.3533 15.4575C45.0686 14.9302 44.9263 14.3072 44.9263 13.5885C44.9263 12.8512 45.0686 12.2212 45.3533 11.6985C45.6379 11.1758 46.0113 10.7768 46.4733 10.5015C46.9399 10.2262 47.4416 10.0885 47.9783 10.0885C48.3563 10.0885 48.6946 10.1468 48.9933 10.2635C49.2966 10.3755 49.5603 10.5318 49.7843 10.7325C50.0083 10.9332 50.1926 11.1618 50.3373 11.4185C50.4866 11.6705 50.5963 11.9365 50.6663 12.2165L49.5463 12.3145C49.4296 11.9272 49.2336 11.6215 48.9583 11.3975C48.6876 11.1688 48.3563 11.0545 47.9643 11.0545C47.6329 11.0545 47.3203 11.1502 47.0263 11.3415C46.7369 11.5282 46.5013 11.8105 46.3193 12.1885C46.1373 12.5618 46.0463 13.0285 46.0463 13.5885C46.0463 14.1065 46.1279 14.5568 46.2913 14.9395C46.4593 15.3175 46.6879 15.6115 46.9773 15.8215C47.2666 16.0315 47.5956 16.1365 47.9643 16.1365C48.4823 16.1365 48.8743 16.0105 49.1403 15.7585C49.4109 15.5018 49.5463 15.1472 49.5463 14.6945H50.6663C50.6663 15.1612 50.5566 15.5765 50.3373 15.9405C50.1179 16.3045 49.8053 16.5915 49.3993 16.8015C48.9979 17.0115 48.5243 17.1165 47.9783 17.1165ZM57.675 16.9485V13.0145C57.675 12.3752 57.521 11.8898 57.213 11.5585C56.9097 11.2225 56.4943 11.0545 55.967 11.0545C55.5657 11.0545 55.218 11.1642 54.924 11.3835C54.63 11.6028 54.4037 11.9178 54.245 12.3285C54.0863 12.7345 54.007 13.2198 54.007 13.7845H53.587C53.587 13.0052 53.6897 12.3402 53.895 11.7895C54.1003 11.2388 54.399 10.8188 54.791 10.5295C55.1877 10.2355 55.6683 10.0885 56.233 10.0885C56.7603 10.0885 57.2107 10.2075 57.584 10.4455C57.962 10.6788 58.2513 11.0148 58.452 11.4535C58.6527 11.8922 58.753 12.4125 58.753 13.0145V16.9485H57.675ZM52.915 16.9485V7.40049H54.007V16.9485H52.915ZM66.8845 17.1165C66.5205 17.1165 66.1938 17.0465 65.9045 16.9065C65.6152 16.7665 65.3865 16.5565 65.2185 16.2765C65.0505 15.9965 64.9665 15.6465 64.9665 15.2265V8.39449H66.0445V15.1985C66.0445 15.8892 66.3665 16.2345 67.0105 16.2345C67.2018 16.2345 67.3862 16.2135 67.5635 16.1715C67.7455 16.1295 67.9485 16.0665 68.1725 15.9825L68.3265 16.7665C68.0885 16.8692 67.8505 16.9532 67.6125 17.0185C67.3792 17.0838 67.1365 17.1165 66.8845 17.1165ZM63.8885 11.0125V10.2565H68.1585V11.0125H63.8885ZM70.7762 8.67449C70.5522 8.67449 70.3748 8.61149 70.2442 8.48549C70.1135 8.35482 70.0482 8.18449 70.0482 7.97449C70.0482 7.76915 70.1135 7.60582 70.2442 7.48449C70.3748 7.36315 70.5522 7.30249 70.7762 7.30249C71.0002 7.30249 71.1775 7.36315 71.3082 7.48449C71.4388 7.60582 71.5042 7.76915 71.5042 7.97449C71.5042 8.18449 71.4388 8.35482 71.3082 8.48549C71.1775 8.61149 71.0002 8.67449 70.7762 8.67449ZM70.2302 16.9485V10.2425H71.3222V16.9485H70.2302ZM76.7521 17.1165C76.2154 17.1165 75.7138 16.9718 75.2471 16.6825C74.7851 16.3932 74.4118 15.9848 74.1271 15.4575C73.8424 14.9302 73.7001 14.3072 73.7001 13.5885C73.7001 12.8512 73.8424 12.2212 74.1271 11.6985C74.4118 11.1758 74.7851 10.7768 75.2471 10.5015C75.7138 10.2262 76.2154 10.0885 76.7521 10.0885C77.1301 10.0885 77.4684 10.1468 77.7671 10.2635C78.0704 10.3755 78.3341 10.5318 78.5581 10.7325C78.7821 10.9332 78.9664 11.1618 79.1111 11.4185C79.2604 11.6705 79.3701 11.9365 79.4401 12.2165L78.3201 12.3145C78.2034 11.9272 78.0074 11.6215 77.7321 11.3975C77.4614 11.1688 77.1301 11.0545 76.7381 11.0545C76.4068 11.0545 76.0941 11.1502 75.8001 11.3415C75.5108 11.5282 75.2751 11.8105 75.0931 12.1885C74.9111 12.5618 74.8201 13.0285 74.8201 13.5885C74.8201 14.1065 74.9018 14.5568 75.0651 14.9395C75.2331 15.3175 75.4618 15.6115 75.7511 15.8215C76.0404 16.0315 76.3694 16.1365 76.7381 16.1365C77.2561 16.1365 77.6481 16.0105 77.9141 15.7585C78.1848 15.5018 78.3201 15.1472 78.3201 14.6945H79.4401C79.4401 15.1612 79.3304 15.5765 79.1111 15.9405C78.8918 16.3045 78.5791 16.5915 78.1731 16.8015C77.7718 17.0115 77.2981 17.1165 76.7521 17.1165ZM81.6888 16.9485V7.40049H82.7808V16.9485H81.6888ZM82.6128 13.1125L86.0288 10.2565H87.5548L82.6128 14.2745V13.1125ZM86.3648 16.9485L83.1868 12.7205L84.2928 12.5245L87.7088 16.9485H86.3648ZM91.9715 17.1165C91.3929 17.1165 90.8749 16.9695 90.4175 16.6755C89.9649 16.3768 89.6055 15.9638 89.3395 15.4365C89.0782 14.9092 88.9475 14.3025 88.9475 13.6165C88.9475 12.8838 89.0782 12.2538 89.3395 11.7265C89.6009 11.1992 89.9579 10.7955 90.4105 10.5155C90.8679 10.2308 91.3882 10.0885 91.9715 10.0885C92.4802 10.0885 92.9142 10.1912 93.2735 10.3965C93.6329 10.6018 93.9222 10.8795 94.1415 11.2295C94.3609 11.5795 94.5125 11.9762 94.5965 12.4195C94.6852 12.8582 94.7109 13.3132 94.6735 13.7845H89.8295V13.1125H93.9525L93.6305 13.3225C93.6445 13.0472 93.6282 12.7718 93.5815 12.4965C93.5395 12.2212 93.4579 11.9692 93.3365 11.7405C93.2152 11.5072 93.0449 11.3205 92.8255 11.1805C92.6062 11.0405 92.3262 10.9705 91.9855 10.9705C91.5562 10.9705 91.1969 11.0802 90.9075 11.2995C90.6182 11.5188 90.4012 11.8082 90.2565 12.1675C90.1119 12.5222 90.0395 12.9072 90.0395 13.3225V13.7705C90.0395 14.2372 90.1095 14.6548 90.2495 15.0235C90.3942 15.3922 90.6089 15.6838 90.8935 15.8985C91.1782 16.1132 91.5375 16.2205 91.9715 16.2205C92.4055 16.2205 92.7625 16.1155 93.0425 15.9055C93.3225 15.6955 93.4929 15.3852 93.5535 14.9745H94.6875C94.6175 15.4178 94.4589 15.8005 94.2115 16.1225C93.9642 16.4398 93.6492 16.6848 93.2665 16.8575C92.8839 17.0302 92.4522 17.1165 91.9715 17.1165ZM98.9669 17.1165C98.6029 17.1165 98.2763 17.0465 97.9869 16.9065C97.6976 16.7665 97.4689 16.5565 97.3009 16.2765C97.1329 15.9965 97.0489 15.6465 97.0489 15.2265V8.39449H98.1269V15.1985C98.1269 15.8892 98.4489 16.2345 99.0929 16.2345C99.2843 16.2345 99.4686 16.2135 99.6459 16.1715C99.8279 16.1295 100.031 16.0665 100.255 15.9825L100.409 16.7665C100.171 16.8692 99.9329 16.9532 99.6949 17.0185C99.4616 17.0838 99.2189 17.1165 98.9669 17.1165ZM95.9709 11.0125V10.2565H100.241V11.0125H95.9709ZM108.043 17.1165C107.394 17.1165 106.853 17.0255 106.419 16.8435C105.985 16.6568 105.656 16.4025 105.432 16.0805C105.208 15.7538 105.089 15.3805 105.075 14.9605H106.125C106.148 15.3852 106.319 15.7048 106.636 15.9195C106.958 16.1295 107.394 16.2345 107.945 16.2345C108.234 16.2345 108.5 16.1878 108.743 16.0945C108.986 16.0012 109.179 15.8728 109.324 15.7095C109.469 15.5462 109.541 15.3618 109.541 15.1565C109.541 14.8952 109.445 14.6898 109.254 14.5405C109.063 14.3912 108.757 14.2605 108.337 14.1485L107.035 13.7285C106.47 13.5512 106.036 13.3085 105.733 13.0005C105.434 12.6878 105.285 12.3145 105.285 11.8805C105.285 11.3392 105.523 10.9052 105.999 10.5785C106.475 10.2518 107.1 10.0885 107.875 10.0885C108.696 10.0885 109.333 10.2565 109.786 10.5925C110.239 10.9285 110.474 11.3485 110.493 11.8525H109.415C109.373 11.5585 109.224 11.3368 108.967 11.1875C108.71 11.0335 108.346 10.9565 107.875 10.9565C107.422 10.9565 107.068 11.0592 106.811 11.2645C106.559 11.4652 106.433 11.6892 106.433 11.9365C106.433 12.3985 106.83 12.7392 107.623 12.9585L108.953 13.4065C109.527 13.5792 109.966 13.8055 110.269 14.0855C110.577 14.3655 110.731 14.7225 110.731 15.1565C110.731 15.4925 110.621 15.8098 110.402 16.1085C110.183 16.4072 109.872 16.6498 109.471 16.8365C109.07 17.0232 108.594 17.1165 108.043 17.1165ZM115.482 17.1165C114.88 17.1165 114.344 16.9835 113.872 16.7175C113.406 16.4515 113.037 16.0572 112.766 15.5345C112.496 15.0118 112.36 14.3678 112.36 13.6025C112.36 12.8325 112.496 12.1885 112.766 11.6705C113.037 11.1478 113.406 10.7535 113.872 10.4875C114.344 10.2215 114.88 10.0885 115.482 10.0885C116.08 10.0885 116.612 10.2215 117.078 10.4875C117.55 10.7535 117.918 11.1478 118.184 11.6705C118.455 12.1885 118.59 12.8325 118.59 13.6025C118.59 14.3678 118.455 15.0118 118.184 15.5345C117.918 16.0572 117.55 16.4515 117.078 16.7175C116.612 16.9835 116.08 17.1165 115.482 17.1165ZM115.454 16.1645C115.888 16.1645 116.257 16.0618 116.56 15.8565C116.864 15.6465 117.092 15.3502 117.246 14.9675C117.405 14.5848 117.484 14.1298 117.484 13.6025C117.484 12.8045 117.319 12.1768 116.987 11.7195C116.656 11.2575 116.164 11.0265 115.51 11.0265C115.072 11.0265 114.701 11.1315 114.397 11.3415C114.099 11.5468 113.87 11.8432 113.711 12.2305C113.557 12.6132 113.48 13.0705 113.48 13.6025C113.48 14.3912 113.646 15.0165 113.977 15.4785C114.313 15.9358 114.806 16.1645 115.454 16.1645ZM120.787 16.9485V7.40049H121.879V16.9485H120.787ZM127.174 17.1165C126.633 17.1165 126.136 16.9718 125.683 16.6825C125.231 16.3885 124.869 15.9778 124.598 15.4505C124.328 14.9185 124.192 14.2932 124.192 13.5745C124.192 12.8605 124.325 12.2422 124.591 11.7195C124.857 11.1968 125.21 10.7955 125.648 10.5155C126.092 10.2308 126.577 10.0885 127.104 10.0885C127.594 10.0885 128.024 10.2075 128.392 10.4455C128.766 10.6835 129.055 11.0265 129.26 11.4745C129.466 11.9225 129.568 12.4638 129.568 13.0985H129.148C129.148 12.6552 129.06 12.2818 128.882 11.9785C128.71 11.6752 128.483 11.4465 128.203 11.2925C127.923 11.1338 127.622 11.0545 127.3 11.0545C126.936 11.0545 126.603 11.1572 126.299 11.3625C126.001 11.5632 125.76 11.8525 125.578 12.2305C125.401 12.6038 125.312 13.0518 125.312 13.5745C125.312 14.1065 125.401 14.5638 125.578 14.9465C125.76 15.3292 126.001 15.6232 126.299 15.8285C126.603 16.0338 126.936 16.1365 127.3 16.1365C127.604 16.1365 127.895 16.0572 128.175 15.8985C128.46 15.7398 128.693 15.5088 128.875 15.2055C129.057 14.8975 129.148 14.5265 129.148 14.0925H129.568C129.568 14.7412 129.461 15.2918 129.246 15.7445C129.036 16.1925 128.749 16.5332 128.385 16.7665C128.026 16.9998 127.622 17.1165 127.174 17.1165ZM129.33 16.9485L129.148 15.3805V7.40049H130.24V16.9485H129.33ZM138.866 17.1165C138.287 17.1165 137.769 16.9695 137.312 16.6755C136.859 16.3768 136.5 15.9638 136.234 15.4365C135.972 14.9092 135.842 14.3025 135.842 13.6165C135.842 12.8838 135.972 12.2538 136.234 11.7265C136.495 11.1992 136.852 10.7955 137.305 10.5155C137.762 10.2308 138.282 10.0885 138.866 10.0885C139.374 10.0885 139.808 10.1912 140.168 10.3965C140.527 10.6018 140.816 10.8795 141.036 11.2295C141.255 11.5795 141.407 11.9762 141.491 12.4195C141.579 12.8582 141.605 13.3132 141.568 13.7845H136.724V13.1125H140.847L140.525 13.3225C140.539 13.0472 140.522 12.7718 140.476 12.4965C140.434 12.2212 140.352 11.9692 140.231 11.7405C140.109 11.5072 139.939 11.3205 139.72 11.1805C139.5 11.0405 139.22 10.9705 138.88 10.9705C138.45 10.9705 138.091 11.0802 137.802 11.2995C137.512 11.5188 137.295 11.8082 137.151 12.1675C137.006 12.5222 136.934 12.9072 136.934 13.3225V13.7705C136.934 14.2372 137.004 14.6548 137.144 15.0235C137.288 15.3922 137.503 15.6838 137.788 15.8985C138.072 16.1132 138.432 16.2205 138.866 16.2205C139.3 16.2205 139.657 16.1155 139.937 15.9055C140.217 15.6955 140.387 15.3852 140.448 14.9745H141.582C141.512 15.4178 141.353 15.8005 141.106 16.1225C140.858 16.4398 140.543 16.6848 140.161 16.8575C139.778 17.0302 139.346 17.1165 138.866 17.1165ZM146.127 17.1165C145.595 17.1165 145.098 16.9765 144.636 16.6965C144.179 16.4165 143.808 16.0128 143.523 15.4855C143.243 14.9582 143.103 14.3258 143.103 13.5885C143.103 12.8605 143.243 12.2352 143.523 11.7125C143.803 11.1898 144.169 10.7885 144.622 10.5085C145.079 10.2285 145.567 10.0885 146.085 10.0885C146.542 10.0885 146.955 10.2005 147.324 10.4245C147.697 10.6485 147.991 10.9822 148.206 11.4255C148.425 11.8642 148.535 12.4078 148.535 13.0565H148.059C148.059 12.6225 147.973 12.2585 147.8 11.9645C147.627 11.6658 147.401 11.4395 147.121 11.2855C146.841 11.1315 146.542 11.0545 146.225 11.0545C145.861 11.0545 145.527 11.1548 145.224 11.3555C144.921 11.5562 144.678 11.8455 144.496 12.2235C144.314 12.6015 144.223 13.0565 144.223 13.5885C144.223 14.1438 144.319 14.6105 144.51 14.9885C144.706 15.3665 144.958 15.6535 145.266 15.8495C145.574 16.0408 145.898 16.1365 146.239 16.1365C146.547 16.1365 146.839 16.0642 147.114 15.9195C147.394 15.7748 147.62 15.5602 147.793 15.2755C147.97 14.9908 148.059 14.6385 148.059 14.2185H148.381C148.381 14.7972 148.295 15.3035 148.122 15.7375C147.949 16.1715 147.695 16.5098 147.359 16.7525C147.023 16.9952 146.612 17.1165 146.127 17.1165ZM149.795 20.3925C149.16 20.2152 148.712 19.9422 148.451 19.5735C148.19 19.2048 148.059 18.6845 148.059 18.0125V11.8245L148.395 10.2565H149.137V18.0825C149.137 18.3998 149.167 18.6495 149.228 18.8315C149.289 19.0135 149.394 19.1558 149.543 19.2585C149.692 19.3658 149.898 19.4638 150.159 19.5525L149.795 20.3925ZM156.612 10.2425H157.704V16.9485H156.612V10.2425ZM151.866 10.2425H152.958V14.4145C152.958 14.9745 153.094 15.3992 153.364 15.6885C153.64 15.9778 154.032 16.1225 154.54 16.1225C154.96 16.1225 155.324 16.0105 155.632 15.7865C155.945 15.5625 156.185 15.2545 156.353 14.8625C156.526 14.4658 156.612 14.0132 156.612 13.5045H157.018C157.018 14.2558 156.909 14.8975 156.689 15.4295C156.475 15.9615 156.169 16.3698 155.772 16.6545C155.38 16.9345 154.918 17.0745 154.386 17.0745C153.882 17.0745 153.441 16.9812 153.063 16.7945C152.685 16.6078 152.391 16.3255 152.181 15.9475C151.971 15.5648 151.866 15.0818 151.866 14.4985V10.2425ZM164.753 16.9485L164.613 15.4785V12.6085C164.613 12.0065 164.485 11.5748 164.228 11.3135C163.971 11.0475 163.586 10.9145 163.073 10.9145C162.784 10.9145 162.52 10.9565 162.282 11.0405C162.049 11.1245 161.862 11.2552 161.722 11.4325C161.587 11.6052 161.519 11.8292 161.519 12.1045H160.301C160.301 11.6192 160.42 11.2295 160.658 10.9355C160.896 10.6368 161.223 10.4222 161.638 10.2915C162.058 10.1562 162.536 10.0885 163.073 10.0885C163.586 10.0885 164.041 10.1748 164.438 10.3475C164.835 10.5202 165.145 10.7955 165.369 11.1735C165.593 11.5468 165.705 12.0345 165.705 12.6365V16.9485H164.753ZM162.471 17.1165C161.92 17.1165 161.465 17.0185 161.106 16.8225C160.747 16.6265 160.478 16.3722 160.301 16.0595C160.124 15.7468 160.035 15.4178 160.035 15.0725C160.035 14.6198 160.147 14.2512 160.371 13.9665C160.6 13.6818 160.91 13.4742 161.302 13.3435C161.694 13.2082 162.135 13.1405 162.625 13.1405C162.975 13.1405 163.325 13.1755 163.675 13.2455C164.03 13.3155 164.375 13.4112 164.711 13.5325V14.2185C164.431 14.1065 164.114 14.0178 163.759 13.9525C163.409 13.8872 163.087 13.8545 162.793 13.8545C162.345 13.8545 161.967 13.9478 161.659 14.1345C161.351 14.3165 161.197 14.6292 161.197 15.0725C161.197 15.3992 161.314 15.6792 161.547 15.9125C161.785 16.1458 162.163 16.2625 162.681 16.2625C163.045 16.2625 163.372 16.1785 163.661 16.0105C163.955 15.8378 164.186 15.6232 164.354 15.3665C164.527 15.1098 164.613 14.8532 164.613 14.5965H164.879C164.879 15.0445 164.781 15.4598 164.585 15.8425C164.394 16.2252 164.118 16.5332 163.759 16.7665C163.4 16.9998 162.97 17.1165 162.471 17.1165ZM168.39 16.9485V7.40049H169.482V16.9485H168.39ZM174.792 17.1165C174.143 17.1165 173.602 17.0255 173.168 16.8435C172.734 16.6568 172.405 16.4025 172.181 16.0805C171.957 15.7538 171.838 15.3805 171.824 14.9605H172.874C172.897 15.3852 173.067 15.7048 173.385 15.9195C173.707 16.1295 174.143 16.2345 174.694 16.2345C174.983 16.2345 175.249 16.1878 175.492 16.0945C175.734 16.0012 175.928 15.8728 176.073 15.7095C176.217 15.5462 176.29 15.3618 176.29 15.1565C176.29 14.8952 176.194 14.6898 176.003 14.5405C175.811 14.3912 175.506 14.2605 175.086 14.1485L173.784 13.7285C173.219 13.5512 172.785 13.3085 172.482 13.0005C172.183 12.6878 172.034 12.3145 172.034 11.8805C172.034 11.3392 172.272 10.9052 172.748 10.5785C173.224 10.2518 173.849 10.0885 174.624 10.0885C175.445 10.0885 176.082 10.2565 176.535 10.5925C176.987 10.9285 177.223 11.3485 177.242 11.8525H176.164C176.122 11.5585 175.972 11.3368 175.716 11.1875C175.459 11.0335 175.095 10.9565 174.624 10.9565C174.171 10.9565 173.816 11.0592 173.56 11.2645C173.308 11.4652 173.182 11.6892 173.182 11.9365C173.182 12.3985 173.578 12.7392 174.372 12.9585L175.702 13.4065C176.276 13.5792 176.714 13.8055 177.018 14.0855C177.326 14.3655 177.48 14.7225 177.48 15.1565C177.48 15.4925 177.37 15.8098 177.151 16.1085C176.931 16.4072 176.621 16.6498 176.22 16.8365C175.818 17.0232 175.342 17.1165 174.792 17.1165ZM185.623 17.1165C185.021 17.1165 184.485 16.9835 184.013 16.7175C183.547 16.4515 183.178 16.0572 182.907 15.5345C182.637 15.0118 182.501 14.3678 182.501 13.6025C182.501 12.8325 182.637 12.1885 182.907 11.6705C183.178 11.1478 183.547 10.7535 184.013 10.4875C184.485 10.2215 185.021 10.0885 185.623 10.0885C186.221 10.0885 186.753 10.2215 187.219 10.4875C187.691 10.7535 188.059 11.1478 188.325 11.6705C188.596 12.1885 188.731 12.8325 188.731 13.6025C188.731 14.3678 188.596 15.0118 188.325 15.5345C188.059 16.0572 187.691 16.4515 187.219 16.7175C186.753 16.9835 186.221 17.1165 185.623 17.1165ZM185.595 16.1645C186.029 16.1645 186.398 16.0618 186.701 15.8565C187.005 15.6465 187.233 15.3502 187.387 14.9675C187.546 14.5848 187.625 14.1298 187.625 13.6025C187.625 12.8045 187.46 12.1768 187.128 11.7195C186.797 11.2575 186.305 11.0265 185.651 11.0265C185.213 11.0265 184.842 11.1315 184.538 11.3415C184.24 11.5468 184.011 11.8432 183.852 12.2305C183.698 12.6132 183.621 13.0705 183.621 13.6025C183.621 14.3912 183.787 15.0165 184.118 15.4785C184.454 15.9358 184.947 16.1645 185.595 16.1645ZM195.688 16.9485V13.0145C195.688 12.3752 195.534 11.8898 195.226 11.5585C194.922 11.2225 194.507 11.0545 193.98 11.0545C193.578 11.0545 193.231 11.1642 192.937 11.3835C192.643 11.6028 192.416 11.9178 192.258 12.3285C192.099 12.7345 192.02 13.2198 192.02 13.7845H191.6C191.6 13.0052 191.702 12.3402 191.908 11.7895C192.113 11.2388 192.412 10.8188 192.804 10.5295C193.2 10.2355 193.681 10.0885 194.246 10.0885C194.773 10.0885 195.223 10.2075 195.597 10.4455C195.975 10.6788 196.264 11.0148 196.465 11.4535C196.665 11.8922 196.766 12.4125 196.766 13.0145V16.9485H195.688ZM190.928 16.9485V10.2565H191.866L192.02 11.7965V16.9485H190.928ZM201.771 17.1165C201.192 17.1165 200.674 16.9695 200.217 16.6755C199.764 16.3768 199.405 15.9638 199.139 15.4365C198.878 14.9092 198.747 14.3025 198.747 13.6165C198.747 12.8838 198.878 12.2538 199.139 11.7265C199.4 11.1992 199.757 10.7955 200.21 10.5155C200.667 10.2308 201.188 10.0885 201.771 10.0885C202.28 10.0885 202.714 10.1912 203.073 10.3965C203.432 10.6018 203.722 10.8795 203.941 11.2295C204.16 11.5795 204.312 11.9762 204.396 12.4195C204.485 12.8582 204.51 13.3132 204.473 13.7845H199.629V13.1125H203.752L203.43 13.3225C203.444 13.0472 203.428 12.7718 203.381 12.4965C203.339 12.2212 203.257 11.9692 203.136 11.7405C203.015 11.5072 202.844 11.3205 202.625 11.1805C202.406 11.0405 202.126 10.9705 201.785 10.9705C201.356 10.9705 200.996 11.0802 200.707 11.2995C200.418 11.5188 200.201 11.8082 200.056 12.1675C199.911 12.5222 199.839 12.9072 199.839 13.3225V13.7705C199.839 14.2372 199.909 14.6548 200.049 15.0235C200.194 15.3922 200.408 15.6838 200.693 15.8985C200.978 16.1132 201.337 16.2205 201.771 16.2205C202.205 16.2205 202.562 16.1155 202.842 15.9055C203.122 15.6955 203.292 15.3852 203.353 14.9745H204.487C204.417 15.4178 204.258 15.8005 204.011 16.1225C203.764 16.4398 203.449 16.6848 203.066 16.8575C202.683 17.0302 202.252 17.1165 201.771 17.1165ZM212.453 17.1165C211.916 17.1165 211.414 16.9718 210.948 16.6825C210.486 16.3932 210.112 15.9848 209.828 15.4575C209.543 14.9302 209.401 14.3072 209.401 13.5885C209.401 12.8512 209.543 12.2212 209.828 11.6985C210.112 11.1758 210.486 10.7768 210.948 10.5015C211.414 10.2262 211.916 10.0885 212.453 10.0885C212.831 10.0885 213.169 10.1468 213.468 10.2635C213.771 10.3755 214.035 10.5318 214.259 10.7325C214.483 10.9332 214.667 11.1618 214.812 11.4185C214.961 11.6705 215.071 11.9365 215.141 12.2165L214.021 12.3145C213.904 11.9272 213.708 11.6215 213.433 11.3975C213.162 11.1688 212.831 11.0545 212.439 11.0545C212.107 11.0545 211.795 11.1502 211.501 11.3415C211.211 11.5282 210.976 11.8105 210.794 12.1885C210.612 12.5618 210.521 13.0285 210.521 13.5885C210.521 14.1065 210.602 14.5568 210.766 14.9395C210.934 15.3175 211.162 15.6115 211.452 15.8215C211.741 16.0315 212.07 16.1365 212.439 16.1365C212.957 16.1365 213.349 16.0105 213.615 15.7585C213.885 15.5018 214.021 15.1472 214.021 14.6945H215.141C215.141 15.1612 215.031 15.5765 214.812 15.9405C214.592 16.3045 214.28 16.5915 213.874 16.8015C213.472 17.0115 212.999 17.1165 212.453 17.1165ZM217.389 16.9485V10.2425H218.481V16.9485H217.389ZM218.145 13.9245C218.145 13.0752 218.227 12.3705 218.39 11.8105C218.554 11.2458 218.792 10.8258 219.104 10.5505C219.422 10.2705 219.807 10.1305 220.259 10.1305C220.409 10.1305 220.544 10.1422 220.665 10.1655C220.791 10.1842 220.917 10.2145 221.043 10.2565L220.973 11.3345C220.843 11.2925 220.7 11.2575 220.546 11.2295C220.392 11.1968 220.255 11.1805 220.133 11.1805C219.737 11.1805 219.417 11.2948 219.174 11.5235C218.932 11.7475 218.754 12.0648 218.642 12.4755C218.535 12.8862 218.481 13.3692 218.481 13.9245H218.145ZM224.842 17.1165C224.263 17.1165 223.745 16.9695 223.288 16.6755C222.835 16.3768 222.476 15.9638 222.21 15.4365C221.949 14.9092 221.818 14.3025 221.818 13.6165C221.818 12.8838 221.949 12.2538 222.21 11.7265C222.471 11.1992 222.828 10.7955 223.281 10.5155C223.738 10.2308 224.259 10.0885 224.842 10.0885C225.351 10.0885 225.785 10.1912 226.144 10.3965C226.503 10.6018 226.793 10.8795 227.012 11.2295C227.231 11.5795 227.383 11.9762 227.467 12.4195C227.556 12.8582 227.581 13.3132 227.544 13.7845H222.7V13.1125H226.823L226.501 13.3225C226.515 13.0472 226.499 12.7718 226.452 12.4965C226.41 12.2212 226.328 11.9692 226.207 11.7405C226.086 11.5072 225.915 11.3205 225.696 11.1805C225.477 11.0405 225.197 10.9705 224.856 10.9705C224.427 10.9705 224.067 11.0802 223.778 11.2995C223.489 11.5188 223.272 11.8082 223.127 12.1675C222.982 12.5222 222.91 12.9072 222.91 13.3225V13.7705C222.91 14.2372 222.98 14.6548 223.12 15.0235C223.265 15.3922 223.479 15.6838 223.764 15.8985C224.049 16.1132 224.408 16.2205 224.842 16.2205C225.276 16.2205 225.633 16.1155 225.913 15.9055C226.193 15.6955 226.363 15.3852 226.424 14.9745H227.558C227.488 15.4178 227.329 15.8005 227.082 16.1225C226.835 16.4398 226.52 16.6848 226.137 16.8575C225.754 17.0302 225.323 17.1165 224.842 17.1165ZM232.173 17.1165C231.632 17.1165 231.135 16.9718 230.682 16.6825C230.23 16.3885 229.868 15.9778 229.597 15.4505C229.327 14.9185 229.191 14.2932 229.191 13.5745C229.191 12.8605 229.324 12.2422 229.59 11.7195C229.856 11.1968 230.209 10.7955 230.647 10.5155C231.091 10.2308 231.576 10.0885 232.103 10.0885C232.593 10.0885 233.023 10.2075 233.391 10.4455C233.765 10.6835 234.054 11.0265 234.259 11.4745C234.465 11.9225 234.567 12.4638 234.567 13.0985H234.147C234.147 12.6552 234.059 12.2818 233.881 11.9785C233.709 11.6752 233.482 11.4465 233.202 11.2925C232.922 11.1338 232.621 11.0545 232.299 11.0545C231.935 11.0545 231.602 11.1572 231.298 11.3625C231 11.5632 230.759 11.8525 230.577 12.2305C230.4 12.6038 230.311 13.0518 230.311 13.5745C230.311 14.1065 230.4 14.5638 230.577 14.9465C230.759 15.3292 231 15.6232 231.298 15.8285C231.602 16.0338 231.935 16.1365 232.299 16.1365C232.603 16.1365 232.894 16.0572 233.174 15.8985C233.459 15.7398 233.692 15.5088 233.874 15.2055C234.056 14.8975 234.147 14.5265 234.147 14.0925H234.567C234.567 14.7412 234.46 15.2918 234.245 15.7445C234.035 16.1925 233.748 16.5332 233.384 16.7665C233.025 16.9998 232.621 17.1165 232.173 17.1165ZM234.329 16.9485L234.147 15.3805V7.40049H235.239V16.9485H234.329ZM238.764 8.67449C238.54 8.67449 238.363 8.61149 238.232 8.48549C238.101 8.35482 238.036 8.18449 238.036 7.97449C238.036 7.76915 238.101 7.60582 238.232 7.48449C238.363 7.36315 238.54 7.30249 238.764 7.30249C238.988 7.30249 239.165 7.36315 239.296 7.48449C239.427 7.60582 239.492 7.76915 239.492 7.97449C239.492 8.18449 239.427 8.35482 239.296 8.48549C239.165 8.61149 238.988 8.67449 238.764 8.67449ZM238.218 16.9485V10.2425H239.31V16.9485H238.218ZM244.446 17.1165C244.082 17.1165 243.755 17.0465 243.466 16.9065C243.177 16.7665 242.948 16.5565 242.78 16.2765C242.612 15.9965 242.528 15.6465 242.528 15.2265V8.39449H243.606V15.1985C243.606 15.8892 243.928 16.2345 244.572 16.2345C244.763 16.2345 244.948 16.2135 245.125 16.1715C245.307 16.1295 245.51 16.0665 245.734 15.9825L245.888 16.7665C245.65 16.8692 245.412 16.9532 245.174 17.0185C244.941 17.0838 244.698 17.1165 244.446 17.1165ZM241.45 11.0125V10.2565H245.72V11.0125H241.45ZM255.664 10.2425H256.756V16.9485H255.664V10.2425ZM250.918 10.2425H252.01V14.4145C252.01 14.9745 252.145 15.3992 252.416 15.6885C252.691 15.9778 253.083 16.1225 253.592 16.1225C254.012 16.1225 254.376 16.0105 254.684 15.7865C254.997 15.5625 255.237 15.2545 255.405 14.8625C255.578 14.4658 255.664 14.0132 255.664 13.5045H256.07C256.07 14.2558 255.96 14.8975 255.741 15.4295C255.526 15.9615 255.221 16.3698 254.824 16.6545C254.432 16.9345 253.97 17.0745 253.438 17.0745C252.934 17.0745 252.493 16.9812 252.115 16.7945C251.737 16.6078 251.443 16.3255 251.233 15.9475C251.023 15.5648 250.918 15.0818 250.918 14.4985V10.2425ZM262.069 17.1165C261.42 17.1165 260.879 17.0255 260.445 16.8435C260.011 16.6568 259.682 16.4025 259.458 16.0805C259.234 15.7538 259.115 15.3805 259.101 14.9605H260.151C260.174 15.3852 260.344 15.7048 260.662 15.9195C260.984 16.1295 261.42 16.2345 261.971 16.2345C262.26 16.2345 262.526 16.1878 262.769 16.0945C263.011 16.0012 263.205 15.8728 263.35 15.7095C263.494 15.5462 263.567 15.3618 263.567 15.1565C263.567 14.8952 263.471 14.6898 263.28 14.5405C263.088 14.3912 262.783 14.2605 262.363 14.1485L261.061 13.7285C260.496 13.5512 260.062 13.3085 259.759 13.0005C259.46 12.6878 259.311 12.3145 259.311 11.8805C259.311 11.3392 259.549 10.9052 260.025 10.5785C260.501 10.2518 261.126 10.0885 261.901 10.0885C262.722 10.0885 263.359 10.2565 263.812 10.5925C264.264 10.9285 264.5 11.3485 264.519 11.8525H263.441C263.399 11.5585 263.249 11.3368 262.993 11.1875C262.736 11.0335 262.372 10.9565 261.901 10.9565C261.448 10.9565 261.093 11.0592 260.837 11.2645C260.585 11.4652 260.459 11.6892 260.459 11.9365C260.459 12.3985 260.855 12.7392 261.649 12.9585L262.979 13.4065C263.553 13.5792 263.991 13.8055 264.295 14.0855C264.603 14.3655 264.757 14.7225 264.757 15.1565C264.757 15.4925 264.647 15.8098 264.428 16.1085C264.208 16.4072 263.898 16.6498 263.497 16.8365C263.095 17.0232 262.619 17.1165 262.069 17.1165ZM269.41 17.1165C268.831 17.1165 268.313 16.9695 267.856 16.6755C267.403 16.3768 267.044 15.9638 266.778 15.4365C266.517 14.9092 266.386 14.3025 266.386 13.6165C266.386 12.8838 266.517 12.2538 266.778 11.7265C267.039 11.1992 267.396 10.7955 267.849 10.5155C268.306 10.2308 268.827 10.0885 269.41 10.0885C269.919 10.0885 270.353 10.1912 270.712 10.3965C271.071 10.6018 271.361 10.8795 271.58 11.2295C271.799 11.5795 271.951 11.9762 272.035 12.4195C272.124 12.8582 272.149 13.3132 272.112 13.7845H267.268V13.1125H271.391L271.069 13.3225C271.083 13.0472 271.067 12.7718 271.02 12.4965C270.978 12.2212 270.896 11.9692 270.775 11.7405C270.654 11.5072 270.483 11.3205 270.264 11.1805C270.045 11.0405 269.765 10.9705 269.424 10.9705C268.995 10.9705 268.635 11.0802 268.346 11.2995C268.057 11.5188 267.84 11.8082 267.695 12.1675C267.55 12.5222 267.478 12.9072 267.478 13.3225V13.7705C267.478 14.2372 267.548 14.6548 267.688 15.0235C267.833 15.3922 268.047 15.6838 268.332 15.8985C268.617 16.1132 268.976 16.2205 269.41 16.2205C269.844 16.2205 270.201 16.1155 270.481 15.9055C270.761 15.6955 270.931 15.3852 270.992 14.9745H272.126C272.056 15.4178 271.897 15.8005 271.65 16.1225C271.403 16.4398 271.088 16.6848 270.705 16.8575C270.322 17.0302 269.891 17.1165 269.41 17.1165ZM276.741 17.1165C276.2 17.1165 275.703 16.9718 275.25 16.6825C274.798 16.3885 274.436 15.9778 274.165 15.4505C273.895 14.9185 273.759 14.2932 273.759 13.5745C273.759 12.8605 273.892 12.2422 274.158 11.7195C274.424 11.1968 274.777 10.7955 275.215 10.5155C275.659 10.2308 276.144 10.0885 276.671 10.0885C277.161 10.0885 277.591 10.2075 277.959 10.4455C278.333 10.6835 278.622 11.0265 278.827 11.4745C279.033 11.9225 279.135 12.4638 279.135 13.0985H278.715C278.715 12.6552 278.627 12.2818 278.449 11.9785C278.277 11.6752 278.05 11.4465 277.77 11.2925C277.49 11.1338 277.189 11.0545 276.867 11.0545C276.503 11.0545 276.17 11.1572 275.866 11.3625C275.568 11.5632 275.327 11.8525 275.145 12.2305C274.968 12.6038 274.879 13.0518 274.879 13.5745C274.879 14.1065 274.968 14.5638 275.145 14.9465C275.327 15.3292 275.568 15.6232 275.866 15.8285C276.17 16.0338 276.503 16.1365 276.867 16.1365C277.171 16.1365 277.462 16.0572 277.742 15.8985C278.027 15.7398 278.26 15.5088 278.442 15.2055C278.624 14.8975 278.715 14.5265 278.715 14.0925H279.135C279.135 14.7412 279.028 15.2918 278.813 15.7445C278.603 16.1925 278.316 16.5332 277.952 16.7665C277.593 16.9998 277.189 17.1165 276.741 17.1165ZM278.897 16.9485L278.715 15.3805V7.40049H279.807V16.9485H278.897Z" fill="black"/>
<path d="M8 37.1152L10.5 39.6152L18.8333 31.2818M18 37.9485V43.7818C18 44.2238 17.8244 44.6478 17.5118 44.9603C17.1993 45.2729 16.7754 45.4485 16.3333 45.4485H4.66667C4.22464 45.4485 3.80072 45.2729 3.48816 44.9603C3.17559 44.6478 3 44.2238 3 43.7818V32.1152C3 31.6731 3.17559 31.2492 3.48816 30.9366C3.80072 30.6241 4.22464 30.4485 4.66667 30.4485H13.8333" stroke="#2FBF36" stroke-width="2" stroke-linecap="round" stroke-linejoin="round"/>
<path d="M29.914 42.9485V34.1565H33.204C33.848 34.1565 34.3823 34.2638 34.807 34.4785C35.2317 34.6885 35.549 34.9685 35.759 35.3185C35.969 35.6638 36.074 36.0418 36.074 36.4525C36.074 36.9565 35.934 37.3952 35.654 37.7685C35.3787 38.1372 34.9633 38.3892 34.408 38.5245C34.7673 38.5805 35.0823 38.7088 35.353 38.9095C35.6283 39.1055 35.843 39.3482 35.997 39.6375C36.151 39.9222 36.228 40.2278 36.228 40.5545C36.228 40.8532 36.1767 41.1448 36.074 41.4295C35.976 41.7142 35.8103 41.9708 35.577 42.1995C35.3437 42.4282 35.0333 42.6102 34.646 42.7455C34.2587 42.8808 33.778 42.9485 33.204 42.9485H29.914ZM31.006 41.9965H33.19C33.8573 41.9965 34.3357 41.8565 34.625 41.5765C34.919 41.2965 35.066 40.9372 35.066 40.4985C35.066 40.0552 34.9073 39.7005 34.59 39.4345C34.2727 39.1638 33.806 39.0285 33.19 39.0285H31.006V41.9965ZM31.006 35.0945V38.0905H33.162C33.708 38.0905 34.142 37.9575 34.464 37.6915C34.7907 37.4208 34.954 37.0405 34.954 36.5505C34.954 36.0932 34.7953 35.7362 34.478 35.4795C34.1653 35.2228 33.7313 35.0945 33.176 35.0945H31.006ZM43.2293 36.2425H44.3213V42.9485H43.2293V36.2425ZM38.4833 36.2425H39.5753V40.4145C39.5753 40.9745 39.7106 41.3992 39.9813 41.6885C40.2566 41.9778 40.6486 42.1225 41.1573 42.1225C41.5773 42.1225 41.9413 42.0105 42.2493 41.7865C42.562 41.5625 42.8023 41.2545 42.9703 40.8625C43.143 40.4658 43.2293 40.0132 43.2293 39.5045H43.6353C43.6353 40.2558 43.5256 40.8975 43.3063 41.4295C43.0916 41.9615 42.786 42.3698 42.3893 42.6545C41.9973 42.9345 41.5353 43.0745 41.0033 43.0745C40.4993 43.0745 40.0583 42.9812 39.6803 42.7945C39.3023 42.6078 39.0083 42.3255 38.7983 41.9475C38.5883 41.5648 38.4833 41.0818 38.4833 40.4985V36.2425ZM46.1199 36.2565H47.3379L49.5219 41.9965H49.2699L50.9639 36.2565H52.0839L49.5639 44.2925C49.3539 44.9645 49.0739 45.4825 48.7239 45.8465C48.3739 46.2105 47.9259 46.3925 47.3799 46.3925C47.0859 46.3925 46.8059 46.3505 46.5399 46.2665C46.2785 46.1825 46.0079 46.0612 45.7279 45.9025V44.8945C45.9752 45.0905 46.2132 45.2305 46.4419 45.3145C46.6752 45.3985 46.9179 45.4405 47.1699 45.4405C47.4499 45.4405 47.6832 45.3518 47.8699 45.1745C48.0612 44.9972 48.2199 44.7685 48.3459 44.4885C48.4719 44.2132 48.5792 43.9238 48.6679 43.6205L48.8639 42.9485L46.1199 36.2565ZM59.5616 43.1165C59.025 43.1165 58.5233 42.9718 58.0566 42.6825C57.5946 42.3932 57.2213 41.9848 56.9366 41.4575C56.652 40.9302 56.5096 40.3072 56.5096 39.5885C56.5096 38.8512 56.652 38.2212 56.9366 37.6985C57.2213 37.1758 57.5946 36.7768 58.0566 36.5015C58.5233 36.2262 59.025 36.0885 59.5616 36.0885C59.9396 36.0885 60.278 36.1468 60.5766 36.2635C60.88 36.3755 61.1436 36.5318 61.3676 36.7325C61.5916 36.9332 61.776 37.1618 61.9206 37.4185C62.07 37.6705 62.1796 37.9365 62.2496 38.2165L61.1296 38.3145C61.013 37.9272 60.817 37.6215 60.5416 37.3975C60.271 37.1688 59.9396 37.0545 59.5476 37.0545C59.2163 37.0545 58.9036 37.1502 58.6096 37.3415C58.3203 37.5282 58.0846 37.8105 57.9026 38.1885C57.7206 38.5618 57.6296 39.0285 57.6296 39.5885C57.6296 40.1065 57.7113 40.5568 57.8746 40.9395C58.0426 41.3175 58.2713 41.6115 58.5606 41.8215C58.85 42.0315 59.179 42.1365 59.5476 42.1365C60.0656 42.1365 60.4576 42.0105 60.7236 41.7585C60.9943 41.5018 61.1296 41.1472 61.1296 40.6945H62.2496C62.2496 41.1612 62.14 41.5765 61.9206 41.9405C61.7013 42.3045 61.3886 42.5915 60.9826 42.8015C60.5813 43.0115 60.1076 43.1165 59.5616 43.1165ZM64.4984 42.9485V36.2425H65.5904V42.9485H64.4984ZM65.2544 39.9245C65.2544 39.0752 65.336 38.3705 65.4994 37.8105C65.6627 37.2458 65.9007 36.8258 66.2134 36.5505C66.5307 36.2705 66.9157 36.1305 67.3684 36.1305C67.5177 36.1305 67.653 36.1422 67.7744 36.1655C67.9004 36.1842 68.0264 36.2145 68.1524 36.2565L68.0824 37.3345C67.9517 37.2925 67.8094 37.2575 67.6554 37.2295C67.5014 37.1968 67.3637 37.1805 67.2424 37.1805C66.8457 37.1805 66.526 37.2948 66.2834 37.5235C66.0407 37.7475 65.8634 38.0648 65.7514 38.4755C65.644 38.8862 65.5904 39.3692 65.5904 39.9245H65.2544ZM71.951 43.1165C71.3723 43.1165 70.8543 42.9695 70.397 42.6755C69.9443 42.3768 69.585 41.9638 69.319 41.4365C69.0576 40.9092 68.927 40.3025 68.927 39.6165C68.927 38.8838 69.0576 38.2538 69.319 37.7265C69.5803 37.1992 69.9373 36.7955 70.39 36.5155C70.8473 36.2308 71.3676 36.0885 71.951 36.0885C72.4596 36.0885 72.8936 36.1912 73.253 36.3965C73.6123 36.6018 73.9016 36.8795 74.121 37.2295C74.3403 37.5795 74.492 37.9762 74.576 38.4195C74.6646 38.8582 74.6903 39.3132 74.653 39.7845H69.809V39.1125H73.932L73.61 39.3225C73.624 39.0472 73.6076 38.7718 73.561 38.4965C73.519 38.2212 73.4373 37.9692 73.316 37.7405C73.1946 37.5072 73.0243 37.3205 72.805 37.1805C72.5856 37.0405 72.3056 36.9705 71.965 36.9705C71.5356 36.9705 71.1763 37.0802 70.887 37.2995C70.5976 37.5188 70.3806 37.8082 70.236 38.1675C70.0913 38.5222 70.019 38.9072 70.019 39.3225V39.7705C70.019 40.2372 70.089 40.6548 70.229 41.0235C70.3736 41.3922 70.5883 41.6838 70.873 41.8985C71.1576 42.1132 71.517 42.2205 71.951 42.2205C72.385 42.2205 72.742 42.1155 73.022 41.9055C73.302 41.6955 73.4723 41.3852 73.533 40.9745H74.667C74.597 41.4178 74.4383 41.8005 74.191 42.1225C73.9436 42.4398 73.6286 42.6848 73.246 42.8575C72.8633 43.0302 72.4316 43.1165 71.951 43.1165ZM79.2824 43.1165C78.741 43.1165 78.244 42.9718 77.7914 42.6825C77.3387 42.3885 76.977 41.9778 76.7064 41.4505C76.4357 40.9185 76.3004 40.2932 76.3004 39.5745C76.3004 38.8605 76.4334 38.2422 76.6994 37.7195C76.9654 37.1968 77.3177 36.7955 77.7564 36.5155C78.1997 36.2308 78.685 36.0885 79.2124 36.0885C79.7024 36.0885 80.1317 36.2075 80.5004 36.4455C80.8737 36.6835 81.163 37.0265 81.3684 37.4745C81.5737 37.9225 81.6764 38.4638 81.6764 39.0985H81.2564C81.2564 38.6552 81.1677 38.2818 80.9904 37.9785C80.8177 37.6752 80.5914 37.4465 80.3114 37.2925C80.0314 37.1338 79.7304 37.0545 79.4084 37.0545C79.0444 37.0545 78.7107 37.1572 78.4074 37.3625C78.1087 37.5632 77.8684 37.8525 77.6864 38.2305C77.509 38.6038 77.4204 39.0518 77.4204 39.5745C77.4204 40.1065 77.509 40.5638 77.6864 40.9465C77.8684 41.3292 78.1087 41.6232 78.4074 41.8285C78.7107 42.0338 79.0444 42.1365 79.4084 42.1365C79.7117 42.1365 80.0034 42.0572 80.2834 41.8985C80.568 41.7398 80.8014 41.5088 80.9834 41.2055C81.1654 40.8975 81.2564 40.5265 81.2564 40.0925H81.6764C81.6764 40.7412 81.569 41.2918 81.3544 41.7445C81.1444 42.1925 80.8574 42.5332 80.4934 42.7665C80.134 42.9998 79.7304 43.1165 79.2824 43.1165ZM81.4384 42.9485L81.2564 41.3805V33.4005H82.3484V42.9485H81.4384ZM85.8732 34.6745C85.6492 34.6745 85.4719 34.6115 85.3412 34.4855C85.2105 34.3548 85.1452 34.1845 85.1452 33.9745C85.1452 33.7692 85.2105 33.6058 85.3412 33.4845C85.4719 33.3632 85.6492 33.3025 85.8732 33.3025C86.0972 33.3025 86.2745 33.3632 86.4052 33.4845C86.5359 33.6058 86.6012 33.7692 86.6012 33.9745C86.6012 34.1845 86.5359 34.3548 86.4052 34.4855C86.2745 34.6115 86.0972 34.6745 85.8732 34.6745ZM85.3272 42.9485V36.2425H86.4192V42.9485H85.3272ZM91.5551 43.1165C91.1911 43.1165 90.8645 43.0465 90.5751 42.9065C90.2858 42.7665 90.0571 42.5565 89.8891 42.2765C89.7211 41.9965 89.6371 41.6465 89.6371 41.2265V34.3945H90.7151V41.1985C90.7151 41.8892 91.0371 42.2345 91.6811 42.2345C91.8725 42.2345 92.0568 42.2135 92.2341 42.1715C92.4161 42.1295 92.6191 42.0665 92.8431 41.9825L92.9971 42.7665C92.7591 42.8692 92.5211 42.9532 92.2831 43.0185C92.0498 43.0838 91.8071 43.1165 91.5551 43.1165ZM88.5591 37.0125V36.2565H92.8291V37.0125H88.5591ZM97.2388 43.1165C96.5901 43.1165 96.0488 43.0255 95.6148 42.8435C95.1808 42.6568 94.8518 42.4025 94.6278 42.0805C94.4038 41.7538 94.2848 41.3805 94.2708 40.9605H95.3208C95.3441 41.3852 95.5145 41.7048 95.8318 41.9195C96.1538 42.1295 96.5901 42.2345 97.1408 42.2345C97.4301 42.2345 97.6961 42.1878 97.9388 42.0945C98.1815 42.0012 98.3751 41.8728 98.5198 41.7095C98.6645 41.5462 98.7368 41.3618 98.7368 41.1565C98.7368 40.8952 98.6411 40.6898 98.4498 40.5405C98.2585 40.3912 97.9528 40.2605 97.5328 40.1485L96.2308 39.7285C95.6661 39.5512 95.2321 39.3085 94.9288 39.0005C94.6301 38.6878 94.4808 38.3145 94.4808 37.8805C94.4808 37.3392 94.7188 36.9052 95.1948 36.5785C95.6708 36.2518 96.2961 36.0885 97.0708 36.0885C97.8921 36.0885 98.5291 36.2565 98.9818 36.5925C99.4345 36.9285 99.6701 37.3485 99.6888 37.8525H98.6108C98.5688 37.5585 98.4195 37.3368 98.1628 37.1875C97.9061 37.0335 97.5421 36.9565 97.0708 36.9565C96.6181 36.9565 96.2635 37.0592 96.0068 37.2645C95.7548 37.4652 95.6288 37.6892 95.6288 37.9365C95.6288 38.3985 96.0255 38.7392 96.8188 38.9585L98.1488 39.4065C98.7228 39.5792 99.1615 39.8055 99.4648 40.0855C99.7728 40.3655 99.9268 40.7225 99.9268 41.1565C99.9268 41.4925 99.8171 41.8098 99.5978 42.1085C99.3785 42.4072 99.0681 42.6498 98.6668 42.8365C98.2655 43.0232 97.7895 43.1165 97.2388 43.1165ZM110.409 42.9485V39.0145C110.409 38.3752 110.255 37.8898 109.947 37.5585C109.643 37.2225 109.228 37.0545 108.701 37.0545C108.299 37.0545 107.952 37.1642 107.658 37.3835C107.364 37.6028 107.137 37.9178 106.979 38.3285C106.82 38.7345 106.741 39.2198 106.741 39.7845H106.321C106.321 39.0052 106.423 38.3402 106.629 37.7895C106.834 37.2388 107.133 36.8188 107.525 36.5295C107.921 36.2355 108.402 36.0885 108.967 36.0885C109.494 36.0885 109.944 36.2075 110.318 36.4455C110.696 36.6788 110.985 37.0148 111.186 37.4535C111.386 37.8922 111.487 38.4125 111.487 39.0145V42.9485H110.409ZM105.649 42.9485V36.2565H106.587L106.741 37.7965V42.9485H105.649ZM116.59 43.1165C115.988 43.1165 115.451 42.9835 114.98 42.7175C114.513 42.4515 114.144 42.0572 113.874 41.5345C113.603 41.0118 113.468 40.3678 113.468 39.6025C113.468 38.8325 113.603 38.1885 113.874 37.6705C114.144 37.1478 114.513 36.7535 114.98 36.4875C115.451 36.2215 115.988 36.0885 116.59 36.0885C117.187 36.0885 117.719 36.2215 118.186 36.4875C118.657 36.7535 119.026 37.1478 119.292 37.6705C119.562 38.1885 119.698 38.8325 119.698 39.6025C119.698 40.3678 119.562 41.0118 119.292 41.5345C119.026 42.0572 118.657 42.4515 118.186 42.7175C117.719 42.9835 117.187 43.1165 116.59 43.1165ZM116.562 42.1645C116.996 42.1645 117.364 42.0618 117.668 41.8565C117.971 41.6465 118.2 41.3502 118.354 40.9675C118.512 40.5848 118.592 40.1298 118.592 39.6025C118.592 38.8045 118.426 38.1768 118.095 37.7195C117.763 37.2575 117.271 37.0265 116.618 37.0265C116.179 37.0265 115.808 37.1315 115.505 37.3415C115.206 37.5468 114.977 37.8432 114.819 38.2305C114.665 38.6132 114.588 39.0705 114.588 39.6025C114.588 40.3912 114.753 41.0165 115.085 41.4785C115.421 41.9358 115.913 42.1645 116.562 42.1645ZM120.732 36.2565H121.866L123.574 41.8425H123.434L125.1 36.5785H126.01L127.662 41.8565H127.536L129.244 36.2565H130.336L128.138 42.9485H127.074L125.45 38.0065H125.618L124.008 42.9485H122.944L120.732 36.2565ZM140.051 36.2425H141.143V42.9485H140.051V36.2425ZM135.305 36.2425H136.397V40.4145C136.397 40.9745 136.532 41.3992 136.803 41.6885C137.078 41.9778 137.47 42.1225 137.979 42.1225C138.399 42.1225 138.763 42.0105 139.071 41.7865C139.383 41.5625 139.624 41.2545 139.792 40.8625C139.964 40.4658 140.051 40.0132 140.051 39.5045H140.457C140.457 40.2558 140.347 40.8975 140.128 41.4295C139.913 41.9615 139.607 42.3698 139.211 42.6545C138.819 42.9345 138.357 43.0745 137.825 43.0745C137.321 43.0745 136.88 42.9812 136.502 42.7945C136.124 42.6078 135.83 42.3255 135.62 41.9475C135.41 41.5648 135.305 41.0818 135.305 40.4985V36.2425ZM146.455 43.1165C145.807 43.1165 145.265 43.0255 144.831 42.8435C144.397 42.6568 144.068 42.4025 143.844 42.0805C143.62 41.7538 143.501 41.3805 143.487 40.9605H144.537C144.561 41.3852 144.731 41.7048 145.048 41.9195C145.37 42.1295 145.807 42.2345 146.357 42.2345C146.647 42.2345 146.913 42.1878 147.155 42.0945C147.398 42.0012 147.592 41.8728 147.736 41.7095C147.881 41.5462 147.953 41.3618 147.953 41.1565C147.953 40.8952 147.858 40.6898 147.666 40.5405C147.475 40.3912 147.169 40.2605 146.749 40.1485L145.447 39.7285C144.883 39.5512 144.449 39.3085 144.145 39.0005C143.847 38.6878 143.697 38.3145 143.697 37.8805C143.697 37.3392 143.935 36.9052 144.411 36.5785C144.887 36.2518 145.513 36.0885 146.287 36.0885C147.109 36.0885 147.746 36.2565 148.198 36.5925C148.651 36.9285 148.887 37.3485 148.905 37.8525H147.827C147.785 37.5585 147.636 37.3368 147.379 37.1875C147.123 37.0335 146.759 36.9565 146.287 36.9565C145.835 36.9565 145.48 37.0592 145.223 37.2645C144.971 37.4652 144.845 37.6892 144.845 37.9365C144.845 38.3985 145.242 38.7392 146.035 38.9585L147.365 39.4065C147.939 39.5792 148.378 39.8055 148.681 40.0855C148.989 40.3655 149.143 40.7225 149.143 41.1565C149.143 41.4925 149.034 41.8098 148.814 42.1085C148.595 42.4072 148.285 42.6498 147.883 42.8365C147.482 43.0232 147.006 43.1165 146.455 43.1165ZM153.797 43.1165C153.218 43.1165 152.7 42.9695 152.243 42.6755C151.79 42.3768 151.431 41.9638 151.165 41.4365C150.903 40.9092 150.773 40.3025 150.773 39.6165C150.773 38.8838 150.903 38.2538 151.165 37.7265C151.426 37.1992 151.783 36.7955 152.236 36.5155C152.693 36.2308 153.213 36.0885 153.797 36.0885C154.305 36.0885 154.739 36.1912 155.099 36.3965C155.458 36.6018 155.747 36.8795 155.967 37.2295C156.186 37.5795 156.338 37.9762 156.422 38.4195C156.51 38.8582 156.536 39.3132 156.499 39.7845H151.655V39.1125H155.778L155.456 39.3225C155.47 39.0472 155.453 38.7718 155.407 38.4965C155.365 38.2212 155.283 37.9692 155.162 37.7405C155.04 37.5072 154.87 37.3205 154.651 37.1805C154.431 37.0405 154.151 36.9705 153.811 36.9705C153.381 36.9705 153.022 37.0802 152.733 37.2995C152.443 37.5188 152.226 37.8082 152.082 38.1675C151.937 38.5222 151.865 38.9072 151.865 39.3225V39.7705C151.865 40.2372 151.935 40.6548 152.075 41.0235C152.219 41.3922 152.434 41.6838 152.719 41.8985C153.003 42.1132 153.363 42.2205 153.797 42.2205C154.231 42.2205 154.588 42.1155 154.868 41.9055C155.148 41.6955 155.318 41.3852 155.379 40.9745H156.513C156.443 41.4178 156.284 41.8005 156.037 42.1225C155.789 42.4398 155.474 42.6848 155.092 42.8575C154.709 43.0302 154.277 43.1165 153.797 43.1165ZM162.126 42.9485V33.4005H163.218V42.9485H162.126ZM170.264 42.9485L170.124 41.4785V38.6085C170.124 38.0065 169.996 37.5748 169.739 37.3135C169.483 37.0475 169.098 36.9145 168.584 36.9145C168.295 36.9145 168.031 36.9565 167.793 37.0405C167.56 37.1245 167.373 37.2552 167.233 37.4325C167.098 37.6052 167.03 37.8292 167.03 38.1045H165.812C165.812 37.6192 165.931 37.2295 166.169 36.9355C166.407 36.6368 166.734 36.4222 167.149 36.2915C167.569 36.1562 168.048 36.0885 168.584 36.0885C169.098 36.0885 169.553 36.1748 169.949 36.3475C170.346 36.5202 170.656 36.7955 170.88 37.1735C171.104 37.5468 171.216 38.0345 171.216 38.6365V42.9485H170.264ZM167.982 43.1165C167.432 43.1165 166.977 43.0185 166.617 42.8225C166.258 42.6265 165.99 42.3722 165.812 42.0595C165.635 41.7468 165.546 41.4178 165.546 41.0725C165.546 40.6198 165.658 40.2512 165.882 39.9665C166.111 39.6818 166.421 39.4742 166.813 39.3435C167.205 39.2082 167.646 39.1405 168.136 39.1405C168.486 39.1405 168.836 39.1755 169.186 39.2455C169.541 39.3155 169.886 39.4112 170.222 39.5325V40.2185C169.942 40.1065 169.625 40.0178 169.27 39.9525C168.92 39.8872 168.598 39.8545 168.304 39.8545C167.856 39.8545 167.478 39.9478 167.17 40.1345C166.862 40.3165 166.708 40.6292 166.708 41.0725C166.708 41.3992 166.825 41.6792 167.058 41.9125C167.296 42.1458 167.674 42.2625 168.192 42.2625C168.556 42.2625 168.883 42.1785 169.172 42.0105C169.466 41.8378 169.697 41.6232 169.865 41.3665C170.038 41.1098 170.124 40.8532 170.124 40.5965H170.39C170.39 41.0445 170.292 41.4598 170.096 41.8425C169.905 42.2252 169.63 42.5332 169.27 42.7665C168.911 42.9998 168.482 43.1165 167.982 43.1165ZM175.959 43.1165C175.595 43.1165 175.269 43.0465 174.979 42.9065C174.69 42.7665 174.461 42.5565 174.293 42.2765C174.125 41.9965 174.041 41.6465 174.041 41.2265V34.3945H175.119V41.1985C175.119 41.8892 175.441 42.2345 176.085 42.2345C176.277 42.2345 176.461 42.2135 176.638 42.1715C176.82 42.1295 177.023 42.0665 177.247 41.9825L177.401 42.7665C177.163 42.8692 176.925 42.9532 176.687 43.0185C176.454 43.0838 176.211 43.1165 175.959 43.1165ZM172.963 37.0125V36.2565H177.233V37.0125H172.963ZM181.559 43.1165C180.98 43.1165 180.462 42.9695 180.005 42.6755C179.552 42.3768 179.193 41.9638 178.927 41.4365C178.666 40.9092 178.535 40.3025 178.535 39.6165C178.535 38.8838 178.666 38.2538 178.927 37.7265C179.188 37.1992 179.545 36.7955 179.998 36.5155C180.455 36.2308 180.976 36.0885 181.559 36.0885C182.068 36.0885 182.502 36.1912 182.861 36.3965C183.22 36.6018 183.51 36.8795 183.729 37.2295C183.948 37.5795 184.1 37.9762 184.184 38.4195C184.273 38.8582 184.298 39.3132 184.261 39.7845H179.417V39.1125H183.54L183.218 39.3225C183.232 39.0472 183.216 38.7718 183.169 38.4965C183.127 38.2212 183.045 37.9692 182.924 37.7405C182.803 37.5072 182.632 37.3205 182.413 37.1805C182.194 37.0405 181.914 36.9705 181.573 36.9705C181.144 36.9705 180.784 37.0802 180.495 37.2995C180.206 37.5188 179.989 37.8082 179.844 38.1675C179.699 38.5222 179.627 38.9072 179.627 39.3225V39.7705C179.627 40.2372 179.697 40.6548 179.837 41.0235C179.982 41.3922 180.196 41.6838 180.481 41.8985C180.766 42.1132 181.125 42.2205 181.559 42.2205C181.993 42.2205 182.35 42.1155 182.63 41.9055C182.91 41.6955 183.08 41.3852 183.141 40.9745H184.275C184.205 41.4178 184.046 41.8005 183.799 42.1225C183.552 42.4398 183.237 42.6848 182.854 42.8575C182.471 43.0302 182.04 43.1165 181.559 43.1165ZM186.496 42.9485V36.2425H187.588V42.9485H186.496ZM187.252 39.9245C187.252 39.0752 187.334 38.3705 187.497 37.8105C187.661 37.2458 187.899 36.8258 188.211 36.5505C188.529 36.2705 188.914 36.1305 189.366 36.1305C189.516 36.1305 189.651 36.1422 189.772 36.1655C189.898 36.1842 190.024 36.2145 190.15 36.2565L190.08 37.3345C189.95 37.2925 189.807 37.2575 189.653 37.2295C189.499 37.1968 189.362 37.1805 189.24 37.1805C188.844 37.1805 188.524 37.2948 188.281 37.5235C188.039 37.7475 187.861 38.0648 187.749 38.4755C187.642 38.8862 187.588 39.3692 187.588 39.9245H187.252Z" fill="black"/>
<path d="M8 63.1152L10.5 65.6152L18.8333 57.2818M18 63.9485V69.7818C18 70.2238 17.8244 70.6478 17.5118 70.9603C17.1993 71.2729 16.7754 71.4485 16.3333 71.4485H4.66667C4.22464 71.4485 3.80072 71.2729 3.48816 70.9603C3.17559 70.6478 3 70.2238 3 69.7818V58.1152C3 57.6731 3.17559 57.2492 3.48816 56.9366C3.80072 56.6241 4.22464 56.4485 4.66667 56.4485H13.8333" stroke="#2FBF36" stroke-width="2" stroke-linecap="round" stroke-linejoin="round"/>
<path d="M28.864 68.9485L31.888 60.1565H33.218L36.172 68.9485H35.024L34.282 66.6945H30.782L30.012 68.9485H28.864ZM31.062 65.8405H34.002L32.532 61.4865L31.062 65.8405ZM42.5731 62.2425H43.6651V68.9485H42.5731V62.2425ZM37.8271 62.2425H38.9191V66.4145C38.9191 66.9745 39.0544 67.3992 39.3251 67.6885C39.6004 67.9778 39.9924 68.1225 40.5011 68.1225C40.9211 68.1225 41.2851 68.0105 41.5931 67.7865C41.9057 67.5625 42.1461 67.2545 42.3141 66.8625C42.4867 66.4658 42.5731 66.0132 42.5731 65.5045H42.9791C42.9791 66.2558 42.8694 66.8975 42.6501 67.4295C42.4354 67.9615 42.1297 68.3698 41.7331 68.6545C41.3411 68.9345 40.8791 69.0745 40.3471 69.0745C39.8431 69.0745 39.4021 68.9812 39.0241 68.7945C38.6461 68.6078 38.3521 68.3255 38.1421 67.9475C37.9321 67.5648 37.8271 67.0818 37.8271 66.4985V62.2425ZM48.6276 69.1165C48.2636 69.1165 47.937 69.0465 47.6476 68.9065C47.3583 68.7665 47.1296 68.5565 46.9616 68.2765C46.7936 67.9965 46.7096 67.6465 46.7096 67.2265V60.3945H47.7876V67.1985C47.7876 67.8892 48.1096 68.2345 48.7536 68.2345C48.945 68.2345 49.1293 68.2135 49.3066 68.1715C49.4886 68.1295 49.6916 68.0665 49.9156 67.9825L50.0696 68.7665C49.8316 68.8692 49.5936 68.9532 49.3556 69.0185C49.1223 69.0838 48.8796 69.1165 48.6276 69.1165ZM45.6316 63.0125V62.2565H49.9016V63.0125H45.6316ZM54.3253 69.1165C53.7233 69.1165 53.1866 68.9835 52.7153 68.7175C52.2486 68.4515 51.88 68.0572 51.6093 67.5345C51.3386 67.0118 51.2033 66.3678 51.2033 65.6025C51.2033 64.8325 51.3386 64.1885 51.6093 63.6705C51.88 63.1478 52.2486 62.7535 52.7153 62.4875C53.1866 62.2215 53.7233 62.0885 54.3253 62.0885C54.9226 62.0885 55.4546 62.2215 55.9213 62.4875C56.3926 62.7535 56.7613 63.1478 57.0273 63.6705C57.298 64.1885 57.4333 64.8325 57.4333 65.6025C57.4333 66.3678 57.298 67.0118 57.0273 67.5345C56.7613 68.0572 56.3926 68.4515 55.9213 68.7175C55.4546 68.9835 54.9226 69.1165 54.3253 69.1165ZM54.2973 68.1645C54.7313 68.1645 55.1 68.0618 55.4033 67.8565C55.7066 67.6465 55.9353 67.3502 56.0893 66.9675C56.248 66.5848 56.3273 66.1298 56.3273 65.6025C56.3273 64.8045 56.1616 64.1768 55.8303 63.7195C55.499 63.2575 55.0066 63.0265 54.3533 63.0265C53.9146 63.0265 53.5436 63.1315 53.2403 63.3415C52.9416 63.5468 52.713 63.8432 52.5543 64.2305C52.4003 64.6132 52.3233 65.0705 52.3233 65.6025C52.3233 66.3912 52.489 67.0165 52.8203 67.4785C53.1563 67.9358 53.6486 68.1645 54.2973 68.1645ZM69.0375 68.9485V65.0145C69.0375 64.3752 68.8835 63.8898 68.5755 63.5585C68.2722 63.2225 67.8615 63.0545 67.3435 63.0545C66.7369 63.0545 66.2725 63.2902 65.9505 63.7615C65.6285 64.2282 65.4675 64.8745 65.4675 65.7005H64.9635C64.9635 65.0985 65.0219 64.5712 65.1385 64.1185C65.2599 63.6658 65.4349 63.2902 65.6635 62.9915C65.8922 62.6882 66.1699 62.4618 66.4965 62.3125C66.8232 62.1632 67.1942 62.0885 67.6095 62.0885C68.1369 62.0885 68.5872 62.2075 68.9605 62.4455C69.3385 62.6788 69.6279 63.0148 69.8285 63.4535C70.0292 63.8922 70.1295 64.4125 70.1295 65.0145V68.9485H69.0375ZM59.6295 68.9485V62.2565H60.5675L60.6935 63.6005C60.9035 63.1152 61.1975 62.7418 61.5755 62.4805C61.9582 62.2192 62.4155 62.0885 62.9475 62.0885C63.4749 62.0885 63.9252 62.2075 64.2985 62.4455C64.6765 62.6788 64.9659 63.0148 65.1665 63.4535C65.3672 63.8922 65.4675 64.4125 65.4675 65.0145V68.9485H64.3895V65.0145C64.3895 64.3752 64.2355 63.8898 63.9275 63.5585C63.6242 63.2225 63.2089 63.0545 62.6815 63.0545C62.2802 63.0545 61.9325 63.1642 61.6385 63.3835C61.3445 63.6028 61.1182 63.9178 60.9595 64.3285C60.8009 64.7345 60.7215 65.2198 60.7215 65.7845V68.9485H59.6295ZM76.9412 68.9485L76.8012 67.4785V64.6085C76.8012 64.0065 76.6729 63.5748 76.4162 63.3135C76.1595 63.0475 75.7745 62.9145 75.2612 62.9145C74.9719 62.9145 74.7082 62.9565 74.4702 63.0405C74.2369 63.1245 74.0502 63.2552 73.9102 63.4325C73.7749 63.6052 73.7072 63.8292 73.7072 64.1045H72.4892C72.4892 63.6192 72.6082 63.2295 72.8462 62.9355C73.0842 62.6368 73.4109 62.4222 73.8262 62.2915C74.2462 62.1562 74.7245 62.0885 75.2612 62.0885C75.7745 62.0885 76.2295 62.1748 76.6262 62.3475C77.0229 62.5202 77.3332 62.7955 77.5572 63.1735C77.7812 63.5468 77.8932 64.0345 77.8932 64.6365V68.9485H76.9412ZM74.6592 69.1165C74.1085 69.1165 73.6535 69.0185 73.2942 68.8225C72.9349 68.6265 72.6665 68.3722 72.4892 68.0595C72.3119 67.7468 72.2232 67.4178 72.2232 67.0725C72.2232 66.6198 72.3352 66.2512 72.5592 65.9665C72.7879 65.6818 73.0982 65.4742 73.4902 65.3435C73.8822 65.2082 74.3232 65.1405 74.8132 65.1405C75.1632 65.1405 75.5132 65.1755 75.8632 65.2455C76.2179 65.3155 76.5632 65.4112 76.8992 65.5325V66.2185C76.6192 66.1065 76.3019 66.0178 75.9472 65.9525C75.5972 65.8872 75.2752 65.8545 74.9812 65.8545C74.5332 65.8545 74.1552 65.9478 73.8472 66.1345C73.5392 66.3165 73.3852 66.6292 73.3852 67.0725C73.3852 67.3992 73.5019 67.6792 73.7352 67.9125C73.9732 68.1458 74.3512 68.2625 74.8692 68.2625C75.2332 68.2625 75.5599 68.1785 75.8492 68.0105C76.1432 67.8378 76.3742 67.6232 76.5422 67.3665C76.7149 67.1098 76.8012 66.8532 76.8012 66.5965H77.0672C77.0672 67.0445 76.9692 67.4598 76.7732 67.8425C76.5819 68.2252 76.3065 68.5332 75.9472 68.7665C75.5879 68.9998 75.1585 69.1165 74.6592 69.1165ZM82.6361 69.1165C82.2721 69.1165 81.9455 69.0465 81.6561 68.9065C81.3668 68.7665 81.1381 68.5565 80.9701 68.2765C80.8021 67.9965 80.7181 67.6465 80.7181 67.2265V60.3945H81.7961V67.1985C81.7961 67.8892 82.1181 68.2345 82.7621 68.2345C82.9535 68.2345 83.1378 68.2135 83.3151 68.1715C83.4971 68.1295 83.7001 68.0665 83.9241 67.9825L84.0781 68.7665C83.8401 68.8692 83.6021 68.9532 83.3641 69.0185C83.1308 69.0838 82.8881 69.1165 82.6361 69.1165ZM79.6401 63.0125V62.2565H83.9101V63.0125H79.6401ZM88.2358 69.1165C87.6571 69.1165 87.1391 68.9695 86.6818 68.6755C86.2291 68.3768 85.8698 67.9638 85.6038 67.4365C85.3425 66.9092 85.2118 66.3025 85.2118 65.6165C85.2118 64.8838 85.3425 64.2538 85.6038 63.7265C85.8651 63.1992 86.2221 62.7955 86.6748 62.5155C87.1321 62.2308 87.6525 62.0885 88.2358 62.0885C88.7445 62.0885 89.1785 62.1912 89.5378 62.3965C89.8971 62.6018 90.1865 62.8795 90.4058 63.2295C90.6251 63.5795 90.7768 63.9762 90.8608 64.4195C90.9495 64.8582 90.9751 65.3132 90.9378 65.7845H86.0938V65.1125H90.2168L89.8948 65.3225C89.9088 65.0472 89.8925 64.7718 89.8458 64.4965C89.8038 64.2212 89.7221 63.9692 89.6008 63.7405C89.4795 63.5072 89.3091 63.3205 89.0898 63.1805C88.8705 63.0405 88.5905 62.9705 88.2498 62.9705C87.8205 62.9705 87.4611 63.0802 87.1718 63.2995C86.8825 63.5188 86.6655 63.8082 86.5208 64.1675C86.3761 64.5222 86.3038 64.9072 86.3038 65.3225V65.7705C86.3038 66.2372 86.3738 66.6548 86.5138 67.0235C86.6585 67.3922 86.8731 67.6838 87.1578 67.8985C87.4425 68.1132 87.8018 68.2205 88.2358 68.2205C88.6698 68.2205 89.0268 68.1155 89.3068 67.9055C89.5868 67.6955 89.7571 67.3852 89.8178 66.9745H90.9518C90.8818 67.4178 90.7231 67.8005 90.4758 68.1225C90.2285 68.4398 89.9135 68.6848 89.5308 68.8575C89.1481 69.0302 88.7165 69.1165 88.2358 69.1165ZM95.4595 62.2565H96.6775L98.8615 67.9965H98.6095L100.303 62.2565H101.423L98.9035 70.2925C98.6935 70.9645 98.4135 71.4825 98.0635 71.8465C97.7135 72.2105 97.2655 72.3925 96.7195 72.3925C96.4255 72.3925 96.1455 72.3505 95.8795 72.2665C95.6181 72.1825 95.3475 72.0612 95.0675 71.9025V70.8945C95.3148 71.0905 95.5528 71.2305 95.7815 71.3145C96.0148 71.3985 96.2575 71.4405 96.5095 71.4405C96.7895 71.4405 97.0228 71.3518 97.2095 71.1745C97.4008 70.9972 97.5595 70.7685 97.6855 70.4885C97.8115 70.2132 97.9188 69.9238 98.0075 69.6205L98.2035 68.9485L95.4595 62.2565ZM105.579 69.1165C104.977 69.1165 104.44 68.9835 103.969 68.7175C103.502 68.4515 103.134 68.0572 102.863 67.5345C102.592 67.0118 102.457 66.3678 102.457 65.6025C102.457 64.8325 102.592 64.1885 102.863 63.6705C103.134 63.1478 103.502 62.7535 103.969 62.4875C104.44 62.2215 104.977 62.0885 105.579 62.0885C106.176 62.0885 106.708 62.2215 107.175 62.4875C107.646 62.7535 108.015 63.1478 108.281 63.6705C108.552 64.1885 108.687 64.8325 108.687 65.6025C108.687 66.3678 108.552 67.0118 108.281 67.5345C108.015 68.0572 107.646 68.4515 107.175 68.7175C106.708 68.9835 106.176 69.1165 105.579 69.1165ZM105.551 68.1645C105.985 68.1645 106.354 68.0618 106.657 67.8565C106.96 67.6465 107.189 67.3502 107.343 66.9675C107.502 66.5848 107.581 66.1298 107.581 65.6025C107.581 64.8045 107.415 64.1768 107.084 63.7195C106.753 63.2575 106.26 63.0265 105.607 63.0265C105.168 63.0265 104.797 63.1315 104.494 63.3415C104.195 63.5468 103.967 63.8432 103.808 64.2305C103.654 64.6132 103.577 65.0705 103.577 65.6025C103.577 66.3912 103.743 67.0165 104.074 67.4785C104.41 67.9358 104.902 68.1645 105.551 68.1645ZM115.433 62.2425H116.525V68.9485H115.433V62.2425ZM110.687 62.2425H111.779V66.4145C111.779 66.9745 111.915 67.3992 112.185 67.6885C112.461 67.9778 112.853 68.1225 113.361 68.1225C113.781 68.1225 114.145 68.0105 114.453 67.7865C114.766 67.5625 115.006 67.2545 115.174 66.8625C115.347 66.4658 115.433 66.0132 115.433 65.5045H115.839C115.839 66.2558 115.73 66.8975 115.51 67.4295C115.296 67.9615 114.99 68.3698 114.593 68.6545C114.201 68.9345 113.739 69.0745 113.207 69.0745C112.703 69.0745 112.262 68.9812 111.884 68.7945C111.506 68.6078 111.212 68.3255 111.002 67.9475C110.792 67.5648 110.687 67.0818 110.687 66.4985V62.2425ZM119.43 68.9485V62.2425H120.522V68.9485H119.43ZM120.186 65.9245C120.186 65.0752 120.267 64.3705 120.431 63.8105C120.594 63.2458 120.832 62.8258 121.145 62.5505C121.462 62.2705 121.847 62.1305 122.3 62.1305C122.449 62.1305 122.584 62.1422 122.706 62.1655C122.832 62.1842 122.958 62.2145 123.084 62.2565L123.014 63.3345C122.883 63.2925 122.741 63.2575 122.587 63.2295C122.433 63.1968 122.295 63.1805 122.174 63.1805C121.777 63.1805 121.457 63.2948 121.215 63.5235C120.972 63.7475 120.795 64.0648 120.683 64.4755C120.575 64.8862 120.522 65.3692 120.522 65.9245H120.186ZM130.009 69.1165C129.645 69.1165 129.318 69.0465 129.029 68.9065C128.739 68.7665 128.511 68.5565 128.343 68.2765C128.175 67.9965 128.091 67.6465 128.091 67.2265V60.3945H129.169V67.1985C129.169 67.8892 129.491 68.2345 130.135 68.2345C130.326 68.2345 130.51 68.2135 130.688 68.1715C130.87 68.1295 131.073 68.0665 131.297 67.9825L131.451 68.7665C131.213 68.8692 130.975 68.9532 130.737 69.0185C130.503 69.0838 130.261 69.1165 130.009 69.1165ZM127.013 63.0125V62.2565H131.283V63.0125H127.013ZM135.706 69.1165C135.104 69.1165 134.568 68.9835 134.096 68.7175C133.63 68.4515 133.261 68.0572 132.99 67.5345C132.72 67.0118 132.584 66.3678 132.584 65.6025C132.584 64.8325 132.72 64.1885 132.99 63.6705C133.261 63.1478 133.63 62.7535 134.096 62.4875C134.568 62.2215 135.104 62.0885 135.706 62.0885C136.304 62.0885 136.836 62.2215 137.302 62.4875C137.774 62.7535 138.142 63.1478 138.408 63.6705C138.679 64.1885 138.814 64.8325 138.814 65.6025C138.814 66.3678 138.679 67.0118 138.408 67.5345C138.142 68.0572 137.774 68.4515 137.302 68.7175C136.836 68.9835 136.304 69.1165 135.706 69.1165ZM135.678 68.1645C136.112 68.1645 136.481 68.0618 136.784 67.8565C137.088 67.6465 137.316 67.3502 137.47 66.9675C137.629 66.5848 137.708 66.1298 137.708 65.6025C137.708 64.8045 137.543 64.1768 137.211 63.7195C136.88 63.2575 136.388 63.0265 135.734 63.0265C135.296 63.0265 134.925 63.1315 134.621 63.3415C134.323 63.5468 134.094 63.8432 133.935 64.2305C133.781 64.6132 133.704 65.0705 133.704 65.6025C133.704 66.3912 133.87 67.0165 134.201 67.4785C134.537 67.9358 135.03 68.1645 135.678 68.1645ZM144.049 69.1165C143.559 69.1165 143.132 69.0045 142.768 68.7805C142.408 68.5565 142.131 68.2298 141.935 67.8005C141.739 67.3665 141.641 66.8392 141.641 66.2185H142.103C142.103 66.6338 142.189 66.9838 142.362 67.2685C142.534 67.5532 142.758 67.7702 143.034 67.9195C143.314 68.0642 143.61 68.1365 143.923 68.1365C144.259 68.1365 144.581 68.0408 144.889 67.8495C145.197 67.6535 145.449 67.3665 145.645 66.9885C145.841 66.6105 145.939 66.1438 145.939 65.5885C145.939 65.0565 145.848 64.6015 145.666 64.2235C145.488 63.8455 145.248 63.5562 144.945 63.3555C144.641 63.1548 144.305 63.0545 143.937 63.0545C143.619 63.0545 143.321 63.1315 143.041 63.2855C142.761 63.4395 142.534 63.6658 142.362 63.9645C142.189 64.2585 142.103 64.6225 142.103 65.0565H141.641C141.641 64.4078 141.748 63.8642 141.963 63.4255C142.177 62.9822 142.469 62.6485 142.838 62.4245C143.206 62.2005 143.619 62.0885 144.077 62.0885C144.599 62.0885 145.087 62.2285 145.54 62.5085C145.992 62.7885 146.359 63.1898 146.639 63.7125C146.919 64.2352 147.059 64.8605 147.059 65.5885C147.059 66.3258 146.916 66.9582 146.632 67.4855C146.352 68.0128 145.983 68.4165 145.526 68.6965C145.068 68.9765 144.576 69.1165 144.049 69.1165ZM141.011 72.2385V62.2565H141.921L142.103 63.8245V72.2385H141.011ZM148.388 65.3505V64.3985H152.196V65.3505H148.388ZM158.757 62.2425H159.849V68.9485H158.757V62.2425ZM154.011 62.2425H155.103V66.4145C155.103 66.9745 155.239 67.3992 155.509 67.6885C155.785 67.9778 156.177 68.1225 156.685 68.1225C157.105 68.1225 157.469 68.0105 157.777 67.7865C158.09 67.5625 158.33 67.2545 158.498 66.8625C158.671 66.4658 158.757 66.0132 158.757 65.5045H159.163C159.163 66.2558 159.054 66.8975 158.834 67.4295C158.62 67.9615 158.314 68.3698 157.917 68.6545C157.525 68.9345 157.063 69.0745 156.531 69.0745C156.027 69.0745 155.586 68.9812 155.208 68.7945C154.83 68.6078 154.536 68.3255 154.326 67.9475C154.116 67.5648 154.011 67.0818 154.011 66.4985V62.2425ZM165.792 69.1165C165.302 69.1165 164.875 69.0045 164.511 68.7805C164.151 68.5565 163.874 68.2298 163.678 67.8005C163.482 67.3665 163.384 66.8392 163.384 66.2185H163.846C163.846 66.6338 163.932 66.9838 164.105 67.2685C164.277 67.5532 164.501 67.7702 164.777 67.9195C165.057 68.0642 165.353 68.1365 165.666 68.1365C166.002 68.1365 166.324 68.0408 166.632 67.8495C166.94 67.6535 167.192 67.3665 167.388 66.9885C167.584 66.6105 167.682 66.1438 167.682 65.5885C167.682 65.0565 167.591 64.6015 167.409 64.2235C167.231 63.8455 166.991 63.5562 166.688 63.3555C166.384 63.1548 166.048 63.0545 165.68 63.0545C165.362 63.0545 165.064 63.1315 164.784 63.2855C164.504 63.4395 164.277 63.6658 164.105 63.9645C163.932 64.2585 163.846 64.6225 163.846 65.0565H163.384C163.384 64.4078 163.491 63.8642 163.706 63.4255C163.92 62.9822 164.212 62.6485 164.581 62.4245C164.949 62.2005 165.362 62.0885 165.82 62.0885C166.342 62.0885 166.83 62.2285 167.283 62.5085C167.735 62.7885 168.102 63.1898 168.382 63.7125C168.662 64.2352 168.802 64.8605 168.802 65.5885C168.802 66.3258 168.659 66.9582 168.375 67.4855C168.095 68.0128 167.726 68.4165 167.269 68.6965C166.811 68.9765 166.319 69.1165 165.792 69.1165ZM162.754 72.2385V62.2565H163.664L163.846 63.8245V72.2385H162.754ZM173.421 69.1165C172.773 69.1165 172.231 69.0255 171.797 68.8435C171.363 68.6568 171.034 68.4025 170.81 68.0805C170.586 67.7538 170.467 67.3805 170.453 66.9605H171.503C171.527 67.3852 171.697 67.7048 172.014 67.9195C172.336 68.1295 172.773 68.2345 173.323 68.2345C173.613 68.2345 173.879 68.1878 174.121 68.0945C174.364 68.0012 174.558 67.8728 174.702 67.7095C174.847 67.5462 174.919 67.3618 174.919 67.1565C174.919 66.8952 174.824 66.6898 174.632 66.5405C174.441 66.3912 174.135 66.2605 173.715 66.1485L172.413 65.7285C171.849 65.5512 171.415 65.3085 171.111 65.0005C170.813 64.6878 170.663 64.3145 170.663 63.8805C170.663 63.3392 170.901 62.9052 171.377 62.5785C171.853 62.2518 172.479 62.0885 173.253 62.0885C174.075 62.0885 174.712 62.2565 175.164 62.5925C175.617 62.9285 175.853 63.3485 175.871 63.8525H174.793C174.751 63.5585 174.602 63.3368 174.345 63.1875C174.089 63.0335 173.725 62.9565 173.253 62.9565C172.801 62.9565 172.446 63.0592 172.189 63.2645C171.937 63.4652 171.811 63.6892 171.811 63.9365C171.811 64.3985 172.208 64.7392 173.001 64.9585L174.331 65.4065C174.905 65.5792 175.344 65.8055 175.647 66.0855C175.955 66.3655 176.109 66.7225 176.109 67.1565C176.109 67.4925 176 67.8098 175.78 68.1085C175.561 68.4072 175.251 68.6498 174.849 68.8365C174.448 69.0232 173.972 69.1165 173.421 69.1165Z" fill="black"/>
<path d="M8 89.1149L10.5 91.6149L18.8333 83.2816M18 89.9482V95.7816C18 96.2236 17.8244 96.6475 17.5118 96.9601C17.1993 97.2726 16.7754 97.4482 16.3333 97.4482H4.66667C4.22464 97.4482 3.80072 97.2726 3.48816 96.9601C3.17559 96.6475 3 96.2236 3 95.7816V84.1149C3 83.6729 3.17559 83.249 3.48816 82.9364C3.80072 82.6238 4.22464 82.4482 4.66667 82.4482H13.8333" stroke="#2FBF36" stroke-width="2" stroke-linecap="round" stroke-linejoin="round"/>
<path d="M29.886 94.9482V86.1562H32.714C33.68 86.1562 34.4173 86.4012 34.926 86.8912C35.4393 87.3766 35.696 88.0369 35.696 88.8722C35.696 89.6982 35.4393 90.3539 34.926 90.8392C34.4173 91.3199 33.68 91.5602 32.714 91.5602H30.992V94.9482H29.886ZM30.992 90.6082H32.714C33.3253 90.6082 33.7873 90.4519 34.1 90.1392C34.4173 89.8266 34.576 89.4042 34.576 88.8722C34.576 88.3309 34.4173 87.8992 34.1 87.5772C33.7873 87.2552 33.3253 87.0942 32.714 87.0942H30.992V90.6082ZM41.88 94.9482L41.74 93.4782V90.6082C41.74 90.0062 41.6116 89.5746 41.355 89.3132C41.0983 89.0472 40.7133 88.9142 40.2 88.9142C39.9106 88.9142 39.647 88.9562 39.409 89.0402C39.1756 89.1242 38.989 89.2549 38.849 89.4322C38.7136 89.6049 38.646 89.8289 38.646 90.1042H37.428C37.428 89.6189 37.547 89.2292 37.785 88.9352C38.023 88.6366 38.3496 88.4219 38.765 88.2912C39.185 88.1559 39.6633 88.0882 40.2 88.0882C40.7133 88.0882 41.1683 88.1746 41.565 88.3472C41.9616 88.5199 42.272 88.7952 42.496 89.1732C42.72 89.5466 42.832 90.0342 42.832 90.6362V94.9482H41.88ZM39.598 95.1162C39.0473 95.1162 38.5923 95.0182 38.233 94.8222C37.8736 94.6262 37.6053 94.3719 37.428 94.0592C37.2506 93.7466 37.162 93.4176 37.162 93.0722C37.162 92.6196 37.274 92.2509 37.498 91.9662C37.7266 91.6816 38.037 91.4739 38.429 91.3432C38.821 91.2079 39.262 91.1402 39.752 91.1402C40.102 91.1402 40.452 91.1752 40.802 91.2452C41.1566 91.3152 41.502 91.4109 41.838 91.5322V92.2182C41.558 92.1062 41.2406 92.0176 40.886 91.9522C40.536 91.8869 40.214 91.8542 39.92 91.8542C39.472 91.8542 39.094 91.9476 38.786 92.1342C38.478 92.3162 38.324 92.6289 38.324 93.0722C38.324 93.3989 38.4406 93.6789 38.674 93.9122C38.912 94.1456 39.29 94.2622 39.808 94.2622C40.172 94.2622 40.4986 94.1782 40.788 94.0102C41.082 93.8376 41.313 93.6229 41.481 93.3662C41.6536 93.1096 41.74 92.8529 41.74 92.5962H42.006C42.006 93.0442 41.908 93.4596 41.712 93.8422C41.5206 94.2249 41.2453 94.5329 40.886 94.7662C40.5266 94.9996 40.0973 95.1162 39.598 95.1162ZM47.9249 95.1162C47.2762 95.1162 46.7349 95.0252 46.3009 94.8432C45.8669 94.6566 45.5379 94.4022 45.3139 94.0802C45.0899 93.7536 44.9709 93.3802 44.9569 92.9602H46.0069C46.0302 93.3849 46.2006 93.7046 46.5179 93.9192C46.8399 94.1292 47.2762 94.2342 47.8269 94.2342C48.1162 94.2342 48.3822 94.1876 48.6249 94.0942C48.8676 94.0009 49.0612 93.8726 49.2059 93.7092C49.3506 93.5459 49.4229 93.3616 49.4229 93.1562C49.4229 92.8949 49.3272 92.6896 49.1359 92.5402C48.9446 92.3909 48.6389 92.2602 48.2189 92.1482L46.9169 91.7282C46.3522 91.5509 45.9182 91.3082 45.6149 91.0002C45.3162 90.6876 45.1669 90.3142 45.1669 89.8802C45.1669 89.3389 45.4049 88.9049 45.8809 88.5782C46.3569 88.2516 46.9822 88.0882 47.7569 88.0882C48.5782 88.0882 49.2152 88.2562 49.6679 88.5922C50.1206 88.9282 50.3562 89.3482 50.3749 89.8522H49.2969C49.2549 89.5582 49.1056 89.3366 48.8489 89.1872C48.5922 89.0332 48.2282 88.9562 47.7569 88.9562C47.3042 88.9562 46.9496 89.0589 46.6929 89.2642C46.4409 89.4649 46.3149 89.6889 46.3149 89.9362C46.3149 90.3982 46.7116 90.7389 47.5049 90.9582L48.8349 91.4062C49.4089 91.5789 49.8476 91.8052 50.1509 92.0852C50.4589 92.3652 50.6129 92.7222 50.6129 93.1562C50.6129 93.4922 50.5032 93.8096 50.2839 94.1082C50.0646 94.4069 49.7542 94.6496 49.3529 94.8362C48.9516 95.0229 48.4756 95.1162 47.9249 95.1162ZM55.3504 95.1162C54.7017 95.1162 54.1604 95.0252 53.7264 94.8432C53.2924 94.6566 52.9634 94.4022 52.7394 94.0802C52.5154 93.7536 52.3964 93.3802 52.3824 92.9602H53.4324C53.4557 93.3849 53.626 93.7046 53.9434 93.9192C54.2654 94.1292 54.7017 94.2342 55.2524 94.2342C55.5417 94.2342 55.8077 94.1876 56.0504 94.0942C56.293 94.0009 56.4867 93.8726 56.6314 93.7092C56.776 93.5459 56.8484 93.3616 56.8484 93.1562C56.8484 92.8949 56.7527 92.6896 56.5614 92.5402C56.37 92.3909 56.0644 92.2602 55.6444 92.1482L54.3424 91.7282C53.7777 91.5509 53.3437 91.3082 53.0404 91.0002C52.7417 90.6876 52.5924 90.3142 52.5924 89.8802C52.5924 89.3389 52.8304 88.9049 53.3064 88.5782C53.7824 88.2516 54.4077 88.0882 55.1824 88.0882C56.0037 88.0882 56.6407 88.2562 57.0934 88.5922C57.546 88.9282 57.7817 89.3482 57.8004 89.8522H56.7224C56.6804 89.5582 56.531 89.3366 56.2744 89.1872C56.0177 89.0332 55.6537 88.9562 55.1824 88.9562C54.7297 88.9562 54.375 89.0589 54.1184 89.2642C53.8664 89.4649 53.7404 89.6889 53.7404 89.9362C53.7404 90.3982 54.137 90.7389 54.9304 90.9582L56.2604 91.4062C56.8344 91.5789 57.273 91.8052 57.5764 92.0852C57.8844 92.3652 58.0384 92.7222 58.0384 93.1562C58.0384 93.4922 57.9287 93.8096 57.7094 94.1082C57.49 94.4069 57.1797 94.6496 56.7784 94.8362C56.377 95.0229 55.901 95.1162 55.3504 95.1162ZM64.1241 94.9482V87.2202C64.1241 86.7769 64.2081 86.4152 64.3761 86.1352C64.5488 85.8506 64.7774 85.6406 65.0621 85.5052C65.3514 85.3699 65.6734 85.3022 66.0281 85.3022C66.2194 85.3022 66.4131 85.3162 66.6091 85.3442C66.8098 85.3722 67.0081 85.4142 67.2041 85.4702L66.9941 86.3382C66.8541 86.2822 66.7141 86.2402 66.5741 86.2122C66.4388 86.1842 66.3081 86.1702 66.1821 86.1702C66.0328 86.1702 65.8834 86.1982 65.7341 86.2542C65.5848 86.3102 65.4611 86.4152 65.3631 86.5692C65.2651 86.7232 65.2161 86.9449 65.2161 87.2342V94.9482H64.1241ZM63.0321 89.0122V88.2562H66.6021V89.0122H63.0321ZM70.9529 95.1162C70.3743 95.1162 69.8563 94.9692 69.3989 94.6752C68.9463 94.3766 68.5869 93.9636 68.3209 93.4362C68.0596 92.9089 67.9289 92.3022 67.9289 91.6162C67.9289 90.8836 68.0596 90.2536 68.3209 89.7262C68.5823 89.1989 68.9393 88.7952 69.3919 88.5152C69.8493 88.2306 70.3696 88.0882 70.9529 88.0882C71.4616 88.0882 71.8956 88.1909 72.2549 88.3962C72.6143 88.6016 72.9036 88.8792 73.1229 89.2292C73.3423 89.5792 73.4939 89.9759 73.5779 90.4192C73.6666 90.8579 73.6923 91.3129 73.6549 91.7842H68.8109V91.1122H72.9339L72.6119 91.3222C72.6259 91.0469 72.6096 90.7716 72.5629 90.4962C72.5209 90.2209 72.4393 89.9689 72.3179 89.7402C72.1966 89.5069 72.0263 89.3202 71.8069 89.1802C71.5876 89.0402 71.3076 88.9702 70.9669 88.9702C70.5376 88.9702 70.1783 89.0799 69.8889 89.2992C69.5996 89.5186 69.3826 89.8079 69.2379 90.1672C69.0933 90.5219 69.0209 90.9069 69.0209 91.3222V91.7702C69.0209 92.2369 69.0909 92.6546 69.2309 93.0232C69.3756 93.3919 69.5903 93.6836 69.8749 93.8982C70.1596 94.1129 70.5189 94.2202 70.9529 94.2202C71.3869 94.2202 71.7439 94.1152 72.0239 93.9052C72.3039 93.6952 72.4743 93.3849 72.5349 92.9742H73.6689C73.5989 93.4176 73.4403 93.8002 73.1929 94.1222C72.9456 94.4396 72.6306 94.6846 72.2479 94.8572C71.8653 95.0299 71.4336 95.1162 70.9529 95.1162ZM78.2143 95.1162C77.6357 95.1162 77.1177 94.9692 76.6603 94.6752C76.2077 94.3766 75.8483 93.9636 75.5823 93.4362C75.321 92.9089 75.1903 92.3022 75.1903 91.6162C75.1903 90.8836 75.321 90.2536 75.5823 89.7262C75.8437 89.1989 76.2007 88.7952 76.6533 88.5152C77.1107 88.2306 77.631 88.0882 78.2143 88.0882C78.723 88.0882 79.157 88.1909 79.5163 88.3962C79.8757 88.6016 80.165 88.8792 80.3843 89.2292C80.6037 89.5792 80.7553 89.9759 80.8393 90.4192C80.928 90.8579 80.9537 91.3129 80.9163 91.7842H76.0723V91.1122H80.1953L79.8733 91.3222C79.8873 91.0469 79.871 90.7716 79.8243 90.4962C79.7823 90.2209 79.7007 89.9689 79.5793 89.7402C79.458 89.5069 79.2877 89.3202 79.0683 89.1802C78.849 89.0402 78.569 88.9702 78.2283 88.9702C77.799 88.9702 77.4397 89.0799 77.1503 89.2992C76.861 89.5186 76.644 89.8079 76.4993 90.1672C76.3547 90.5219 76.2823 90.9069 76.2823 91.3222V91.7702C76.2823 92.2369 76.3523 92.6546 76.4923 93.0232C76.637 93.3919 76.8517 93.6836 77.1363 93.8982C77.421 94.1129 77.7803 94.2202 78.2143 94.2202C78.6483 94.2202 79.0053 94.1152 79.2853 93.9052C79.5653 93.6952 79.7357 93.3849 79.7963 92.9742H80.9303C80.8603 93.4176 80.7017 93.8002 80.4543 94.1222C80.207 94.4396 79.892 94.6846 79.5093 94.8572C79.1267 95.0299 78.695 95.1162 78.2143 95.1162ZM85.5597 95.1162C84.9111 95.1162 84.3697 95.0252 83.9357 94.8432C83.5017 94.6566 83.1727 94.4022 82.9487 94.0802C82.7247 93.7536 82.6057 93.3802 82.5917 92.9602H83.6417C83.6651 93.3849 83.8354 93.7046 84.1527 93.9192C84.4747 94.1292 84.9111 94.2342 85.4617 94.2342C85.7511 94.2342 86.0171 94.1876 86.2597 94.0942C86.5024 94.0009 86.6961 93.8726 86.8407 93.7092C86.9854 93.5459 87.0577 93.3616 87.0577 93.1562C87.0577 92.8949 86.9621 92.6896 86.7707 92.5402C86.5794 92.3909 86.2737 92.2602 85.8537 92.1482L84.5517 91.7282C83.9871 91.5509 83.5531 91.3082 83.2497 91.0002C82.9511 90.6876 82.8017 90.3142 82.8017 89.8802C82.8017 89.3389 83.0397 88.9049 83.5157 88.5782C83.9917 88.2516 84.6171 88.0882 85.3917 88.0882C86.2131 88.0882 86.8501 88.2562 87.3027 88.5922C87.7554 88.9282 87.9911 89.3482 88.0097 89.8522H86.9317C86.8897 89.5582 86.7404 89.3366 86.4837 89.1872C86.2271 89.0332 85.8631 88.9562 85.3917 88.9562C84.9391 88.9562 84.5844 89.0589 84.3277 89.2642C84.0757 89.4649 83.9497 89.6889 83.9497 89.9362C83.9497 90.3982 84.3464 90.7389 85.1397 90.9582L86.4697 91.4062C87.0437 91.5789 87.4824 91.8052 87.7857 92.0852C88.0937 92.3652 88.2477 92.7222 88.2477 93.1562C88.2477 93.4922 88.1381 93.8096 87.9187 94.1082C87.6994 94.4069 87.3891 94.6496 86.9877 94.8362C86.5864 95.0229 86.1104 95.1162 85.5597 95.1162ZM96.3915 95.1162C95.7895 95.1162 95.2528 94.9832 94.7815 94.7172C94.3148 94.4512 93.9461 94.0569 93.6755 93.5342C93.4048 93.0116 93.2695 92.3676 93.2695 91.6022C93.2695 90.8322 93.4048 90.1882 93.6755 89.6702C93.9461 89.1476 94.3148 88.7532 94.7815 88.4872C95.2528 88.2212 95.7895 88.0882 96.3915 88.0882C96.9888 88.0882 97.5208 88.2212 97.9875 88.4872C98.4588 88.7532 98.8275 89.1476 99.0935 89.6702C99.3641 90.1882 99.4995 90.8322 99.4995 91.6022C99.4995 92.3676 99.3641 93.0116 99.0935 93.5342C98.8275 94.0569 98.4588 94.4512 97.9875 94.7172C97.5208 94.9832 96.9888 95.1162 96.3915 95.1162ZM96.3635 94.1642C96.7975 94.1642 97.1661 94.0616 97.4695 93.8562C97.7728 93.6462 98.0015 93.3499 98.1555 92.9672C98.3141 92.5846 98.3935 92.1296 98.3935 91.6022C98.3935 90.8042 98.2278 90.1766 97.8965 89.7192C97.5651 89.2572 97.0728 89.0262 96.4195 89.0262C95.9808 89.0262 95.6098 89.1312 95.3065 89.3412C95.0078 89.5466 94.7791 89.8429 94.6205 90.2302C94.4665 90.6129 94.3895 91.0702 94.3895 91.6022C94.3895 92.3909 94.5551 93.0162 94.8865 93.4782C95.2225 93.9356 95.7148 94.1642 96.3635 94.1642ZM106.456 94.9482V91.0142C106.456 90.3749 106.302 89.8896 105.994 89.5582C105.69 89.2222 105.275 89.0542 104.748 89.0542C104.346 89.0542 103.999 89.1639 103.705 89.3832C103.411 89.6026 103.184 89.9176 103.026 90.3282C102.867 90.7342 102.788 91.2196 102.788 91.7842H102.368C102.368 91.0049 102.47 90.3399 102.676 89.7892C102.881 89.2386 103.18 88.8186 103.572 88.5292C103.968 88.2352 104.449 88.0882 105.014 88.0882C105.541 88.0882 105.991 88.2072 106.365 88.4452C106.743 88.6786 107.032 89.0146 107.233 89.4532C107.433 89.8919 107.534 90.4122 107.534 91.0142V94.9482H106.456ZM101.696 94.9482V88.2562H102.634L102.788 89.7962V94.9482H101.696ZM115.665 95.1162C115.301 95.1162 114.975 95.0462 114.685 94.9062C114.396 94.7662 114.167 94.5562 113.999 94.2762C113.831 93.9962 113.747 93.6462 113.747 93.2262V86.3942H114.825V93.1982C114.825 93.8889 115.147 94.2342 115.791 94.2342C115.983 94.2342 116.167 94.2132 116.344 94.1712C116.526 94.1292 116.729 94.0662 116.953 93.9822L117.107 94.7662C116.869 94.8689 116.631 94.9529 116.393 95.0182C116.16 95.0836 115.917 95.1162 115.665 95.1162ZM112.669 89.0122V88.2562H116.939V89.0122H112.669ZM121.363 95.1162C120.761 95.1162 120.224 94.9832 119.753 94.7172C119.286 94.4512 118.918 94.0569 118.647 93.5342C118.376 93.0116 118.241 92.3676 118.241 91.6022C118.241 90.8322 118.376 90.1882 118.647 89.6702C118.918 89.1476 119.286 88.7532 119.753 88.4872C120.224 88.2212 120.761 88.0882 121.363 88.0882C121.96 88.0882 122.492 88.2212 122.959 88.4872C123.43 88.7532 123.799 89.1476 124.065 89.6702C124.336 90.1882 124.471 90.8322 124.471 91.6022C124.471 92.3676 124.336 93.0116 124.065 93.5342C123.799 94.0569 123.43 94.4512 122.959 94.7172C122.492 94.9832 121.96 95.1162 121.363 95.1162ZM121.335 94.1642C121.769 94.1642 122.138 94.0616 122.441 93.8562C122.744 93.6462 122.973 93.3499 123.127 92.9672C123.286 92.5846 123.365 92.1296 123.365 91.6022C123.365 90.8042 123.199 90.1766 122.868 89.7192C122.537 89.2572 122.044 89.0262 121.391 89.0262C120.952 89.0262 120.581 89.1312 120.278 89.3412C119.979 89.5466 119.751 89.8429 119.592 90.2302C119.438 90.6129 119.361 91.0702 119.361 91.6022C119.361 92.3909 119.527 93.0162 119.858 93.4782C120.194 93.9356 120.686 94.1642 121.335 94.1642ZM128.953 88.2562H130.171L132.355 93.9962H132.103L133.797 88.2562H134.917L132.397 96.2922C132.187 96.9642 131.907 97.4822 131.557 97.8462C131.207 98.2102 130.759 98.3922 130.213 98.3922C129.919 98.3922 129.639 98.3502 129.373 98.2662C129.112 98.1822 128.841 98.0609 128.561 97.9022V96.8942C128.809 97.0902 129.047 97.2302 129.275 97.3142C129.509 97.3982 129.751 97.4402 130.003 97.4402C130.283 97.4402 130.517 97.3516 130.703 97.1742C130.895 96.9969 131.053 96.7682 131.179 96.4882C131.305 96.2129 131.413 95.9236 131.501 95.6202L131.697 94.9482L128.953 88.2562ZM139.073 95.1162C138.471 95.1162 137.934 94.9832 137.463 94.7172C136.996 94.4512 136.628 94.0569 136.357 93.5342C136.086 93.0116 135.951 92.3676 135.951 91.6022C135.951 90.8322 136.086 90.1882 136.357 89.6702C136.628 89.1476 136.996 88.7532 137.463 88.4872C137.934 88.2212 138.471 88.0882 139.073 88.0882C139.67 88.0882 140.202 88.2212 140.669 88.4872C141.14 88.7532 141.509 89.1476 141.775 89.6702C142.046 90.1882 142.181 90.8322 142.181 91.6022C142.181 92.3676 142.046 93.0116 141.775 93.5342C141.509 94.0569 141.14 94.4512 140.669 94.7172C140.202 94.9832 139.67 95.1162 139.073 95.1162ZM139.045 94.1642C139.479 94.1642 139.848 94.0616 140.151 93.8562C140.454 93.6462 140.683 93.3499 140.837 92.9672C140.996 92.5846 141.075 92.1296 141.075 91.6022C141.075 90.8042 140.909 90.1766 140.578 89.7192C140.247 89.2572 139.754 89.0262 139.101 89.0262C138.662 89.0262 138.291 89.1312 137.988 89.3412C137.689 89.5466 137.461 89.8429 137.302 90.2302C137.148 90.6129 137.071 91.0702 137.071 91.6022C137.071 92.3909 137.237 93.0162 137.568 93.4782C137.904 93.9356 138.396 94.1642 139.045 94.1642ZM148.927 88.2422H150.019V94.9482H148.927V88.2422ZM144.181 88.2422H145.273V92.4142C145.273 92.9742 145.408 93.3989 145.679 93.6882C145.954 93.9776 146.346 94.1222 146.855 94.1222C147.275 94.1222 147.639 94.0102 147.947 93.7862C148.26 93.5622 148.5 93.2542 148.668 92.8622C148.841 92.4656 148.927 92.0129 148.927 91.5042H149.333C149.333 92.2556 149.223 92.8972 149.004 93.4292C148.789 93.9612 148.484 94.3696 148.087 94.6542C147.695 94.9342 147.233 95.0742 146.701 95.0742C146.197 95.0742 145.756 94.9809 145.378 94.7942C145 94.6076 144.706 94.3252 144.496 93.9472C144.286 93.5646 144.181 93.0816 144.181 92.4982V88.2422ZM152.924 94.9482V88.2422H154.016V94.9482H152.924ZM153.68 91.9242C153.68 91.0749 153.761 90.3702 153.925 89.8102C154.088 89.2456 154.326 88.8256 154.639 88.5502C154.956 88.2702 155.341 88.1302 155.794 88.1302C155.943 88.1302 156.078 88.1419 156.2 88.1652C156.326 88.1839 156.452 88.2142 156.578 88.2562L156.508 89.3342C156.377 89.2922 156.235 89.2572 156.081 89.2292C155.927 89.1966 155.789 89.1802 155.668 89.1802C155.271 89.1802 154.951 89.2946 154.709 89.5232C154.466 89.7472 154.289 90.0646 154.177 90.4752C154.069 90.8859 154.016 91.3689 154.016 91.9242H153.68ZM163.503 95.1162C163.139 95.1162 162.812 95.0462 162.523 94.9062C162.233 94.7662 162.005 94.5562 161.837 94.2762C161.669 93.9962 161.585 93.6462 161.585 93.2262V86.3942H162.663V93.1982C162.663 93.8889 162.985 94.2342 163.629 94.2342C163.82 94.2342 164.004 94.2132 164.182 94.1712C164.364 94.1292 164.567 94.0662 164.791 93.9822L164.945 94.7662C164.707 94.8689 164.469 94.9529 164.231 95.0182C163.997 95.0836 163.755 95.1162 163.503 95.1162ZM160.507 89.0122V88.2562H164.777V89.0122H160.507ZM167.394 86.6742C167.17 86.6742 166.993 86.6112 166.862 86.4852C166.732 86.3546 166.666 86.1842 166.666 85.9742C166.666 85.7689 166.732 85.6056 166.862 85.4842C166.993 85.3629 167.17 85.3022 167.394 85.3022C167.618 85.3022 167.796 85.3629 167.926 85.4842C168.057 85.6056 168.122 85.7689 168.122 85.9742C168.122 86.1842 168.057 86.3546 167.926 86.4852C167.796 86.6112 167.618 86.6742 167.394 86.6742ZM166.848 94.9482V88.2422H167.94V94.9482H166.848ZM173.37 95.1162C172.833 95.1162 172.332 94.9716 171.865 94.6822C171.403 94.3929 171.03 93.9846 170.745 93.4572C170.46 92.9299 170.318 92.3069 170.318 91.5882C170.318 90.8509 170.46 90.2209 170.745 89.6982C171.03 89.1756 171.403 88.7766 171.865 88.5012C172.332 88.2259 172.833 88.0882 173.37 88.0882C173.748 88.0882 174.086 88.1466 174.385 88.2632C174.688 88.3752 174.952 88.5316 175.176 88.7322C175.4 88.9329 175.584 89.1616 175.729 89.4182C175.878 89.6702 175.988 89.9362 176.058 90.2162L174.938 90.3142C174.821 89.9269 174.625 89.6212 174.35 89.3972C174.079 89.1686 173.748 89.0542 173.356 89.0542C173.025 89.0542 172.712 89.1499 172.418 89.3412C172.129 89.5279 171.893 89.8102 171.711 90.1882C171.529 90.5616 171.438 91.0282 171.438 91.5882C171.438 92.1062 171.52 92.5566 171.683 92.9392C171.851 93.3172 172.08 93.6112 172.369 93.8212C172.658 94.0312 172.987 94.1362 173.356 94.1362C173.874 94.1362 174.266 94.0102 174.532 93.7582C174.803 93.5016 174.938 93.1469 174.938 92.6942H176.058C176.058 93.1609 175.948 93.5762 175.729 93.9402C175.51 94.3042 175.197 94.5912 174.791 94.8012C174.39 95.0112 173.916 95.1162 173.37 95.1162ZM178.307 94.9482V85.4002H179.399V94.9482H178.307ZM179.231 91.1122L182.647 88.2562H184.173L179.231 92.2742V91.1122ZM182.983 94.9482L179.805 90.7202L180.911 90.5242L184.327 94.9482H182.983ZM188.59 95.1162C188.011 95.1162 187.493 94.9692 187.036 94.6752C186.583 94.3766 186.224 93.9636 185.958 93.4362C185.696 92.9089 185.566 92.3022 185.566 91.6162C185.566 90.8836 185.696 90.2536 185.958 89.7262C186.219 89.1989 186.576 88.7952 187.029 88.5152C187.486 88.2306 188.006 88.0882 188.59 88.0882C189.098 88.0882 189.532 88.1909 189.892 88.3962C190.251 88.6016 190.54 88.8792 190.76 89.2292C190.979 89.5792 191.131 89.9759 191.215 90.4192C191.303 90.8579 191.329 91.3129 191.292 91.7842H186.448V91.1122H190.571L190.249 91.3222C190.263 91.0469 190.246 90.7716 190.2 90.4962C190.158 90.2209 190.076 89.9689 189.955 89.7402C189.833 89.5069 189.663 89.3202 189.444 89.1802C189.224 89.0402 188.944 88.9702 188.604 88.9702C188.174 88.9702 187.815 89.0799 187.526 89.2992C187.236 89.5186 187.019 89.8079 186.875 90.1672C186.73 90.5219 186.658 90.9069 186.658 91.3222V91.7702C186.658 92.2369 186.728 92.6546 186.868 93.0232C187.012 93.3919 187.227 93.6836 187.512 93.8982C187.796 94.1129 188.156 94.2202 188.59 94.2202C189.024 94.2202 189.381 94.1152 189.661 93.9052C189.941 93.6952 190.111 93.3849 190.172 92.9742H191.306C191.236 93.4176 191.077 93.8002 190.83 94.1222C190.582 94.4396 190.267 94.6846 189.885 94.8572C189.502 95.0299 189.07 95.1162 188.59 95.1162ZM195.585 95.1162C195.221 95.1162 194.894 95.0462 194.605 94.9062C194.316 94.7662 194.087 94.5562 193.919 94.2762C193.751 93.9962 193.667 93.6462 193.667 93.2262V86.3942H194.745V93.1982C194.745 93.8889 195.067 94.2342 195.711 94.2342C195.902 94.2342 196.087 94.2132 196.264 94.1712C196.446 94.1292 196.649 94.0662 196.873 93.9822L197.027 94.7662C196.789 94.8689 196.551 94.9529 196.313 95.0182C196.08 95.0836 195.837 95.1162 195.585 95.1162ZM192.589 89.0122V88.2562H196.859V89.0122H192.589ZM205.319 95.1162C204.871 95.1162 204.465 94.9996 204.101 94.7662C203.742 94.5329 203.455 94.1922 203.24 93.7442C203.03 93.2916 202.925 92.7409 202.925 92.0922H203.345C203.345 92.5262 203.434 92.8972 203.611 93.2052C203.793 93.5086 204.026 93.7396 204.311 93.8982C204.596 94.0569 204.894 94.1362 205.207 94.1362C205.566 94.1362 205.895 94.0336 206.194 93.8282C206.493 93.6229 206.731 93.3289 206.908 92.9462C207.09 92.5636 207.181 92.1062 207.181 91.5742C207.181 91.0516 207.092 90.6036 206.915 90.2302C206.738 89.8522 206.497 89.5629 206.194 89.3622C205.895 89.1569 205.562 89.0542 205.193 89.0542C204.876 89.0542 204.575 89.1336 204.29 89.2922C204.01 89.4462 203.781 89.6749 203.604 89.9782C203.431 90.2816 203.345 90.6549 203.345 91.0982H202.925C202.925 90.4636 203.028 89.9222 203.233 89.4742C203.443 89.0262 203.732 88.6832 204.101 88.4452C204.47 88.2072 204.899 88.0882 205.389 88.0882C205.916 88.0882 206.399 88.2306 206.838 88.5152C207.281 88.7952 207.636 89.1966 207.902 89.7192C208.168 90.2419 208.301 90.8602 208.301 91.5742C208.301 92.2929 208.166 92.9182 207.895 93.4502C207.624 93.9776 207.263 94.3882 206.81 94.6822C206.357 94.9716 205.86 95.1162 205.319 95.1162ZM202.253 94.9482V85.4002H203.345V93.3802L203.023 94.9482H202.253ZM215.172 88.2422H216.264V94.9482H215.172V88.2422ZM210.426 88.2422H211.518V92.4142C211.518 92.9742 211.653 93.3989 211.924 93.6882C212.199 93.9776 212.591 94.1222 213.1 94.1222C213.52 94.1222 213.884 94.0102 214.192 93.7862C214.504 93.5622 214.745 93.2542 214.913 92.8622C215.085 92.4656 215.172 92.0129 215.172 91.5042H215.578C215.578 92.2556 215.468 92.8972 215.249 93.4292C215.034 93.9612 214.728 94.3696 214.332 94.6542C213.94 94.9342 213.478 95.0742 212.946 95.0742C212.442 95.0742 212.001 94.9809 211.623 94.7942C211.245 94.6076 210.951 94.3252 210.741 93.9472C210.531 93.5646 210.426 93.0816 210.426 92.4982V88.2422ZM218.062 88.2562H219.28L221.464 93.9962H221.212L222.906 88.2562H224.026L221.506 96.2922C221.296 96.9642 221.016 97.4822 220.666 97.8462C220.316 98.2102 219.868 98.3922 219.322 98.3922C219.028 98.3922 218.748 98.3502 218.482 98.2662C218.221 98.1822 217.95 98.0609 217.67 97.9022V96.8942C217.918 97.0902 218.156 97.2302 218.384 97.3142C218.618 97.3982 218.86 97.4402 219.112 97.4402C219.392 97.4402 219.626 97.3516 219.812 97.1742C220.004 96.9969 220.162 96.7682 220.288 96.4882C220.414 96.2129 220.522 95.9236 220.61 95.6202L220.806 94.9482L218.062 88.2562ZM228.084 95.1162C227.505 95.1162 226.987 94.9692 226.53 94.6752C226.077 94.3766 225.718 93.9636 225.452 93.4362C225.19 92.9089 225.06 92.3022 225.06 91.6162C225.06 90.8836 225.19 90.2536 225.452 89.7262C225.713 89.1989 226.07 88.7952 226.523 88.5152C226.98 88.2306 227.5 88.0882 228.084 88.0882C228.592 88.0882 229.026 88.1909 229.386 88.3962C229.745 88.6016 230.034 88.8792 230.254 89.2292C230.473 89.5792 230.625 89.9759 230.709 90.4192C230.797 90.8579 230.823 91.3129 230.786 91.7842H225.942V91.1122H230.065L229.743 91.3222C229.757 91.0469 229.74 90.7716 229.694 90.4962C229.652 90.2209 229.57 89.9689 229.449 89.7402C229.327 89.5069 229.157 89.3202 228.938 89.1802C228.718 89.0402 228.438 88.9702 228.098 88.9702C227.668 88.9702 227.309 89.0799 227.02 89.2992C226.73 89.5186 226.513 89.8079 226.369 90.1672C226.224 90.5219 226.152 90.9069 226.152 91.3222V91.7702C226.152 92.2369 226.222 92.6546 226.362 93.0232C226.506 93.3919 226.721 93.6836 227.006 93.8982C227.29 94.1129 227.65 94.2202 228.084 94.2202C228.518 94.2202 228.875 94.1152 229.155 93.9052C229.435 93.6952 229.605 93.3849 229.666 92.9742H230.8C230.73 93.4176 230.571 93.8002 230.324 94.1222C230.076 94.4396 229.761 94.6846 229.379 94.8572C228.996 95.0299 228.564 95.1162 228.084 95.1162ZM233.021 94.9482V88.2422H234.113V94.9482H233.021ZM233.777 91.9242C233.777 91.0749 233.859 90.3702 234.022 89.8102C234.186 89.2456 234.424 88.8256 234.736 88.5502C235.054 88.2702 235.439 88.1302 235.891 88.1302C236.041 88.1302 236.176 88.1419 236.297 88.1652C236.423 88.1839 236.549 88.2142 236.675 88.2562L236.605 89.3342C236.475 89.2922 236.332 89.2572 236.178 89.2292C236.024 89.1966 235.887 89.1802 235.765 89.1802C235.369 89.1802 235.049 89.2946 234.806 89.5232C234.564 89.7472 234.386 90.0646 234.274 90.4752C234.167 90.8859 234.113 91.3689 234.113 91.9242H233.777Z" fill="black"/>
</svg>
