<svg width="111" height="32" viewBox="0 0 111 32" fill="none" xmlns="http://www.w3.org/2000/svg">
<path d="M11.6869 23.1C12.9369 23.1 14.0119 22.825 14.9119 22.275C15.8286 21.725 16.5286 20.9417 17.0119 19.925H19.7119C19.0786 21.5917 18.0536 22.8833 16.6369 23.8C15.2202 24.7 13.5702 25.15 11.6869 25.15C9.72025 25.15 7.98691 24.6083 6.48691 23.525C4.98691 22.4417 3.95358 20.9917 3.38691 19.175H0.961914V17.575H3.03691C2.98691 17.1417 2.96191 16.7083 2.96191 16.275C2.96191 15.8583 2.98691 15.45 3.03691 15.05H0.961914V13.475H3.36191C3.72858 12.2583 4.31191 11.1917 5.11191 10.275C5.92858 9.34167 6.89525 8.625 8.01191 8.125C9.14525 7.60833 10.3702 7.35 11.6869 7.35C13.5702 7.35 15.2202 7.80833 16.6369 8.725C18.0536 9.64167 19.0786 10.9417 19.7119 12.625H17.0119C16.5286 11.5917 15.8369 10.8 14.9369 10.25C14.0369 9.7 12.9536 9.425 11.6869 9.425C10.2869 9.425 9.06191 9.78333 8.01191 10.5C6.97858 11.2167 6.23691 12.2083 5.78691 13.475H11.6869V15.05H5.38691C5.33691 15.45 5.31191 15.8583 5.31191 16.275C5.31191 16.7583 5.34525 17.1917 5.41191 17.575H11.6869V19.175H5.81191C6.29525 20.4083 7.05358 21.375 8.08691 22.075C9.13691 22.7583 10.3369 23.1 11.6869 23.1ZM30.7156 9.425V15.25H37.0656V17.125H30.7156V23.125H37.8156V25H28.4406V7.55H37.8156V9.425H30.7156ZM43.108 7.575V18.6C43.108 20.15 43.483 21.3 44.233 22.05C44.9997 22.8 46.058 23.175 47.408 23.175C48.7413 23.175 49.783 22.8 50.533 22.05C51.2997 21.3 51.683 20.15 51.683 18.6V7.575H53.958V18.575C53.958 20.025 53.6663 21.25 53.083 22.25C52.4997 23.2333 51.708 23.9667 50.708 24.45C49.7247 24.9333 48.6163 25.175 47.383 25.175C46.1497 25.175 45.033 24.9333 44.033 24.45C43.0497 23.9667 42.2663 23.2333 41.683 22.25C41.1163 21.25 40.833 20.025 40.833 18.575V7.575H43.108ZM66.5531 25L62.4031 17.875H59.6531V25H57.3781V7.575H63.0031C64.3198 7.575 65.4281 7.8 66.3281 8.25C67.2448 8.7 67.9281 9.30833 68.3781 10.075C68.8281 10.8417 69.0531 11.7167 69.0531 12.7C69.0531 13.9 68.7031 14.9583 68.0031 15.875C67.3198 16.7917 66.2865 17.4 64.9031 17.7L69.2781 25H66.5531ZM59.6531 16.05H63.0031C64.2365 16.05 65.1615 15.75 65.7781 15.15C66.3948 14.5333 66.7031 13.7167 66.7031 12.7C66.7031 11.6667 66.3948 10.8667 65.7781 10.3C65.1781 9.73333 64.2531 9.45 63.0031 9.45H59.6531V16.05Z" fill="black"/>
<path d="M0.336914 26.375H70.6531V27.625H0.336914V26.375Z" fill="black"/>
<path d="M87 12L95 20L103 12" stroke="#09090B" stroke-width="2" stroke-linecap="round" stroke-linejoin="round"/>
</svg>
