<svg width="310" height="151" viewBox="0 0 310 151" fill="none" xmlns="http://www.w3.org/2000/svg">
<g style="mix-blend-mode:darken" opacity="0.35">
<path fill-rule="evenodd" clip-rule="evenodd" d="M156.733 9.61004C183.725 11.3973 235.216 6.21802 259 15.0318C284.522 24.4897 278.672 41.1774 290.463 59.1683C303.321 78.7881 316.494 101.108 305.236 121.172C294.098 141.024 273.264 139.734 245 148.987C220.916 156.871 183.461 138.815 156.733 137.948C131.161 137.12 114.764 148.951 95 137.948C75.8225 127.273 64.2817 126.171 52.093 111.536C35.4771 91.585 -2.22001 77.0729 0.655733 54.2588C3.5276 31.4755 34.5273 12.7144 65.6727 3.80467C94.4554 -4.42915 125.629 7.55049 156.733 9.61004Z" fill="#11D8F5"/>
</g>
</svg>
