<svg width="400" height="241" viewBox="0 0 400 241" fill="none" xmlns="http://www.w3.org/2000/svg">
<path d="M0 0.948242H384C392.837 0.948242 400 8.11169 400 16.9482V224.948C400 233.785 392.837 240.948 384 240.948H0V0.948242Z" fill="url(#paint0_linear_380_4026)"/>
<path d="M126.32 110.868C130.32 110.868 133.76 109.988 136.64 108.228C139.573 106.468 141.813 103.962 143.36 100.708H152C149.973 106.042 146.693 110.175 142.16 113.108C137.627 115.988 132.347 117.428 126.32 117.428C120.027 117.428 114.48 115.695 109.68 112.228C104.88 108.762 101.573 104.122 99.76 98.3082H92V93.1882H98.64C98.48 91.8016 98.4 90.4149 98.4 89.0282C98.4 87.6949 98.48 86.3882 98.64 85.1082H92V80.0682H99.68C100.853 76.1749 102.72 72.7616 105.28 69.8282C107.893 66.8416 110.987 64.5482 114.56 62.9482C118.187 61.2949 122.107 60.4682 126.32 60.4682C132.347 60.4682 137.627 61.9349 142.16 64.8682C146.693 67.8016 149.973 71.9616 152 77.3482H143.36C141.813 74.0416 139.6 71.5082 136.72 69.7482C133.84 67.9882 130.373 67.1082 126.32 67.1082C121.84 67.1082 117.92 68.2549 114.56 70.5482C111.253 72.8416 108.88 76.0149 107.44 80.0682H126.32V85.1082H106.16C106 86.3882 105.92 87.6949 105.92 89.0282C105.92 90.5749 106.027 91.9616 106.24 93.1882H126.32V98.3082H107.52C109.067 102.255 111.493 105.348 114.8 107.588C118.16 109.775 122 110.868 126.32 110.868ZM158.204 87.4282C158.204 78.2549 159.697 71.1082 162.684 65.9882C165.67 60.8149 170.897 58.2282 178.364 58.2282C185.777 58.2282 190.977 60.8149 193.964 65.9882C196.95 71.1082 198.444 78.2549 198.444 87.4282C198.444 96.7616 196.95 104.015 193.964 109.188C190.977 114.362 185.777 116.948 178.364 116.948C170.897 116.948 165.67 114.362 162.684 109.188C159.697 104.015 158.204 96.7616 158.204 87.4282ZM191.244 87.4282C191.244 82.7882 190.924 78.8682 190.284 75.6682C189.697 72.4149 188.444 69.8016 186.524 67.8282C184.657 65.8549 181.937 64.8682 178.364 64.8682C174.737 64.8682 171.964 65.8549 170.044 67.8282C168.177 69.8016 166.924 72.4149 166.284 75.6682C165.697 78.8682 165.404 82.7882 165.404 87.4282C165.404 92.2282 165.697 96.2549 166.284 99.5082C166.924 102.762 168.177 105.375 170.044 107.348C171.964 109.322 174.737 110.308 178.364 110.308C181.937 110.308 184.657 109.322 186.524 107.348C188.444 105.375 189.697 102.762 190.284 99.5082C190.924 96.2549 191.244 92.2282 191.244 87.4282ZM210.358 117.428C208.971 117.428 207.798 116.948 206.838 115.988C205.878 115.028 205.398 113.855 205.398 112.468C205.398 111.082 205.878 109.908 206.838 108.948C207.798 107.988 208.971 107.508 210.358 107.508C211.691 107.508 212.811 107.988 213.718 108.948C214.678 109.908 215.158 111.082 215.158 112.468C215.158 113.855 214.678 115.028 213.718 115.988C212.811 116.948 211.691 117.428 210.358 117.428ZM257.635 64.7882L235.395 116.948H228.035L250.595 65.5082H219.715V59.2682H257.635V64.7882ZM264.107 87.4282C264.107 78.2549 265.6 71.1082 268.587 65.9882C271.574 60.8149 276.8 58.2282 284.267 58.2282C291.68 58.2282 296.88 60.8149 299.867 65.9882C302.854 71.1082 304.347 78.2549 304.347 87.4282C304.347 96.7616 302.854 104.015 299.867 109.188C296.88 114.362 291.68 116.948 284.267 116.948C276.8 116.948 271.574 114.362 268.587 109.188C265.6 104.015 264.107 96.7616 264.107 87.4282ZM297.147 87.4282C297.147 82.7882 296.827 78.8682 296.187 75.6682C295.6 72.4149 294.347 69.8016 292.427 67.8282C290.56 65.8549 287.84 64.8682 284.267 64.8682C280.64 64.8682 277.867 65.8549 275.947 67.8282C274.08 69.8016 272.827 72.4149 272.187 75.6682C271.6 78.8682 271.307 82.7882 271.307 87.4282C271.307 92.2282 271.6 96.2549 272.187 99.5082C272.827 102.762 274.08 105.375 275.947 107.348C277.867 109.322 280.64 110.308 284.267 110.308C287.84 110.308 290.56 109.322 292.427 107.348C294.347 105.375 295.6 102.762 296.187 99.5082C296.827 96.2549 297.147 92.2282 297.147 87.4282Z" fill="#09090B"/>
<path d="M147.733 150.773C148.183 149.99 148.85 149.34 149.733 148.823C150.633 148.29 151.675 148.023 152.858 148.023C154.075 148.023 155.175 148.315 156.158 148.898C157.158 149.482 157.942 150.307 158.508 151.373C159.075 152.423 159.358 153.648 159.358 155.048C159.358 156.432 159.075 157.665 158.508 158.748C157.942 159.832 157.158 160.673 156.158 161.273C155.175 161.873 154.075 162.173 152.858 162.173C151.692 162.173 150.658 161.915 149.758 161.398C148.875 160.865 148.2 160.207 147.733 159.423V168.448H145.458V148.248H147.733V150.773ZM157.033 155.048C157.033 154.015 156.825 153.115 156.408 152.348C155.992 151.582 155.425 150.998 154.708 150.598C154.008 150.198 153.233 149.998 152.383 149.998C151.55 149.998 150.775 150.207 150.058 150.623C149.358 151.023 148.792 151.615 148.358 152.398C147.942 153.165 147.733 154.057 147.733 155.073C147.733 156.107 147.942 157.015 148.358 157.798C148.792 158.565 149.358 159.157 150.058 159.573C150.775 159.973 151.55 160.173 152.383 160.173C153.233 160.173 154.008 159.973 154.708 159.573C155.425 159.157 155.992 158.565 156.408 157.798C156.825 157.015 157.033 156.098 157.033 155.048ZM174.478 154.573C174.478 155.007 174.453 155.465 174.403 155.948H163.453C163.536 157.298 163.994 158.357 164.828 159.123C165.678 159.873 166.703 160.248 167.903 160.248C168.886 160.248 169.703 160.023 170.353 159.573C171.019 159.107 171.486 158.49 171.753 157.723H174.203C173.836 159.04 173.103 160.115 172.003 160.948C170.903 161.765 169.536 162.173 167.903 162.173C166.603 162.173 165.436 161.882 164.403 161.298C163.386 160.715 162.586 159.89 162.003 158.823C161.419 157.74 161.128 156.49 161.128 155.073C161.128 153.657 161.411 152.415 161.978 151.348C162.544 150.282 163.336 149.465 164.353 148.898C165.386 148.315 166.569 148.023 167.903 148.023C169.203 148.023 170.353 148.307 171.353 148.873C172.353 149.44 173.119 150.223 173.653 151.223C174.203 152.207 174.478 153.323 174.478 154.573ZM172.128 154.098C172.128 153.232 171.936 152.49 171.553 151.873C171.169 151.24 170.644 150.765 169.978 150.448C169.328 150.115 168.603 149.948 167.803 149.948C166.653 149.948 165.669 150.315 164.853 151.048C164.053 151.782 163.594 152.798 163.478 154.098H172.128ZM179.381 150.473C179.781 149.69 180.347 149.082 181.081 148.648C181.831 148.215 182.739 147.998 183.806 147.998V150.348H183.206C180.656 150.348 179.381 151.732 179.381 154.498V161.948H177.106V148.248H179.381V150.473ZM195.122 150.123V158.198C195.122 158.865 195.264 159.34 195.547 159.623C195.83 159.89 196.322 160.023 197.022 160.023H198.697V161.948H196.647C195.38 161.948 194.43 161.657 193.797 161.073C193.164 160.49 192.847 159.532 192.847 158.198V150.123H191.072V148.248H192.847V144.798H195.122V148.248H198.697V150.123H195.122ZM202.253 146.023C201.82 146.023 201.453 145.873 201.153 145.573C200.853 145.273 200.703 144.907 200.703 144.473C200.703 144.04 200.853 143.673 201.153 143.373C201.453 143.073 201.82 142.923 202.253 142.923C202.67 142.923 203.02 143.073 203.303 143.373C203.603 143.673 203.753 144.04 203.753 144.473C203.753 144.907 203.603 145.273 203.303 145.573C203.02 145.873 202.67 146.023 202.253 146.023ZM203.353 148.248V161.948H201.078V148.248H203.353ZM206.006 155.073C206.006 153.657 206.289 152.423 206.856 151.373C207.422 150.307 208.206 149.482 209.206 148.898C210.222 148.315 211.381 148.023 212.681 148.023C214.364 148.023 215.747 148.432 216.831 149.248C217.931 150.065 218.656 151.198 219.006 152.648H216.556C216.322 151.815 215.864 151.157 215.181 150.673C214.514 150.19 213.681 149.948 212.681 149.948C211.381 149.948 210.331 150.398 209.531 151.298C208.731 152.182 208.331 153.44 208.331 155.073C208.331 156.723 208.731 157.998 209.531 158.898C210.331 159.798 211.381 160.248 212.681 160.248C213.681 160.248 214.514 160.015 215.181 159.548C215.847 159.082 216.306 158.415 216.556 157.548H219.006C218.639 158.948 217.906 160.073 216.806 160.923C215.706 161.757 214.331 162.173 212.681 162.173C211.381 162.173 210.222 161.882 209.206 161.298C208.206 160.715 207.422 159.89 206.856 158.823C206.289 157.757 206.006 156.507 206.006 155.073ZM229.316 161.948L223.941 155.898V161.948H221.666V143.448H223.941V154.323L229.216 148.248H232.391L225.941 155.073L232.416 161.948H229.316ZM246.657 154.573C246.657 155.007 246.632 155.465 246.582 155.948H235.632C235.716 157.298 236.174 158.357 237.007 159.123C237.857 159.873 238.882 160.248 240.082 160.248C241.066 160.248 241.882 160.023 242.532 159.573C243.199 159.107 243.666 158.49 243.932 157.723H246.382C246.016 159.04 245.282 160.115 244.182 160.948C243.082 161.765 241.716 162.173 240.082 162.173C238.782 162.173 237.616 161.882 236.582 161.298C235.566 160.715 234.766 159.89 234.182 158.823C233.599 157.74 233.307 156.49 233.307 155.073C233.307 153.657 233.591 152.415 234.157 151.348C234.724 150.282 235.516 149.465 236.532 148.898C237.566 148.315 238.749 148.023 240.082 148.023C241.382 148.023 242.532 148.307 243.532 148.873C244.532 149.44 245.299 150.223 245.832 151.223C246.382 152.207 246.657 153.323 246.657 154.573ZM244.307 154.098C244.307 153.232 244.116 152.49 243.732 151.873C243.349 151.24 242.824 150.765 242.157 150.448C241.507 150.115 240.782 149.948 239.982 149.948C238.832 149.948 237.849 150.315 237.032 151.048C236.232 151.782 235.774 152.798 235.657 154.098H244.307ZM252.06 150.123V158.198C252.06 158.865 252.202 159.34 252.485 159.623C252.769 159.89 253.26 160.023 253.96 160.023H255.635V161.948H253.585C252.319 161.948 251.369 161.657 250.735 161.073C250.102 160.49 249.785 159.532 249.785 158.198V150.123H248.01V148.248H249.785V144.798H252.06V148.248H255.635V150.123H252.06Z" fill="black"/>
<path d="M108.912 178.316L109.808 178.94C109.2 179.559 108.691 180.202 108.28 180.868C107.875 181.53 107.568 182.21 107.36 182.908C107.158 183.607 107.056 184.316 107.056 185.036C107.056 186.114 107.286 187.167 107.744 188.196C108.208 189.22 108.896 190.194 109.808 191.116L108.912 191.772C107.872 190.818 107.083 189.762 106.544 188.604C106.011 187.447 105.744 186.258 105.744 185.036C105.744 183.804 106.011 182.612 106.544 181.46C107.083 180.308 107.872 179.26 108.912 178.316ZM118.973 190.14C118.471 190.14 117.986 190.071 117.517 189.932C117.053 189.788 116.634 189.58 116.261 189.308C115.893 189.031 115.602 188.69 115.389 188.284C115.175 187.879 115.069 187.41 115.069 186.876H116.349C116.359 187.335 116.482 187.722 116.717 188.036C116.951 188.351 117.263 188.588 117.653 188.748C118.047 188.908 118.487 188.988 118.973 188.988C119.719 188.988 120.298 188.807 120.709 188.444C121.119 188.082 121.325 187.628 121.325 187.084C121.325 186.738 121.239 186.431 121.069 186.164C120.898 185.898 120.626 185.69 120.253 185.54C119.885 185.386 119.399 185.308 118.797 185.308H117.661V184.316H118.429C119.207 184.316 119.821 184.162 120.269 183.852C120.717 183.543 120.941 183.116 120.941 182.572C120.941 182.092 120.759 181.687 120.397 181.356C120.034 181.026 119.517 180.86 118.845 180.86C118.327 180.86 117.866 180.967 117.461 181.18C117.055 181.388 116.781 181.772 116.637 182.332H115.357C115.442 181.708 115.645 181.204 115.965 180.82C116.285 180.436 116.69 180.159 117.181 179.988C117.671 179.812 118.215 179.724 118.813 179.724C119.479 179.724 120.074 179.842 120.597 180.076C121.119 180.311 121.53 180.634 121.829 181.044C122.133 181.455 122.285 181.927 122.285 182.46C122.285 182.988 122.133 183.442 121.829 183.82C121.53 184.194 121.095 184.482 120.525 184.684C121.159 184.866 121.677 185.164 122.077 185.58C122.482 185.996 122.685 186.53 122.685 187.18C122.685 187.756 122.533 188.268 122.229 188.716C121.93 189.159 121.503 189.508 120.949 189.764C120.394 190.015 119.735 190.14 118.973 190.14ZM128.506 190.14C127.716 190.14 127.026 189.948 126.434 189.564C125.847 189.18 125.388 188.602 125.058 187.828C124.732 187.055 124.57 186.087 124.57 184.924C124.57 183.762 124.732 182.796 125.058 182.028C125.388 181.255 125.847 180.679 126.434 180.3C127.026 179.916 127.716 179.724 128.506 179.724C129.29 179.724 129.978 179.916 130.57 180.3C131.162 180.679 131.62 181.255 131.946 182.028C132.276 182.796 132.442 183.762 132.442 184.924C132.442 186.087 132.276 187.055 131.946 187.828C131.62 188.602 131.162 189.18 130.57 189.564C129.978 189.948 129.29 190.14 128.506 190.14ZM128.506 188.988C129.37 188.988 130.026 188.636 130.474 187.932C130.922 187.223 131.146 186.22 131.146 184.924C131.146 183.628 130.922 182.628 130.474 181.924C130.026 181.215 129.37 180.86 128.506 180.86C127.652 180.86 126.999 181.215 126.546 181.924C126.092 182.628 125.866 183.628 125.866 184.924C125.866 186.22 126.092 187.223 126.546 187.932C126.999 188.636 127.652 188.988 128.506 188.988ZM137.638 190.14C137.024 190.14 136.451 189.975 135.918 189.644C135.39 189.314 134.963 188.847 134.638 188.244C134.312 187.642 134.15 186.93 134.15 186.108C134.15 185.266 134.312 184.546 134.638 183.948C134.963 183.351 135.39 182.895 135.918 182.58C136.451 182.266 137.024 182.108 137.638 182.108C138.07 182.108 138.456 182.175 138.798 182.308C139.144 182.436 139.446 182.615 139.702 182.844C139.958 183.074 140.168 183.335 140.334 183.628C140.504 183.916 140.63 184.22 140.71 184.54L139.43 184.652C139.296 184.21 139.072 183.86 138.758 183.604C138.448 183.343 138.07 183.212 137.622 183.212C137.243 183.212 136.886 183.322 136.55 183.54C136.219 183.754 135.95 184.076 135.742 184.508C135.534 184.935 135.43 185.468 135.43 186.108C135.43 186.7 135.523 187.215 135.71 187.652C135.902 188.084 136.163 188.42 136.494 188.66C136.824 188.9 137.2 189.02 137.622 189.02C138.214 189.02 138.662 188.876 138.966 188.588C139.275 188.295 139.43 187.89 139.43 187.372H140.71C140.71 187.906 140.584 188.38 140.334 188.796C140.083 189.212 139.726 189.54 139.262 189.78C138.803 190.02 138.262 190.14 137.638 190.14ZM149.125 181.852H150.357V185.244H153.669V186.316H150.357V189.708H149.125V186.316H145.813V185.244H149.125V181.852ZM163.584 179.756H164.752V186.444H166.496V187.5H164.752V189.948H163.52V187.5H158.32V186.54L163.584 179.756ZM163.568 181.724L159.808 186.54H163.568V181.724ZM168.697 189.948L175.465 179.9H176.761L169.993 189.948H168.697ZM175.529 190.108C175.177 190.108 174.847 190.023 174.537 189.852C174.228 189.676 173.977 189.418 173.785 189.076C173.593 188.735 173.497 188.311 173.497 187.804C173.497 187.303 173.593 186.884 173.785 186.548C173.977 186.207 174.228 185.951 174.537 185.78C174.847 185.604 175.177 185.516 175.529 185.516C175.897 185.516 176.239 185.604 176.553 185.78C176.868 185.951 177.119 186.207 177.305 186.548C177.497 186.884 177.593 187.303 177.593 187.804C177.593 188.311 177.497 188.735 177.305 189.076C177.119 189.418 176.868 189.676 176.553 189.852C176.239 190.023 175.897 190.108 175.529 190.108ZM175.529 189.244C175.844 189.244 176.097 189.13 176.289 188.9C176.487 188.671 176.585 188.306 176.585 187.804C176.585 187.314 176.487 186.951 176.289 186.716C176.097 186.482 175.844 186.364 175.529 186.364C175.22 186.364 174.969 186.482 174.777 186.716C174.585 186.951 174.489 187.314 174.489 187.804C174.489 188.306 174.585 188.671 174.777 188.9C174.969 189.13 175.22 189.244 175.529 189.244ZM169.929 184.3C169.577 184.3 169.247 184.215 168.937 184.044C168.628 183.868 168.377 183.612 168.185 183.276C167.993 182.935 167.897 182.514 167.897 182.012C167.897 181.511 167.993 181.092 168.185 180.756C168.377 180.415 168.628 180.159 168.937 179.988C169.247 179.812 169.577 179.724 169.929 179.724C170.292 179.724 170.631 179.812 170.945 179.988C171.26 180.159 171.513 180.415 171.705 180.756C171.897 181.092 171.993 181.511 171.993 182.012C171.993 182.514 171.897 182.935 171.705 183.276C171.513 183.612 171.26 183.868 170.945 184.044C170.631 184.215 170.292 184.3 169.929 184.3ZM169.929 183.452C170.233 183.452 170.481 183.338 170.673 183.108C170.871 182.874 170.969 182.508 170.969 182.012C170.969 181.516 170.871 181.151 170.673 180.916C170.481 180.676 170.233 180.556 169.929 180.556C169.62 180.556 169.369 180.676 169.177 180.916C168.985 181.151 168.889 181.516 168.889 182.012C168.889 182.508 168.985 182.874 169.177 183.108C169.369 183.338 169.62 183.452 169.929 183.452ZM186.871 190.14C186.183 190.14 185.57 189.988 185.031 189.684C184.498 189.38 184.077 188.93 183.767 188.332C183.458 187.735 183.303 186.999 183.303 186.124C183.303 185.244 183.458 184.508 183.767 183.916C184.077 183.319 184.498 182.868 185.031 182.564C185.57 182.26 186.183 182.108 186.871 182.108C187.554 182.108 188.162 182.26 188.695 182.564C189.234 182.868 189.655 183.319 189.959 183.916C190.269 184.508 190.423 185.244 190.423 186.124C190.423 186.999 190.269 187.735 189.959 188.332C189.655 188.93 189.234 189.38 188.695 189.684C188.162 189.988 187.554 190.14 186.871 190.14ZM186.839 189.052C187.335 189.052 187.757 188.935 188.103 188.7C188.45 188.46 188.711 188.122 188.887 187.684C189.069 187.247 189.159 186.727 189.159 186.124C189.159 185.212 188.97 184.495 188.591 183.972C188.213 183.444 187.65 183.18 186.903 183.18C186.402 183.18 185.978 183.3 185.631 183.54C185.29 183.775 185.029 184.114 184.847 184.556C184.671 184.994 184.583 185.516 184.583 186.124C184.583 187.026 184.773 187.74 185.151 188.268C185.535 188.791 186.098 189.052 186.839 189.052ZM193.35 189.948V181.116C193.35 180.61 193.446 180.196 193.638 179.876C193.835 179.551 194.096 179.311 194.422 179.156C194.752 179.002 195.12 178.924 195.526 178.924C195.744 178.924 195.966 178.94 196.19 178.972C196.419 179.004 196.646 179.052 196.87 179.116L196.63 180.108C196.47 180.044 196.31 179.996 196.15 179.964C195.995 179.932 195.846 179.916 195.702 179.916C195.531 179.916 195.36 179.948 195.19 180.012C195.019 180.076 194.878 180.196 194.766 180.372C194.654 180.548 194.598 180.802 194.598 181.132V189.948H193.35ZM192.102 183.164V182.3H196.182V183.164H192.102ZM204.727 190.14C204.311 190.14 203.937 190.06 203.607 189.9C203.276 189.74 203.015 189.5 202.823 189.18C202.631 188.86 202.535 188.46 202.535 187.98V180.172H203.767V187.948C203.767 188.738 204.135 189.132 204.871 189.132C205.089 189.132 205.3 189.108 205.503 189.06C205.711 189.012 205.943 188.94 206.199 188.844L206.375 189.74C206.103 189.858 205.831 189.954 205.559 190.028C205.292 190.103 205.015 190.14 204.727 190.14ZM201.303 183.164V182.3H206.183V183.164H201.303ZM209.174 180.492C208.918 180.492 208.716 180.42 208.566 180.276C208.417 180.127 208.342 179.932 208.342 179.692C208.342 179.458 208.417 179.271 208.566 179.132C208.716 178.994 208.918 178.924 209.174 178.924C209.43 178.924 209.633 178.994 209.782 179.132C209.932 179.271 210.006 179.458 210.006 179.692C210.006 179.932 209.932 180.127 209.782 180.276C209.633 180.42 209.43 180.492 209.174 180.492ZM208.55 189.948V182.284H209.798V189.948H208.55ZM216.004 190.14C215.391 190.14 214.817 189.975 214.284 189.644C213.756 189.314 213.329 188.847 213.004 188.244C212.679 187.642 212.516 186.93 212.516 186.108C212.516 185.266 212.679 184.546 213.004 183.948C213.329 183.351 213.756 182.895 214.284 182.58C214.817 182.266 215.391 182.108 216.004 182.108C216.436 182.108 216.823 182.175 217.164 182.308C217.511 182.436 217.812 182.615 218.068 182.844C218.324 183.074 218.535 183.335 218.7 183.628C218.871 183.916 218.996 184.22 219.076 184.54L217.796 184.652C217.663 184.21 217.439 183.86 217.124 183.604C216.815 183.343 216.436 183.212 215.988 183.212C215.609 183.212 215.252 183.322 214.916 183.54C214.585 183.754 214.316 184.076 214.108 184.508C213.9 184.935 213.796 185.468 213.796 186.108C213.796 186.7 213.889 187.215 214.076 187.652C214.268 188.084 214.529 188.42 214.86 188.66C215.191 188.9 215.567 189.02 215.988 189.02C216.58 189.02 217.028 188.876 217.332 188.588C217.641 188.295 217.796 187.89 217.796 187.372H219.076C219.076 187.906 218.951 188.38 218.7 188.796C218.449 189.212 218.092 189.54 217.628 189.78C217.169 190.02 216.628 190.14 216.004 190.14ZM221.646 189.948V179.036H222.894V189.948H221.646ZM222.702 185.564L226.606 182.3H228.35L222.702 186.892V185.564ZM226.99 189.948L223.358 185.116L224.622 184.892L228.526 189.948H226.99ZM233.398 190.14C232.736 190.14 232.144 189.972 231.622 189.636C231.104 189.295 230.694 188.823 230.39 188.22C230.091 187.618 229.942 186.924 229.942 186.14C229.942 185.303 230.091 184.583 230.39 183.98C230.688 183.378 231.096 182.916 231.614 182.596C232.136 182.271 232.731 182.108 233.398 182.108C233.979 182.108 234.475 182.226 234.886 182.46C235.296 182.695 235.627 183.012 235.878 183.412C236.128 183.812 236.302 184.266 236.398 184.772C236.499 185.274 236.528 185.794 236.486 186.332H230.95V185.564H235.662L235.294 185.804C235.31 185.49 235.291 185.175 235.238 184.86C235.19 184.546 235.096 184.258 234.958 183.996C234.819 183.73 234.624 183.516 234.374 183.356C234.123 183.196 233.803 183.116 233.414 183.116C232.923 183.116 232.512 183.242 232.182 183.492C231.851 183.743 231.603 184.074 231.438 184.484C231.272 184.89 231.19 185.33 231.19 185.804V186.316C231.19 186.85 231.27 187.327 231.43 187.748C231.595 188.17 231.84 188.503 232.166 188.748C232.491 188.994 232.902 189.116 233.398 189.116C233.894 189.116 234.302 188.996 234.622 188.756C234.942 188.516 235.136 188.162 235.206 187.692H236.502C236.422 188.199 236.24 188.636 235.958 189.004C235.675 189.367 235.315 189.647 234.878 189.844C234.44 190.042 233.947 190.14 233.398 190.14ZM241.392 190.14C240.976 190.14 240.603 190.06 240.272 189.9C239.942 189.74 239.68 189.5 239.488 189.18C239.296 188.86 239.2 188.46 239.2 187.98V180.172H240.432V187.948C240.432 188.738 240.8 189.132 241.536 189.132C241.755 189.132 241.966 189.108 242.168 189.06C242.376 189.012 242.608 188.94 242.864 188.844L243.04 189.74C242.768 189.858 242.496 189.954 242.224 190.028C241.958 190.103 241.68 190.14 241.392 190.14ZM237.968 183.164V182.3H242.848V183.164H237.968ZM251.733 178.316L252.629 178.94C252.021 179.559 251.512 180.202 251.101 180.868C250.696 181.53 250.389 182.21 250.181 182.908C249.978 183.607 249.877 184.316 249.877 185.036C249.877 186.114 250.106 187.167 250.565 188.196C251.029 189.22 251.717 190.194 252.629 191.116L251.733 191.772C250.693 190.818 249.904 189.762 249.365 188.604C248.832 187.447 248.565 186.258 248.565 185.036C248.565 183.804 248.832 182.612 249.365 181.46C249.904 180.308 250.693 179.26 251.733 178.316ZM258.844 179.756H260.012V186.444H261.756V187.5H260.012V189.948H258.78V187.5H253.58V186.54L258.844 179.756ZM258.828 181.724L255.068 186.54H258.828V181.724ZM266.934 190.14C266.145 190.14 265.454 189.948 264.862 189.564C264.275 189.18 263.817 188.602 263.486 187.828C263.161 187.055 262.998 186.087 262.998 184.924C262.998 183.762 263.161 182.796 263.486 182.028C263.817 181.255 264.275 180.679 264.862 180.3C265.454 179.916 266.145 179.724 266.934 179.724C267.718 179.724 268.406 179.916 268.998 180.3C269.59 180.679 270.049 181.255 270.374 182.028C270.705 182.796 270.87 183.762 270.87 184.924C270.87 186.087 270.705 187.055 270.374 187.828C270.049 188.602 269.59 189.18 268.998 189.564C268.406 189.948 267.718 190.14 266.934 190.14ZM266.934 188.988C267.798 188.988 268.454 188.636 268.902 187.932C269.35 187.223 269.574 186.22 269.574 184.924C269.574 183.628 269.35 182.628 268.902 181.924C268.454 181.215 267.798 180.86 266.934 180.86C266.081 180.86 265.427 181.215 264.974 181.924C264.521 182.628 264.294 183.628 264.294 184.924C264.294 186.22 264.521 187.223 264.974 187.932C265.427 188.636 266.081 188.988 266.934 188.988ZM276.066 190.14C275.453 190.14 274.879 189.975 274.346 189.644C273.818 189.314 273.391 188.847 273.066 188.244C272.741 187.642 272.578 186.93 272.578 186.108C272.578 185.266 272.741 184.546 273.066 183.948C273.391 183.351 273.818 182.895 274.346 182.58C274.879 182.266 275.453 182.108 276.066 182.108C276.498 182.108 276.885 182.175 277.226 182.308C277.573 182.436 277.874 182.615 278.13 182.844C278.386 183.074 278.597 183.335 278.762 183.628C278.933 183.916 279.058 184.22 279.138 184.54L277.858 184.652C277.725 184.21 277.501 183.86 277.186 183.604C276.877 183.343 276.498 183.212 276.05 183.212C275.671 183.212 275.314 183.322 274.978 183.54C274.647 183.754 274.378 184.076 274.17 184.508C273.962 184.935 273.858 185.468 273.858 186.108C273.858 186.7 273.951 187.215 274.138 187.652C274.33 188.084 274.591 188.42 274.922 188.66C275.253 188.9 275.629 189.02 276.05 189.02C276.642 189.02 277.09 188.876 277.394 188.588C277.703 188.295 277.858 187.89 277.858 187.372H279.138C279.138 187.906 279.013 188.38 278.762 188.796C278.511 189.212 278.154 189.54 277.69 189.78C277.231 190.02 276.69 190.14 276.066 190.14ZM281.452 191.772L280.54 191.116C281.452 190.194 282.14 189.22 282.604 188.196C283.073 187.167 283.308 186.114 283.308 185.036C283.308 184.316 283.204 183.607 282.996 182.908C282.788 182.21 282.479 181.53 282.068 180.868C281.657 180.202 281.148 179.559 280.54 178.94L281.452 178.316C282.487 179.26 283.273 180.308 283.812 181.46C284.351 182.612 284.62 183.804 284.62 185.036C284.62 185.852 284.5 186.655 284.26 187.444C284.02 188.234 283.663 188.994 283.188 189.724C282.719 190.455 282.14 191.138 281.452 191.772ZM291.096 191.772L290.184 191.116C291.096 190.194 291.784 189.22 292.248 188.196C292.718 187.167 292.952 186.114 292.952 185.036C292.952 184.316 292.848 183.607 292.64 182.908C292.432 182.21 292.123 181.53 291.712 180.868C291.302 180.202 290.792 179.559 290.184 178.94L291.096 178.316C292.131 179.26 292.918 180.308 293.456 181.46C293.995 182.612 294.264 183.804 294.264 185.036C294.264 185.852 294.144 186.655 293.904 187.444C293.664 188.234 293.307 188.994 292.832 189.724C292.363 190.455 291.784 191.138 291.096 191.772Z" fill="black"/>
<defs>
<linearGradient id="paint0_linear_380_4026" x1="76.6667" y1="29.9482" x2="186.594" y2="274.231" gradientUnits="userSpaceOnUse">
<stop stop-color="#89EB8E"/>
<stop offset="1" stop-color="#11D8F5"/>
</linearGradient>
</defs>
</svg>
