<svg width="61" height="61" viewBox="0 0 61 61" fill="none" xmlns="http://www.w3.org/2000/svg">
<path d="M23 38.4485L38 23.4485" stroke="#09090B" stroke-width="2" stroke-linecap="round" stroke-linejoin="round"/>
<path d="M24.25 25.9485C24.9404 25.9485 25.5 25.3888 25.5 24.6985C25.5 24.0081 24.9404 23.4485 24.25 23.4485C23.5596 23.4485 23 24.0081 23 24.6985C23 25.3888 23.5596 25.9485 24.25 25.9485Z" fill="#09090B" stroke="#09090B" stroke-width="2" stroke-linecap="round" stroke-linejoin="round"/>
<path d="M36.75 38.4485C37.4404 38.4485 38 37.8888 38 37.1985C38 36.5081 37.4404 35.9485 36.75 35.9485C36.0596 35.9485 35.5 36.5081 35.5 37.1985C35.5 37.8888 36.0596 38.4485 36.75 38.4485Z" fill="#09090B" stroke="#09090B" stroke-width="2" stroke-linecap="round" stroke-linejoin="round"/>
<g style="mix-blend-mode:darken">
<path d="M13.0002 18.9484C13.0002 17.4897 13.5796 16.0908 14.6111 15.0593C15.6425 14.0279 17.0415 13.4484 18.5002 13.4484H21.0002C22.4524 13.4476 23.8454 12.8724 24.8752 11.8484L26.6252 10.0984C27.1363 9.58442 27.744 9.17652 28.4133 8.89819C29.0826 8.61985 29.8003 8.47656 30.5252 8.47656C31.25 8.47656 31.9678 8.61985 32.6371 8.89819C33.3064 9.17652 33.9141 9.58442 34.4252 10.0984L36.1752 11.8484C37.205 12.8724 38.5979 13.4476 40.0502 13.4484H42.5502C44.0089 13.4484 45.4078 14.0279 46.4393 15.0593C47.4707 16.0908 48.0502 17.4897 48.0502 18.9484V21.4484C48.051 22.9007 48.6262 24.2936 49.6502 25.3234L51.4002 27.0734C51.9142 27.5845 52.3221 28.1922 52.6004 28.8615C52.8787 29.5308 53.022 30.2485 53.022 30.9734C53.022 31.6983 52.8787 32.416 52.6004 33.0853C52.3221 33.7546 51.9142 34.3623 51.4002 34.8734L49.6502 36.6234C48.6262 37.6532 48.051 39.0462 48.0502 40.4984V42.9984C48.0502 44.4571 47.4707 45.8561 46.4393 46.8875C45.4078 47.919 44.0089 48.4984 42.5502 48.4984H40.0502C38.5979 48.4993 37.205 49.0744 36.1752 50.0984L34.4252 51.8484C33.9141 52.3624 33.3064 52.7703 32.6371 53.0486C31.9678 53.327 31.25 53.4703 30.5252 53.4703C29.8003 53.4703 29.0826 53.327 28.4133 53.0486C27.744 52.7703 27.1363 52.3624 26.6252 51.8484L24.8752 50.0984C23.8454 49.0744 22.4524 48.4993 21.0002 48.4984H18.5002C17.0415 48.4984 15.6425 47.919 14.6111 46.8875C13.5796 45.8561 13.0002 44.4571 13.0002 42.9984V40.4984C12.9993 39.0462 12.4242 37.6532 11.4002 36.6234L9.65018 34.8734C9.13618 34.3623 8.72828 33.7546 8.44994 33.0853C8.17161 32.416 8.02832 31.6983 8.02832 30.9734C8.02832 30.2485 8.17161 29.5308 8.44994 28.8615C8.72828 28.1922 9.13618 27.5845 9.65018 27.0734L11.4002 25.3234C12.4242 24.2936 12.9993 22.9007 13.0002 21.4484V18.9484Z" fill="url(#paint0_linear_339_4673)" fill-opacity="0.75"/>
<path d="M13.0002 18.9484C13.0002 17.4897 13.5796 16.0908 14.6111 15.0593C15.6425 14.0279 17.0415 13.4484 18.5002 13.4484H21.0002C22.4524 13.4476 23.8454 12.8724 24.8752 11.8484L26.6252 10.0984C27.1363 9.58442 27.744 9.17652 28.4133 8.89819C29.0826 8.61985 29.8003 8.47656 30.5252 8.47656C31.25 8.47656 31.9678 8.61985 32.6371 8.89819C33.3064 9.17652 33.9141 9.58442 34.4252 10.0984L36.1752 11.8484C37.205 12.8724 38.5979 13.4476 40.0502 13.4484H42.5502C44.0089 13.4484 45.4078 14.0279 46.4393 15.0593C47.4707 16.0908 48.0502 17.4897 48.0502 18.9484V21.4484C48.051 22.9007 48.6262 24.2936 49.6502 25.3234L51.4002 27.0734C51.9142 27.5845 52.3221 28.1922 52.6004 28.8615C52.8787 29.5308 53.022 30.2485 53.022 30.9734C53.022 31.6983 52.8787 32.416 52.6004 33.0853C52.3221 33.7546 51.9142 34.3623 51.4002 34.8734L49.6502 36.6234C48.6262 37.6532 48.051 39.0462 48.0502 40.4984V42.9984C48.0502 44.4571 47.4707 45.8561 46.4393 46.8875C45.4078 47.919 44.0089 48.4984 42.5502 48.4984H40.0502C38.5979 48.4993 37.205 49.0744 36.1752 50.0984L34.4252 51.8484C33.9141 52.3624 33.3064 52.7703 32.6371 53.0486C31.9678 53.327 31.25 53.4703 30.5252 53.4703C29.8003 53.4703 29.0826 53.327 28.4133 53.0486C27.744 52.7703 27.1363 52.3624 26.6252 51.8484L24.8752 50.0984C23.8454 49.0744 22.4524 48.4993 21.0002 48.4984H18.5002C17.0415 48.4984 15.6425 47.919 14.6111 46.8875C13.5796 45.8561 13.0002 44.4571 13.0002 42.9984V40.4984C12.9993 39.0462 12.4242 37.6532 11.4002 36.6234L9.65018 34.8734C9.13618 34.3623 8.72828 33.7546 8.44994 33.0853C8.17161 32.416 8.02832 31.6983 8.02832 30.9734C8.02832 30.2485 8.17161 29.5308 8.44994 28.8615C8.72828 28.1922 9.13618 27.5845 9.65018 27.0734L11.4002 25.3234C12.4242 24.2936 12.9993 22.9007 13.0002 21.4484V18.9484Z" stroke="#09090B" stroke-width="2" stroke-linecap="round" stroke-linejoin="round"/>
</g>
<defs>
<linearGradient id="paint0_linear_339_4673" x1="16.6521" y1="13.9133" x2="43.0859" y2="49.1584" gradientUnits="userSpaceOnUse">
<stop stop-color="#89EB8E"/>
<stop offset="1" stop-color="#11D8F5"/>
</linearGradient>
</defs>
</svg>
