<svg width="44" height="45" viewBox="0 0 44 45" fill="none" xmlns="http://www.w3.org/2000/svg">
<path d="M3.66699 17.4486C5.12568 17.4486 6.52463 18.028 7.55608 19.0595C8.58753 20.0909 9.16699 21.4899 9.16699 22.9486C9.16699 24.4073 8.58753 25.8062 7.55608 26.8377C6.52463 27.8691 5.12568 28.4486 3.66699 28.4486V32.1152C3.66699 33.0877 4.0533 34.0203 4.74093 34.708C5.42857 35.3956 6.3612 35.7819 7.33366 35.7819H36.667C37.6395 35.7819 38.5721 35.3956 39.2597 34.708C39.9473 34.0203 40.3337 33.0877 40.3337 32.1152V28.4486C38.875 28.4486 37.476 27.8691 36.4446 26.8377C35.4131 25.8062 34.8337 24.4073 34.8337 22.9486C34.8337 21.4899 35.4131 20.0909 36.4446 19.0595C37.476 18.028 38.875 17.4486 40.3337 17.4486V13.7819C40.3337 12.8094 39.9473 11.8768 39.2597 11.1892C38.5721 10.5015 37.6395 10.1152 36.667 10.1152H7.33366C6.3612 10.1152 5.42857 10.5015 4.74093 11.1892C4.0533 11.8768 3.66699 12.8094 3.66699 13.7819V17.4486Z" fill="#89EB8E" fill-opacity="0.5"/>
<path d="M23.8337 10.1152V13.7819V10.1152Z" fill="#89EB8E" fill-opacity="0.5"/>
<path d="M23.8337 32.1152V35.7819V32.1152Z" fill="#89EB8E" fill-opacity="0.5"/>
<path d="M23.8337 21.1152V24.7819V21.1152Z" fill="#89EB8E" fill-opacity="0.5"/>
<path d="M23.8337 10.1152V13.7819M23.8337 32.1152V35.7819M23.8337 21.1152V24.7819M3.66699 17.4486C5.12568 17.4486 6.52463 18.028 7.55608 19.0595C8.58753 20.0909 9.16699 21.4899 9.16699 22.9486C9.16699 24.4073 8.58753 25.8062 7.55608 26.8377C6.52463 27.8691 5.12568 28.4486 3.66699 28.4486V32.1152C3.66699 33.0877 4.0533 34.0203 4.74093 34.708C5.42857 35.3956 6.3612 35.7819 7.33366 35.7819H36.667C37.6395 35.7819 38.5721 35.3956 39.2597 34.708C39.9474 34.0203 40.3337 33.0877 40.3337 32.1152V28.4486C38.875 28.4486 37.476 27.8691 36.4446 26.8377C35.4131 25.8062 34.8337 24.4073 34.8337 22.9486C34.8337 21.4899 35.4131 20.0909 36.4446 19.0595C37.476 18.028 38.875 17.4486 40.3337 17.4486V13.7819C40.3337 12.8094 39.9474 11.8768 39.2597 11.1892C38.5721 10.5015 37.6395 10.1152 36.667 10.1152H7.33366C6.3612 10.1152 5.42857 10.5015 4.74093 11.1892C4.0533 11.8768 3.66699 12.8094 3.66699 13.7819V17.4486Z" stroke="#09090B" stroke-width="2" stroke-linecap="round" stroke-linejoin="round"/>
</svg>
