<svg width="740" height="241" viewBox="0 0 740 241" fill="none" xmlns="http://www.w3.org/2000/svg">
<path d="M377.86 34.0882C377.86 35.2482 377.46 36.2149 376.66 36.9882C375.873 37.7482 374.667 38.1282 373.04 38.1282H370.36V43.9482H368.54V30.0082H373.04C374.613 30.0082 375.807 30.3882 376.62 31.1482C377.447 31.9082 377.86 32.8882 377.86 34.0882ZM373.04 36.6282C374.053 36.6282 374.8 36.4082 375.28 35.9682C375.76 35.5282 376 34.9016 376 34.0882C376 32.3682 375.013 31.5082 373.04 31.5082H370.36V36.6282H373.04ZM379.342 38.4282C379.342 37.3082 379.569 36.3282 380.022 35.4882C380.475 34.6349 381.095 33.9749 381.882 33.5082C382.682 33.0416 383.569 32.8082 384.542 32.8082C385.502 32.8082 386.335 33.0149 387.042 33.4282C387.749 33.8416 388.275 34.3616 388.622 34.9882V32.9882H390.462V43.9482H388.622V41.9082C388.262 42.5482 387.722 43.0816 387.002 43.5082C386.295 43.9216 385.469 44.1282 384.522 44.1282C383.549 44.1282 382.669 43.8882 381.882 43.4082C381.095 42.9282 380.475 42.2549 380.022 41.3882C379.569 40.5216 379.342 39.5349 379.342 38.4282ZM388.622 38.4482C388.622 37.6216 388.455 36.9016 388.122 36.2882C387.789 35.6749 387.335 35.2082 386.762 34.8882C386.202 34.5549 385.582 34.3882 384.902 34.3882C384.222 34.3882 383.602 34.5482 383.042 34.8682C382.482 35.1882 382.035 35.6549 381.702 36.2682C381.369 36.8816 381.202 37.6016 381.202 38.4282C381.202 39.2682 381.369 40.0016 381.702 40.6282C382.035 41.2416 382.482 41.7149 383.042 42.0482C383.602 42.3682 384.222 42.5282 384.902 42.5282C385.582 42.5282 386.202 42.3682 386.762 42.0482C387.335 41.7149 387.789 41.2416 388.122 40.6282C388.455 40.0016 388.622 39.2749 388.622 38.4482ZM402.878 32.9882L396.278 49.1082H394.398L396.558 43.8282L392.138 32.9882H394.158L397.598 41.8682L400.998 32.9882H402.878ZM419.559 32.9882V43.9482H417.739V42.3282C417.393 42.8882 416.906 43.3282 416.279 43.6482C415.666 43.9549 414.986 44.1082 414.239 44.1082C413.386 44.1082 412.619 43.9349 411.939 43.5882C411.259 43.2282 410.719 42.6949 410.319 41.9882C409.933 41.2816 409.739 40.4216 409.739 39.4082V32.9882H411.539V39.1682C411.539 40.2482 411.813 41.0816 412.359 41.6682C412.906 42.2416 413.653 42.5282 414.599 42.5282C415.573 42.5282 416.339 42.2282 416.899 41.6282C417.459 41.0282 417.739 40.1549 417.739 39.0082V32.9882H419.559ZM424.352 35.0082C424.712 34.3816 425.246 33.8616 425.952 33.4482C426.672 33.0216 427.506 32.8082 428.452 32.8082C429.426 32.8082 430.306 33.0416 431.092 33.5082C431.892 33.9749 432.519 34.6349 432.972 35.4882C433.426 36.3282 433.652 37.3082 433.652 38.4282C433.652 39.5349 433.426 40.5216 432.972 41.3882C432.519 42.2549 431.892 42.9282 431.092 43.4082C430.306 43.8882 429.426 44.1282 428.452 44.1282C427.519 44.1282 426.692 43.9216 425.972 43.5082C425.266 43.0816 424.726 42.5549 424.352 41.9282V49.1482H422.532V32.9882H424.352V35.0082ZM431.792 38.4282C431.792 37.6016 431.626 36.8816 431.292 36.2682C430.959 35.6549 430.506 35.1882 429.932 34.8682C429.372 34.5482 428.752 34.3882 428.072 34.3882C427.406 34.3882 426.786 34.5549 426.212 34.8882C425.652 35.2082 425.199 35.6816 424.852 36.3082C424.519 36.9216 424.352 37.6349 424.352 38.4482C424.352 39.2749 424.519 40.0016 424.852 40.6282C425.199 41.2416 425.652 41.7149 426.212 42.0482C426.786 42.3682 427.406 42.5282 428.072 42.5282C428.752 42.5282 429.372 42.3682 429.932 42.0482C430.506 41.7149 430.959 41.2416 431.292 40.6282C431.626 40.0016 431.792 39.2682 431.792 38.4282ZM440.408 34.4882H438.108V43.9482H436.288V34.4882H434.868V32.9882H436.288V32.2082C436.288 30.9816 436.601 30.0882 437.228 29.5282C437.868 28.9549 438.888 28.6682 440.288 28.6682V30.1882C439.488 30.1882 438.921 30.3482 438.588 30.6682C438.268 30.9749 438.108 31.4882 438.108 32.2082V32.9882H440.408V34.4882ZM444.25 34.7682C444.57 34.1416 445.023 33.6549 445.61 33.3082C446.21 32.9616 446.937 32.7882 447.79 32.7882V34.6682H447.31C445.27 34.6682 444.25 35.7749 444.25 37.9882V43.9482H442.43V32.9882H444.25V34.7682ZM454.571 44.1282C453.544 44.1282 452.611 43.8949 451.771 43.4282C450.944 42.9616 450.291 42.3016 449.811 41.4482C449.344 40.5816 449.111 39.5816 449.111 38.4482C449.111 37.3282 449.351 36.3416 449.831 35.4882C450.324 34.6216 450.991 33.9616 451.831 33.5082C452.671 33.0416 453.611 32.8082 454.651 32.8082C455.691 32.8082 456.631 33.0416 457.471 33.5082C458.311 33.9616 458.971 34.6149 459.451 35.4682C459.944 36.3216 460.191 37.3149 460.191 38.4482C460.191 39.5816 459.937 40.5816 459.431 41.4482C458.937 42.3016 458.264 42.9616 457.411 43.4282C456.557 43.8949 455.611 44.1282 454.571 44.1282ZM454.571 42.5282C455.224 42.5282 455.837 42.3749 456.411 42.0682C456.984 41.7616 457.444 41.3016 457.791 40.6882C458.151 40.0749 458.331 39.3282 458.331 38.4482C458.331 37.5682 458.157 36.8216 457.811 36.2082C457.464 35.5949 457.011 35.1416 456.451 34.8482C455.891 34.5416 455.284 34.3882 454.631 34.3882C453.964 34.3882 453.351 34.5416 452.791 34.8482C452.244 35.1416 451.804 35.5949 451.471 36.2082C451.137 36.8216 450.971 37.5682 450.971 38.4482C450.971 39.3416 451.131 40.0949 451.451 40.7082C451.784 41.3216 452.224 41.7816 452.771 42.0882C453.317 42.3816 453.917 42.5282 454.571 42.5282ZM467.824 32.7882C469.157 32.7882 470.237 33.1949 471.064 34.0082C471.89 34.8082 472.304 35.9682 472.304 37.4882V43.9482H470.504V37.7482C470.504 36.6549 470.23 35.8216 469.684 35.2482C469.137 34.6616 468.39 34.3682 467.444 34.3682C466.484 34.3682 465.717 34.6682 465.144 35.2682C464.584 35.8682 464.304 36.7416 464.304 37.8882V43.9482H462.484V32.9882H464.304V34.5482C464.664 33.9882 465.15 33.5549 465.764 33.2482C466.39 32.9416 467.077 32.7882 467.824 32.7882ZM477.397 34.4882V40.9482C477.397 41.4816 477.51 41.8616 477.737 42.0882C477.963 42.3016 478.357 42.4082 478.917 42.4082H480.257V43.9482H478.617C477.603 43.9482 476.843 43.7149 476.337 43.2482C475.83 42.7816 475.577 42.0149 475.577 40.9482V34.4882H474.157V32.9882H475.577V30.2282H477.397V32.9882H480.257V34.4882H477.397Z" fill="black"/>
<rect x="497.5" y="21.4482" width="67" height="31" rx="15.5" stroke="black"/>
<circle cx="548" cy="36.9482" r="11.75" fill="#11D8F5" stroke="black" stroke-width="0.5"/>
<path d="M591.86 34.0882C591.86 35.2482 591.46 36.2149 590.66 36.9882C589.873 37.7482 588.667 38.1282 587.04 38.1282H584.36V43.9482H582.54V30.0082H587.04C588.613 30.0082 589.807 30.3882 590.62 31.1482C591.447 31.9082 591.86 32.8882 591.86 34.0882ZM587.04 36.6282C588.053 36.6282 588.8 36.4082 589.28 35.9682C589.76 35.5282 590 34.9016 590 34.0882C590 32.3682 589.013 31.5082 587.04 31.5082H584.36V36.6282H587.04ZM593.342 38.4282C593.342 37.3082 593.569 36.3282 594.022 35.4882C594.475 34.6349 595.095 33.9749 595.882 33.5082C596.682 33.0416 597.569 32.8082 598.542 32.8082C599.502 32.8082 600.335 33.0149 601.042 33.4282C601.749 33.8416 602.275 34.3616 602.622 34.9882V32.9882H604.462V43.9482H602.622V41.9082C602.262 42.5482 601.722 43.0816 601.002 43.5082C600.295 43.9216 599.469 44.1282 598.522 44.1282C597.549 44.1282 596.669 43.8882 595.882 43.4082C595.095 42.9282 594.475 42.2549 594.022 41.3882C593.569 40.5216 593.342 39.5349 593.342 38.4282ZM602.622 38.4482C602.622 37.6216 602.455 36.9016 602.122 36.2882C601.789 35.6749 601.335 35.2082 600.762 34.8882C600.202 34.5549 599.582 34.3882 598.902 34.3882C598.222 34.3882 597.602 34.5482 597.042 34.8682C596.482 35.1882 596.035 35.6549 595.702 36.2682C595.369 36.8816 595.202 37.6016 595.202 38.4282C595.202 39.2682 595.369 40.0016 595.702 40.6282C596.035 41.2416 596.482 41.7149 597.042 42.0482C597.602 42.3682 598.222 42.5282 598.902 42.5282C599.582 42.5282 600.202 42.3682 600.762 42.0482C601.335 41.7149 601.789 41.2416 602.122 40.6282C602.455 40.0016 602.622 39.2749 602.622 38.4482ZM616.878 32.9882L610.278 49.1082H608.398L610.558 43.8282L606.138 32.9882H608.158L611.598 41.8682L614.998 32.9882H616.878ZM623.159 38.4282C623.159 37.3082 623.386 36.3282 623.839 35.4882C624.293 34.6349 624.913 33.9749 625.699 33.5082C626.499 33.0416 627.386 32.8082 628.359 32.8082C629.319 32.8082 630.153 33.0149 630.859 33.4282C631.566 33.8416 632.093 34.3616 632.439 34.9882V32.9882H634.279V43.9482H632.439V41.9082C632.079 42.5482 631.539 43.0816 630.819 43.5082C630.113 43.9216 629.286 44.1282 628.339 44.1282C627.366 44.1282 626.486 43.8882 625.699 43.4082C624.913 42.9282 624.293 42.2549 623.839 41.3882C623.386 40.5216 623.159 39.5349 623.159 38.4282ZM632.439 38.4482C632.439 37.6216 632.273 36.9016 631.939 36.2882C631.606 35.6749 631.153 35.2082 630.579 34.8882C630.019 34.5549 629.399 34.3882 628.719 34.3882C628.039 34.3882 627.419 34.5482 626.859 34.8682C626.299 35.1882 625.853 35.6549 625.519 36.2682C625.186 36.8816 625.019 37.6016 625.019 38.4282C625.019 39.2682 625.186 40.0016 625.519 40.6282C625.853 41.2416 626.299 41.7149 626.859 42.0482C627.419 42.3682 628.039 42.5282 628.719 42.5282C629.399 42.5282 630.019 42.3682 630.579 42.0482C631.153 41.7149 631.606 41.2416 631.939 40.6282C632.273 40.0016 632.439 39.2749 632.439 38.4482ZM641.135 44.1282C640.295 44.1282 639.542 43.9882 638.875 43.7082C638.208 43.4149 637.682 43.0149 637.295 42.5082C636.908 41.9882 636.695 41.3949 636.655 40.7282H638.535C638.588 41.2749 638.842 41.7216 639.295 42.0682C639.762 42.4149 640.368 42.5882 641.115 42.5882C641.808 42.5882 642.355 42.4349 642.755 42.1282C643.155 41.8216 643.355 41.4349 643.355 40.9682C643.355 40.4882 643.142 40.1349 642.715 39.9082C642.288 39.6682 641.628 39.4349 640.735 39.2082C639.922 38.9949 639.255 38.7816 638.735 38.5682C638.228 38.3416 637.788 38.0149 637.415 37.5882C637.055 37.1482 636.875 36.5749 636.875 35.8682C636.875 35.3082 637.042 34.7949 637.375 34.3282C637.708 33.8616 638.182 33.4949 638.795 33.2282C639.408 32.9482 640.108 32.8082 640.895 32.8082C642.108 32.8082 643.088 33.1149 643.835 33.7282C644.582 34.3416 644.982 35.1816 645.035 36.2482H643.215C643.175 35.6749 642.942 35.2149 642.515 34.8682C642.102 34.5216 641.542 34.3482 640.835 34.3482C640.182 34.3482 639.662 34.4882 639.275 34.7682C638.888 35.0482 638.695 35.4149 638.695 35.8682C638.695 36.2282 638.808 36.5282 639.035 36.7682C639.275 36.9949 639.568 37.1816 639.915 37.3282C640.275 37.4616 640.768 37.6149 641.395 37.7882C642.182 38.0016 642.822 38.2149 643.315 38.4282C643.808 38.6282 644.228 38.9349 644.575 39.3482C644.935 39.7616 645.122 40.3016 645.135 40.9682C645.135 41.5682 644.968 42.1082 644.635 42.5882C644.302 43.0682 643.828 43.4482 643.215 43.7282C642.615 43.9949 641.922 44.1282 641.135 44.1282ZM662.276 32.9882L655.676 49.1082H653.796L655.956 43.8282L651.536 32.9882H653.556L656.996 41.8682L660.396 32.9882H662.276ZM668.786 44.1282C667.759 44.1282 666.826 43.8949 665.986 43.4282C665.159 42.9616 664.506 42.3016 664.026 41.4482C663.559 40.5816 663.326 39.5816 663.326 38.4482C663.326 37.3282 663.566 36.3416 664.046 35.4882C664.539 34.6216 665.206 33.9616 666.046 33.5082C666.886 33.0416 667.826 32.8082 668.866 32.8082C669.906 32.8082 670.846 33.0416 671.686 33.5082C672.526 33.9616 673.186 34.6149 673.666 35.4682C674.159 36.3216 674.406 37.3149 674.406 38.4482C674.406 39.5816 674.152 40.5816 673.646 41.4482C673.152 42.3016 672.479 42.9616 671.626 43.4282C670.772 43.8949 669.826 44.1282 668.786 44.1282ZM668.786 42.5282C669.439 42.5282 670.052 42.3749 670.626 42.0682C671.199 41.7616 671.659 41.3016 672.006 40.6882C672.366 40.0749 672.546 39.3282 672.546 38.4482C672.546 37.5682 672.372 36.8216 672.026 36.2082C671.679 35.5949 671.226 35.1416 670.666 34.8482C670.106 34.5416 669.499 34.3882 668.846 34.3882C668.179 34.3882 667.566 34.5416 667.006 34.8482C666.459 35.1416 666.019 35.5949 665.686 36.2082C665.352 36.8216 665.186 37.5682 665.186 38.4482C665.186 39.3416 665.346 40.0949 665.666 40.7082C665.999 41.3216 666.439 41.7816 666.986 42.0882C667.532 42.3816 668.132 42.5282 668.786 42.5282ZM686.419 32.9882V43.9482H684.599V42.3282C684.252 42.8882 683.765 43.3282 683.139 43.6482C682.525 43.9549 681.845 44.1082 681.099 44.1082C680.245 44.1082 679.479 43.9349 678.799 43.5882C678.119 43.2282 677.579 42.6949 677.179 41.9882C676.792 41.2816 676.599 40.4216 676.599 39.4082V32.9882H678.399V39.1682C678.399 40.2482 678.672 41.0816 679.219 41.6682C679.765 42.2416 680.512 42.5282 681.459 42.5282C682.432 42.5282 683.199 42.2282 683.759 41.6282C684.319 41.0282 684.599 40.1549 684.599 39.0082V32.9882H686.419ZM699.144 32.8082C700.09 32.8082 700.917 33.0149 701.624 33.4282C702.344 33.8416 702.877 34.3616 703.224 34.9882V32.9882H705.064V44.1882C705.064 45.1882 704.85 46.0749 704.424 46.8482C703.997 47.6349 703.384 48.2482 702.584 48.6882C701.797 49.1282 700.877 49.3482 699.824 49.3482C698.384 49.3482 697.184 49.0082 696.224 48.3282C695.264 47.6482 694.697 46.7216 694.524 45.5482H696.324C696.524 46.2149 696.937 46.7482 697.564 47.1482C698.19 47.5616 698.944 47.7682 699.824 47.7682C700.824 47.7682 701.637 47.4549 702.264 46.8282C702.904 46.2016 703.224 45.3216 703.224 44.1882V41.8882C702.864 42.5282 702.33 43.0616 701.624 43.4882C700.917 43.9149 700.09 44.1282 699.144 44.1282C698.17 44.1282 697.284 43.8882 696.484 43.4082C695.697 42.9282 695.077 42.2549 694.624 41.3882C694.17 40.5216 693.944 39.5349 693.944 38.4282C693.944 37.3082 694.17 36.3282 694.624 35.4882C695.077 34.6349 695.697 33.9749 696.484 33.5082C697.284 33.0416 698.17 32.8082 699.144 32.8082ZM703.224 38.4482C703.224 37.6216 703.057 36.9016 702.724 36.2882C702.39 35.6749 701.937 35.2082 701.364 34.8882C700.804 34.5549 700.184 34.3882 699.504 34.3882C698.824 34.3882 698.204 34.5482 697.644 34.8682C697.084 35.1882 696.637 35.6549 696.304 36.2682C695.97 36.8816 695.804 37.6016 695.804 38.4282C695.804 39.2682 695.97 40.0016 696.304 40.6282C696.637 41.2416 697.084 41.7149 697.644 42.0482C698.204 42.3682 698.824 42.5282 699.504 42.5282C700.184 42.5282 700.804 42.3682 701.364 42.0482C701.937 41.7149 702.39 41.2416 702.724 40.6282C703.057 40.0016 703.224 39.2749 703.224 38.4482ZM712.819 44.1282C711.793 44.1282 710.859 43.8949 710.019 43.4282C709.193 42.9616 708.539 42.3016 708.059 41.4482C707.593 40.5816 707.359 39.5816 707.359 38.4482C707.359 37.3282 707.599 36.3416 708.079 35.4882C708.573 34.6216 709.239 33.9616 710.079 33.5082C710.919 33.0416 711.859 32.8082 712.899 32.8082C713.939 32.8082 714.879 33.0416 715.719 33.5082C716.559 33.9616 717.219 34.6149 717.699 35.4682C718.193 36.3216 718.439 37.3149 718.439 38.4482C718.439 39.5816 718.186 40.5816 717.679 41.4482C717.186 42.3016 716.513 42.9616 715.659 43.4282C714.806 43.8949 713.859 44.1282 712.819 44.1282ZM712.819 42.5282C713.473 42.5282 714.086 42.3749 714.659 42.0682C715.233 41.7616 715.693 41.3016 716.039 40.6882C716.399 40.0749 716.579 39.3282 716.579 38.4482C716.579 37.5682 716.406 36.8216 716.059 36.2082C715.713 35.5949 715.259 35.1416 714.699 34.8482C714.139 34.5416 713.533 34.3882 712.879 34.3882C712.213 34.3882 711.599 34.5416 711.039 34.8482C710.493 35.1416 710.053 35.5949 709.719 36.2082C709.386 36.8216 709.219 37.5682 709.219 38.4482C709.219 39.3416 709.379 40.0949 709.699 40.7082C710.033 41.3216 710.473 41.7816 711.019 42.0882C711.566 42.3816 712.166 42.5282 712.819 42.5282Z" fill="black"/>
<path d="M29.108 108.402V109.734H25.688V120.948H24.05V109.734H20.612V108.402H29.108ZM31.8803 109.482C31.5683 109.482 31.3043 109.374 31.0883 109.158C30.8723 108.942 30.7643 108.678 30.7643 108.366C30.7643 108.054 30.8723 107.79 31.0883 107.574C31.3043 107.358 31.5683 107.25 31.8803 107.25C32.1803 107.25 32.4323 107.358 32.6363 107.574C32.8523 107.79 32.9603 108.054 32.9603 108.366C32.9603 108.678 32.8523 108.942 32.6363 109.158C32.4323 109.374 32.1803 109.482 31.8803 109.482ZM32.6723 111.084V120.948H31.0343V111.084H32.6723ZM34.762 115.998C34.762 114.978 34.966 114.09 35.374 113.334C35.782 112.566 36.346 111.972 37.066 111.552C37.798 111.132 38.632 110.922 39.568 110.922C40.78 110.922 41.776 111.216 42.556 111.804C43.348 112.392 43.87 113.208 44.122 114.252H42.358C42.19 113.652 41.86 113.178 41.368 112.83C40.888 112.482 40.288 112.308 39.568 112.308C38.632 112.308 37.876 112.632 37.3 113.28C36.724 113.916 36.436 114.822 36.436 115.998C36.436 117.186 36.724 118.104 37.3 118.752C37.876 119.4 38.632 119.724 39.568 119.724C40.288 119.724 40.888 119.556 41.368 119.22C41.848 118.884 42.178 118.404 42.358 117.78H44.122C43.858 118.788 43.33 119.598 42.538 120.21C41.746 120.81 40.756 121.11 39.568 121.11C38.632 121.11 37.798 120.9 37.066 120.48C36.346 120.06 35.782 119.466 35.374 118.698C34.966 117.93 34.762 117.03 34.762 115.998ZM51.7256 120.948L47.8556 116.592V120.948H46.2176V107.628H47.8556V115.458L51.6536 111.084H53.9396L49.2956 115.998L53.9576 120.948H51.7256ZM64.3912 115.638C64.3912 115.95 64.3732 116.28 64.3372 116.628H56.4532C56.5132 117.6 56.8432 118.362 57.4432 118.914C58.0552 119.454 58.7932 119.724 59.6572 119.724C60.3652 119.724 60.9532 119.562 61.4212 119.238C61.9012 118.902 62.2372 118.458 62.4292 117.906H64.1932C63.9292 118.854 63.4012 119.628 62.6092 120.228C61.8172 120.816 60.8332 121.11 59.6572 121.11C58.7212 121.11 57.8812 120.9 57.1372 120.48C56.4052 120.06 55.8292 119.466 55.4092 118.698C54.9892 117.918 54.7792 117.018 54.7792 115.998C54.7792 114.978 54.9832 114.084 55.3912 113.316C55.7992 112.548 56.3692 111.96 57.1012 111.552C57.8452 111.132 58.6972 110.922 59.6572 110.922C60.5932 110.922 61.4212 111.126 62.1412 111.534C62.8612 111.942 63.4132 112.506 63.7972 113.226C64.1932 113.934 64.3912 114.738 64.3912 115.638ZM62.6992 115.296C62.6992 114.672 62.5612 114.138 62.2852 113.694C62.0092 113.238 61.6312 112.896 61.1512 112.668C60.6832 112.428 60.1612 112.308 59.5852 112.308C58.7572 112.308 58.0492 112.572 57.4612 113.1C56.8852 113.628 56.5552 114.36 56.4712 115.296H62.6992ZM68.4613 112.434V118.248C68.4613 118.728 68.5633 119.07 68.7673 119.274C68.9713 119.466 69.3253 119.562 69.8293 119.562H71.0353V120.948H69.5593C68.6473 120.948 67.9633 120.738 67.5073 120.318C67.0513 119.898 66.8233 119.208 66.8233 118.248V112.434H65.5453V111.084H66.8233V108.6H68.4613V111.084H71.0353V112.434H68.4613ZM86.0268 112.074C86.0268 113.118 85.6668 113.988 84.9468 114.684C84.2388 115.368 83.1528 115.71 81.6888 115.71H79.2768V120.948H77.6388V108.402H81.6888C83.1048 108.402 84.1788 108.744 84.9108 109.428C85.6548 110.112 86.0268 110.994 86.0268 112.074ZM81.6888 114.36C82.6008 114.36 83.2728 114.162 83.7048 113.766C84.1368 113.37 84.3528 112.806 84.3528 112.074C84.3528 110.526 83.4648 109.752 81.6888 109.752H79.2768V114.36H81.6888ZM89.6106 112.686C89.8986 112.122 90.3066 111.684 90.8346 111.372C91.3746 111.06 92.0286 110.904 92.7966 110.904V112.596H92.3646C90.5286 112.596 89.6106 113.592 89.6106 115.584V120.948H87.9726V111.084H89.6106V112.686ZM95.4435 109.482C95.1315 109.482 94.8675 109.374 94.6515 109.158C94.4355 108.942 94.3275 108.678 94.3275 108.366C94.3275 108.054 94.4355 107.79 94.6515 107.574C94.8675 107.358 95.1315 107.25 95.4435 107.25C95.7435 107.25 95.9955 107.358 96.1995 107.574C96.4155 107.79 96.5235 108.054 96.5235 108.366C96.5235 108.678 96.4155 108.942 96.1995 109.158C95.9955 109.374 95.7435 109.482 95.4435 109.482ZM96.2355 111.084V120.948H94.5975V111.084H96.2355ZM98.3252 115.998C98.3252 114.978 98.5292 114.09 98.9372 113.334C99.3452 112.566 99.9092 111.972 100.629 111.552C101.361 111.132 102.195 110.922 103.131 110.922C104.343 110.922 105.339 111.216 106.119 111.804C106.911 112.392 107.433 113.208 107.685 114.252H105.921C105.753 113.652 105.423 113.178 104.931 112.83C104.451 112.482 103.851 112.308 103.131 112.308C102.195 112.308 101.439 112.632 100.863 113.28C100.287 113.916 99.9992 114.822 99.9992 115.998C99.9992 117.186 100.287 118.104 100.863 118.752C101.439 119.4 102.195 119.724 103.131 119.724C103.851 119.724 104.451 119.556 104.931 119.22C105.411 118.884 105.741 118.404 105.921 117.78H107.685C107.421 118.788 106.893 119.598 106.101 120.21C105.309 120.81 104.319 121.11 103.131 121.11C102.195 121.11 101.361 120.9 100.629 120.48C99.9092 120.06 99.3452 119.466 98.9372 118.698C98.5292 117.93 98.3252 117.03 98.3252 115.998ZM118.781 115.638C118.781 115.95 118.763 116.28 118.727 116.628H110.843C110.903 117.6 111.233 118.362 111.833 118.914C112.445 119.454 113.183 119.724 114.047 119.724C114.755 119.724 115.343 119.562 115.811 119.238C116.291 118.902 116.627 118.458 116.819 117.906H118.583C118.319 118.854 117.791 119.628 116.999 120.228C116.207 120.816 115.223 121.11 114.047 121.11C113.111 121.11 112.271 120.9 111.527 120.48C110.795 120.06 110.219 119.466 109.799 118.698C109.379 117.918 109.169 117.018 109.169 115.998C109.169 114.978 109.373 114.084 109.781 113.316C110.189 112.548 110.759 111.96 111.491 111.552C112.235 111.132 113.087 110.922 114.047 110.922C114.983 110.922 115.811 111.126 116.531 111.534C117.251 111.942 117.803 112.506 118.187 113.226C118.583 113.934 118.781 114.738 118.781 115.638ZM117.089 115.296C117.089 114.672 116.951 114.138 116.675 113.694C116.399 113.238 116.021 112.896 115.541 112.668C115.073 112.428 114.551 112.308 113.975 112.308C113.147 112.308 112.439 112.572 111.851 113.1C111.275 113.628 110.945 114.36 110.861 115.296H117.089Z" fill="black"/>
<rect x="20.5" y="128.448" width="279" height="49" rx="7.5" fill="white"/>
<rect x="20.5" y="128.448" width="279" height="49" rx="7.5" stroke="#09090B"/>
<path d="M36.72 160.188C35.6333 160.188 34.6933 159.912 33.9 159.358C33.1067 158.798 32.4933 158.025 32.06 157.038C31.6333 156.045 31.42 154.895 31.42 153.588C31.42 152.195 31.6533 151.022 32.12 150.068C32.5933 149.115 33.23 148.395 34.03 147.908C34.83 147.415 35.7267 147.168 36.72 147.168C38.0333 147.168 39.0933 147.505 39.9 148.178C40.7133 148.845 41.2733 149.715 41.58 150.788L39.9 151.128C39.64 150.348 39.2267 149.728 38.66 149.268C38.1 148.802 37.4533 148.568 36.72 148.568C36.0867 148.568 35.4933 148.758 34.94 149.138C34.3933 149.512 33.95 150.072 33.61 150.818C33.27 151.565 33.1 152.488 33.1 153.588C33.1 154.588 33.2333 155.478 33.5 156.258C33.7733 157.038 34.1767 157.652 34.71 158.098C35.25 158.545 35.92 158.768 36.72 158.768C37.68 158.768 38.45 158.502 39.03 157.968C39.61 157.435 39.9 156.735 39.9 155.868H41.6C41.6 156.768 41.3933 157.542 40.98 158.188C40.5667 158.828 39.9933 159.322 39.26 159.668C38.5267 160.015 37.68 160.188 36.72 160.188ZM30.52 155.128V154.148H37.36V155.128H30.52ZM30.52 153.108V152.128H37.36V153.108H30.52ZM50.3317 147.348H51.5917V159.948H50.0317V149.188C49.7117 149.408 49.3751 149.578 49.0217 149.698C48.6751 149.812 48.3251 149.875 47.9717 149.888V148.368C48.3917 148.308 48.7984 148.198 49.1917 148.038C49.5917 147.878 49.9717 147.648 50.3317 147.348ZM59.5533 160.188C58.5666 160.188 57.7033 159.948 56.9633 159.468C56.2299 158.988 55.6566 158.265 55.2433 157.298C54.8366 156.332 54.6333 155.122 54.6333 153.668C54.6333 152.215 54.8366 151.008 55.2433 150.048C55.6566 149.082 56.2299 148.362 56.9633 147.888C57.7033 147.408 58.5666 147.168 59.5533 147.168C60.5333 147.168 61.3933 147.408 62.1333 147.888C62.8733 148.362 63.4466 149.082 63.8533 150.048C64.2666 151.008 64.4733 152.215 64.4733 153.668C64.4733 155.122 64.2666 156.332 63.8533 157.298C63.4466 158.265 62.8733 158.988 62.1333 159.468C61.3933 159.948 60.5333 160.188 59.5533 160.188ZM59.5533 158.748C60.6333 158.748 61.4533 158.308 62.0133 157.428C62.5733 156.542 62.8533 155.288 62.8533 153.668C62.8533 152.048 62.5733 150.798 62.0133 149.918C61.4533 149.032 60.6333 148.588 59.5533 148.588C58.4866 148.588 57.6699 149.032 57.1033 149.918C56.5366 150.798 56.2533 152.048 56.2533 153.668C56.2533 155.288 56.5366 156.542 57.1033 157.428C57.6699 158.308 58.4866 158.748 59.5533 158.748Z" fill="#626262"/>
</svg>
