<svg width="61" height="61" viewBox="0 0 61 61" fill="none" xmlns="http://www.w3.org/2000/svg">
<g style="mix-blend-mode:darken">
<path d="M5.5 23.4485C7.48912 23.4485 9.39678 24.2387 10.8033 25.6452C12.2098 27.0517 13 28.9594 13 30.9485C13 32.9376 12.2098 34.8453 10.8033 36.2518C9.39678 37.6583 7.48912 38.4485 5.5 38.4485V43.4485C5.5 44.7746 6.02678 46.0463 6.96447 46.984C7.90215 47.9217 9.17392 48.4485 10.5 48.4485H50.5C51.8261 48.4485 53.0979 47.9217 54.0355 46.984C54.9732 46.0463 55.5 44.7746 55.5 43.4485V38.4485C53.5109 38.4485 51.6032 37.6583 50.1967 36.2518C48.7902 34.8453 48 32.9376 48 30.9485C48 28.9594 48.7902 27.0517 50.1967 25.6452C51.6032 24.2387 53.5109 23.4485 55.5 23.4485V18.4485C55.5 17.1224 54.9732 15.8506 54.0355 14.913C53.0979 13.9753 51.8261 13.4485 50.5 13.4485H10.5C9.17392 13.4485 7.90215 13.9753 6.96447 14.913C6.02678 15.8506 5.5 17.1224 5.5 18.4485V23.4485Z" fill="url(#paint0_linear_339_4678)" fill-opacity="0.75"/>
<path d="M23 23.4485H23.025H23Z" fill="url(#paint1_linear_339_4678)" fill-opacity="0.75"/>
<path d="M38 23.4485L23 38.4485L38 23.4485Z" fill="url(#paint2_linear_339_4678)" fill-opacity="0.75"/>
<path d="M38 38.4485H38.025H38Z" fill="url(#paint3_linear_339_4678)" fill-opacity="0.75"/>
<path d="M23 23.4485H23.025M38 23.4485L23 38.4485M38 38.4485H38.025M5.5 23.4485C7.48912 23.4485 9.39678 24.2387 10.8033 25.6452C12.2098 27.0517 13 28.9594 13 30.9485C13 32.9376 12.2098 34.8453 10.8033 36.2518C9.39678 37.6583 7.48912 38.4485 5.5 38.4485V43.4485C5.5 44.7746 6.02678 46.0463 6.96447 46.984C7.90215 47.9217 9.17392 48.4485 10.5 48.4485H50.5C51.8261 48.4485 53.0979 47.9217 54.0355 46.984C54.9732 46.0463 55.5 44.7746 55.5 43.4485V38.4485C53.5109 38.4485 51.6032 37.6583 50.1967 36.2518C48.7902 34.8453 48 32.9376 48 30.9485C48 28.9594 48.7902 27.0517 50.1967 25.6452C51.6032 24.2387 53.5109 23.4485 55.5 23.4485V18.4485C55.5 17.1224 54.9732 15.8506 54.0355 14.913C53.0979 13.9753 51.8261 13.4485 50.5 13.4485H10.5C9.17392 13.4485 7.90215 13.9753 6.96447 14.913C6.02678 15.8506 5.5 17.1224 5.5 18.4485V23.4485Z" stroke="#09090B" stroke-width="2" stroke-linecap="round" stroke-linejoin="round"/>
</g>
<defs>
<linearGradient id="paint0_linear_339_4678" x1="15.0833" y1="17.6777" x2="32.7141" y2="51.26" gradientUnits="userSpaceOnUse">
<stop stop-color="#89EB8E"/>
<stop offset="1" stop-color="#11D8F5"/>
</linearGradient>
<linearGradient id="paint1_linear_339_4678" x1="15.0833" y1="17.6777" x2="32.7141" y2="51.26" gradientUnits="userSpaceOnUse">
<stop stop-color="#89EB8E"/>
<stop offset="1" stop-color="#11D8F5"/>
</linearGradient>
<linearGradient id="paint2_linear_339_4678" x1="15.0833" y1="17.6777" x2="32.7141" y2="51.26" gradientUnits="userSpaceOnUse">
<stop stop-color="#89EB8E"/>
<stop offset="1" stop-color="#11D8F5"/>
</linearGradient>
<linearGradient id="paint3_linear_339_4678" x1="15.0833" y1="17.6777" x2="32.7141" y2="51.26" gradientUnits="userSpaceOnUse">
<stop stop-color="#89EB8E"/>
<stop offset="1" stop-color="#11D8F5"/>
</linearGradient>
</defs>
</svg>
