<?xml version="1.0" encoding="UTF-8"?>
<svg id="Calque_1" data-name="Calque 1" xmlns="http://www.w3.org/2000/svg" viewBox="0 0 150 150">
  <defs>
    <style>
      .cls-1 {
        fill: #61b197;
      }
    </style>
  </defs>
  <path class="cls-1" d="M84.24,35.1c-5.39-.7-8.72-5.81-7.84-11.02.16-.94,1.02-1.92.35-2.88-1.47-.69-11.91-5.37-12.55-5.16-.29.1-.54.33-.75.54l-8.93,21.44,1.49,3.98c-1.28,1.03-3.3,1.04-4.19,2.55l-16.99,41.38c-.69,2.41,2.13,2.9,2.7.52l16.55-40.39c1.07-1.15,4.14-1.3,4.85-2.72.51-1.01-1.71-4.08-1.6-5.32l7.72-18.6.3-.14,8.52,3.44c-2.94,13.8,14.51,20.94,21.9,8.89l8.46,3.61c.56.76-2.15,5.16-2.21,6.24-.07,1.22,1.11,2.01,2.14,1.16.67-.55,2.65-5.65,3.09-6.84.39-1.05.68-1.42-.33-2.32l-11.89-4.9c-1.66.67-1.9,2.58-3.18,3.83-2.01,1.96-4.83,3.05-7.63,2.69ZM66.33,46.15c.16-1.3-3.15-2.72-4.21-2.9-1.12-.19-2.2.91-1.5,1.92.46.66,4.13,2.28,4.9,1.96.33-.14.78-.63.82-.98ZM74.39,49.3c.15-1.12-3.33-2.64-4.23-2.76-1.35-.19-2.38,1.4-1.2,2.34.29.23,3.1,1.41,3.53,1.5.79.17,1.79-.17,1.9-1.08ZM76.46,50.98c-.15,1.5,4.47,3.11,5.32,2.64s.79-1.65.11-2.22c-.21-.17-3.37-1.45-3.69-1.5-.98-.13-1.32.18-1.73,1.08Z"/>
  <path class="cls-1" d="M49.13,122.42c2.29-2.21,4.05-4.35,4.13-7.67.17-7.14-7.05-11.38-13.36-8.38-1.53.73-2,2.08-3.68.1-1.91-2.27-3.87-5.28-5.75-7.71-.67-.87-1.92-1.42-1.34-2.8l45.94-35.56c1.04-.61,3,.27,4.22.17.58-.3.19-3.74,1.04-4.24l18.79-14.34.68.16,8.16,10.68c0,1.19-1.2,1.66-1.81,2.41-6.39,7.9,1.92,18.4,10.96,14.19.96-.45,1.69-1.66,2.96-1.05,2.22,3.29,5.72,6.58,7.73,9.92.24.4.57,1.01.28,1.45l-18.74,14.52-4.17-.19c-.41,1.16-.05,3.27-.9,4.13l-45.83,35.37c-.62.31-.92.12-1.37-.33-1.95-1.93-5.83-7.21-7.42-9.61-.25-.37-.53-.75-.54-1.22ZM98.81,45.21l-16.15,12.48c-.76,1.34-.17,4.65-1.39,5.48-.91.62-4.05-.38-5.27-.34l-43.66,33.72-.07.52,5.67,7.34c12.24-6.91,24.1,8.5,14.37,18.6l5.67,7.34.52.07,43.66-33.72c.34-1.15.17-4.49,1-5.18,1.19-1.01,4.12.34,5.66.04l16.15-12.48-5.82-7.54c-1.47.39-2.68,1.08-4.23,1.35-11.32,1.96-18.17-12.05-10.21-20.05l-5.9-7.63Z"/>
  <path class="cls-1" d="M84.24,35.1c2.8.36,5.62-.72,7.63-2.69,1.28-1.25,1.51-3.16,3.18-3.83l11.89,4.9c1.01.9.72,1.27.33,2.32-.44,1.19-2.42,6.29-3.09,6.84-1.03.85-2.21.06-2.14-1.16.06-1.08,2.77-5.47,2.21-6.24l-8.46-3.61c-7.39,12.05-24.85,4.91-21.9-8.89l-8.52-3.44-.3.14-7.72,18.6c-.12,1.23,2.1,4.31,1.6,5.32-.71,1.41-3.78,1.57-4.85,2.72l-16.55,40.39c-.58,2.38-3.39,1.88-2.7-.52l16.99-41.38c.88-1.51,2.91-1.52,4.19-2.55l-1.49-3.98,8.93-21.44c.21-.22.46-.45.75-.54.64-.22,11.09,4.46,12.55,5.16.67.96-.19,1.94-.35,2.88-.88,5.21,2.44,10.33,7.84,11.02Z"/>
  <path class="cls-1" d="M76.46,50.98c.41-.9.75-1.21,1.73-1.08.33.04,3.49,1.33,3.69,1.5.69.58.73,1.76-.11,2.22s-5.47-1.14-5.32-2.64Z"/>
  <path class="cls-1" d="M66.33,46.15c-.04.35-.49.84-.82.98-.77.32-4.43-1.29-4.9-1.96-.7-1.01.38-2.11,1.5-1.92s4.38,1.6,4.21,2.9Z"/>
  <path class="cls-1" d="M74.39,49.3c-.12.91-1.12,1.25-1.9,1.08-.42-.09-3.24-1.27-3.53-1.5-1.18-.95-.15-2.53,1.2-2.34.91.12,4.38,1.64,4.23,2.76Z"/>
  <path class="cls-1" d="M97.89,86c.05-.4.64-.98,1.02-1.13,1.76-.7,5.95,5.85,2.32,5.37-.77-.1-3.43-3.54-3.34-4.24Z"/>
  <path class="cls-1" d="M82.38,64.51c1.5-1.57,4.39,2.66,4.37,4.1-.4,1.11-1.58,1.22-2.38.42-.89-.89-3.1-3.36-2-4.52Z"/>
  <path class="cls-1" d="M90.56,76.51c-.63-.08-4.41-4.12-2.77-5.15,1.54-.97,3.37,1.64,4.01,2.83.58,1.08-.01,2.47-1.25,2.31Z"/>
  <path class="cls-1" d="M92.7,79.78c-.07-.14-.05-.45-.09-.63,1.29-2.68,3.23-.05,4.23,1.51,1.51,2.37-1.05,3.11-1.41,2.64-.75-.98-2.22-2.55-2.72-3.52Z"/>
</svg>