<?xml version="1.0" encoding="UTF-8"?>
<svg id="Calque_1" data-name="Calque 1" xmlns="http://www.w3.org/2000/svg" viewBox="0 0 150 150">
  <defs>
    <style>
      .cls-1 {
        fill: #61b197;
      }
    </style>
  </defs>
  <g id="QbT9Uq.tif">
    <g>
      <path class="cls-1" d="M75.45,30.73c2.08-.3,7.77-.26,9.93-.04.92.09,2.22.68,2.95,1.25,2.86,2.27,2,7.34,2.93,10.54l4.84,2.18c.37.06.63-.24.9-.43,3.21-2.15,6.54-6.73,10.92-4.41,1.46.77,7.65,6.97,8.38,8.43,2.24,4.54-2.79,8.04-4.9,11.45l1.93,4.82c.12.26.35.37.62.43,3.93.96,10.71-.29,11.41,5.57.22,1.8.24,9.42-.25,10.91-1.59,4.91-7.56,3.72-11.53,4.74l-2.18,4.84c-.06.37.24.63.43.9,2.15,3.21,6.74,6.53,4.41,10.92-.77,1.46-6.97,7.65-8.43,8.38-4.57,2.26-8-2.83-11.45-4.9l-4.93,1.99c-.25.17-.29.43-.35.7-.86,3.97.19,10.57-5.55,11.26-1.8.22-9.42.24-10.91-.25-4.92-1.59-3.7-7.56-4.74-11.53l-4.84-2.18c-.37-.06-.63.24-.9.43-3.21,2.15-6.53,6.74-10.92,4.41-1.46-.77-7.65-6.97-8.38-8.43-2.26-4.57,2.83-8,4.9-11.45l-1.93-4.82c-.12-.26-.35-.37-.62-.43-3.93-.96-10.71.29-11.41-5.57-.22-1.8-.24-9.42.25-10.91,1.6-4.94,7.56-3.68,11.53-4.74l2.18-4.84c.06-.37-.24-.63-.43-.9-2.27-3.38-7.37-7.16-3.92-11.65,1.04-1.35,6.64-7.02,7.93-7.65,4.54-2.24,8.04,2.79,11.45,4.9l4.84-1.92c.23-.15.36-.37.42-.63.94-3.9-.27-10.56,5.42-11.38ZM76.32,34.4c-.67.11-1.36.52-1.62,1.18-.75,2.7-.54,5.95-1.18,8.62-.13.54-.35,1.13-.84,1.43-.83.51-3.02,1-4.13,1.47-.97.41-3.29,1.84-4.12,1.75-.3-.03-.73-.26-1-.41-2.18-1.28-4.45-3.85-6.68-5.22-.75-.44-1.4-.34-2.09.15s-5.86,5.64-6.29,6.31c-.39.6-.46,1.24-.13,1.88,1.37,2.3,3.97,4.56,5.29,6.79.16.27.38.7.41,1,.11.94-1.37,3.21-1.8,4.24s-1.15,3.95-1.85,4.45c-1.17.84-6.95.99-8.78,1.37-1.3.26-1.9.76-2.06,2.14-.19,1.67-.21,6.4.02,8.04.1.73.49,1.48,1.21,1.77,2.73.71,5.92.54,8.62,1.18.29.07.64.18.89.33.82.5,1.51,3.44,1.95,4.52.41.98,1.9,3.41,1.8,4.24-.03.3-.26.73-.41,1-1.24,2.09-4.18,4.59-5.22,6.68-.4.81-.38,1.35.15,2.09s5.64,5.86,6.31,6.29,1.05.43,1.73.16c2.06-.81,4.95-4.26,7.05-5.38,1.7-.91,3.51.78,5.14,1.46,1.02.42,3.95,1.15,4.45,1.85.2.27.32.67.4,1,.57,2.37.47,5.34.97,7.79.26,1.3.76,1.9,2.14,2.06,1.67.19,6.4.21,8.04-.02.73-.1,1.48-.49,1.77-1.21.75-2.7.54-5.95,1.18-8.62.07-.29.18-.64.33-.89.51-.83,3.44-1.5,4.52-1.95,1.7-.71,3.47-2.43,5.24-1.39,2.09,1.24,4.59,4.18,6.68,5.22.81.4,1.35.38,2.09-.15s5.86-5.64,6.29-6.31c.34-.52.5-1.17.16-1.73-1.27-2.43-4.1-4.76-5.38-7.04-.92-1.65.79-3.55,1.46-5.14.42-1.02,1.15-3.95,1.85-4.45.27-.2.67-.32,1-.4,2.43-.58,5.47-.41,7.93-1,1.23-.29,1.77-.79,1.92-2.11.19-1.67.21-6.4-.02-8.04-.1-.73-.49-1.48-1.21-1.77-2.7-.75-5.95-.54-8.62-1.18-.29-.07-.64-.18-.89-.33-.82-.51-1.5-3.44-1.95-4.52s-1.91-3.31-1.8-4.24c.03-.3.26-.73.41-1,1.24-2.09,4.18-4.59,5.22-6.68.4-.81.38-1.35-.15-2.09s-5.64-5.86-6.31-6.29-1.05-.43-1.73-.16c-2.06.81-4.95,4.26-7.05,5.38-.24.13-.64.32-.89.35-.92.1-3.22-1.38-4.24-1.8s-3.95-1.15-4.45-1.85c-.2-.27-.32-.67-.4-1-.58-2.43-.41-5.47-1-7.93-.29-1.23-.79-1.77-2.11-1.92-1.59-.18-6.67-.21-8.18.04Z"/>
      <path class="cls-1" d="M79.66,56.81c13.05-.68,22.88,12.32,18.59,24.72-4.75,13.72-22.63,17.1-32.03,5.94-9.94-11.8-1.84-29.86,13.43-30.66ZM78.61,60.66c-10.04,1.06-15.87,12.5-11.43,21.49,4.67,9.47,17.94,11.17,24.77,3.05,8.83-10.5.33-25.99-13.34-24.54Z"/>
    </g>
  </g>
</svg>