<?xml version="1.0" encoding="UTF-8"?>
<svg id="Calque_1" xmlns="http://www.w3.org/2000/svg" version="1.1" viewBox="0 0 150 150">
  <!-- Generator: Adobe Illustrator 29.2.1, SVG Export Plug-In . SVG Version: 2.1.0 Build 116)  -->
  <defs>
    <style>
      .st0, .st1 {
        fill: #61b197;
      }

      .st1 {
        stroke: #fff;
        stroke-miterlimit: 10;
      }
    </style>
  </defs>
  <path class="st1" d="M75.5,28.5c20.1-1,35.8,19,29.8,38.4-1.5,4.8-4.9,8-7.3,12.1s-4,10.8-4.8,16.8c-.3.9-1,1.4-1.9,1.6h-28.4c-1.4,0-2.4-.7-2.7-2-.8-3.6-.7-6.8-2-10.6-2.5-7.5-8.7-12.3-10.4-19.7-4-18.3,9-35.6,27.7-36.5ZM88.7,92.4c.8-5.7,2.1-11.1,5.2-16.1,2.3-3.7,5.5-6.9,6.8-11.2,3.8-13.1-4-27.1-17.1-30.8s-32.7,8.9-31.4,26.4c.5,6.9,3.8,9.5,7.1,14.8,3.2,5,5,10.9,5.4,16.8h24Z"/>
  <path class="st0" d="M63.8,99.5h23.6c2.4.2,2.6,3.7-.3,4-7.1.7-15.4-.5-22.6,0-2.6,0-3-3.4-.6-4Z"/>
  <path class="st0" d="M64.6,108.7l22-8.4c2.4-.6,3.8,2.6,1.1,3.9-6.4,3.2-14.6,4.9-21.1,8-2.4.9-4-2.1-2-3.5Z"/>
  <path class="st0" d="M65.2,114.6l22-8.4c2.4-.6,3.8,2.6,1.1,3.9-6.4,3.2-14.6,4.9-21.1,8-2.4.9-4-2.1-2-3.5Z"/>
  <path class="st0" d="M72,39.2c-6.5.7-12.9,6.7-14.7,12.9s-2.5,11.8,2.7,10.2,1.3-4.5,1.5-6.3c.5-5.6,4.9-10.1,10.1-11.7s4.2-.2,3.9-3.2-1.8-2.1-3.4-1.9Z"/>
  <path class="st0" d="M72,39.2c1.6-.2,3.2,0,3.4,1.9.3,3-2,2.6-3.9,3.2-5.2,1.6-9.6,6.1-10.1,11.7s.7,5.6-1.5,6.3c-5.2,1.6-3.5-7.6-2.7-10.2,1.9-6.1,8.2-12.2,14.7-12.9Z"/>
  <rect class="st0" x="101.7" y="81" width="14.5" height="2.4" rx="1.2" ry="1.2" transform="translate(64.2 -46.8) rotate(33.8)"/>
  <rect class="st0" x="110.7" y="59" width="14.5" height="2.4" rx="1.2" ry="1.2"/>
  <rect class="st0" x="103.7" y="36" width="14.5" height="2.4" rx="1.2" ry="1.2" transform="translate(-3.7 60.5) rotate(-30)"/>
  <rect class="st0" x="33.8" y="36.3" width="14.5" height="2.4" rx="1.2" ry="1.2" transform="translate(54.2 91.4) rotate(-146.2)"/>
  <rect class="st0" x="24.8" y="58.3" width="14.5" height="2.4" rx="1.2" ry="1.2" transform="translate(64 119) rotate(-180)"/>
  <rect class="st0" x="31.8" y="81.3" width="14.5" height="2.4" rx="1.2" ry="1.2" transform="translate(114 134.4) rotate(150)"/>
  <path class="st0" d="M73.5,121.5c-2.3,0-4.2-.4-5.8-1.3-1.1-.6-1.9-1.3-2.4-2s-.2-2.3,1-2.6h0c.6-.1,1.2.1,1.6.6s.8.8,1.5,1.2c1.9,1,6.8,1.9,17.6-2.5.8-.3,1.8,0,2.1.9h0c.4.8,0,1.8-.9,2.2-5.9,2.4-10.8,3.6-14.7,3.6Z"/>
</svg>