<svg width="28" height="28" viewBox="0 0 28 28" fill="none" xmlns="http://www.w3.org/2000/svg">
<path d="M14.2567 2.3335H13.7433C13.1245 2.3335 12.531 2.57933 12.0934 3.01691C11.6558 3.4545 11.41 4.04799 11.41 4.66683V4.87683C11.4096 5.28601 11.3016 5.68788 11.0968 6.04214C10.892 6.3964 10.5977 6.69057 10.2433 6.89516L9.74167 7.18683C9.38696 7.39162 8.98459 7.49944 8.575 7.49944C8.16542 7.49944 7.76305 7.39162 7.40834 7.18683L7.23334 7.0935C6.69791 6.78464 6.06181 6.70085 5.46467 6.86052C4.86753 7.0202 4.35815 7.41029 4.04834 7.94516L3.79167 8.3885C3.48281 8.92392 3.39902 9.56002 3.55869 10.1572C3.71837 10.7543 4.10846 11.2637 4.64334 11.5735L4.81834 11.6902C5.17099 11.8938 5.46422 12.1861 5.66889 12.5381C5.87357 12.8902 5.98254 13.2896 5.985 13.6968V14.2918C5.98663 14.703 5.87959 15.1073 5.67472 15.4638C5.46985 15.8202 5.17441 16.1163 4.81834 16.3218L4.64334 16.4268C4.10846 16.7366 3.71837 17.246 3.55869 17.8432C3.39902 18.4403 3.48281 19.0764 3.79167 19.6118L4.04834 20.0552C4.35815 20.59 4.86753 20.9801 5.46467 21.1398C6.06181 21.2995 6.69791 21.2157 7.23334 20.9068L7.40834 20.8135C7.76305 20.6087 8.16542 20.5009 8.575 20.5009C8.98459 20.5009 9.38696 20.6087 9.74167 20.8135L10.2433 21.1052C10.5977 21.3098 10.892 21.6039 11.0968 21.9582C11.3016 22.3124 11.4096 22.7143 11.41 23.1235V23.3335C11.41 23.9523 11.6558 24.5458 12.0934 24.9834C12.531 25.421 13.1245 25.6668 13.7433 25.6668H14.2567C14.8755 25.6668 15.469 25.421 15.9066 24.9834C16.3442 24.5458 16.59 23.9523 16.59 23.3335V23.1235C16.5904 22.7143 16.6984 22.3124 16.9032 21.9582C17.108 21.6039 17.4023 21.3098 17.7567 21.1052L18.2583 20.8135C18.613 20.6087 19.0154 20.5009 19.425 20.5009C19.8346 20.5009 20.237 20.6087 20.5917 20.8135L20.7667 20.9068C21.3021 21.2157 21.9382 21.2995 22.5353 21.1398C23.1325 20.9801 23.6419 20.59 23.9517 20.0552L24.2083 19.6002C24.5172 19.0647 24.601 18.4286 24.4413 17.8315C24.2816 17.2344 23.8915 16.725 23.3567 16.4152L23.1817 16.3218C22.8256 16.1163 22.5302 15.8202 22.3253 15.4638C22.1204 15.1073 22.0134 14.703 22.015 14.2918V13.7085C22.0134 13.2973 22.1204 12.8931 22.3253 12.5366C22.5302 12.1801 22.8256 11.8841 23.1817 11.6785L23.3567 11.5735C23.8915 11.2637 24.2816 10.7543 24.4413 10.1572C24.601 9.56002 24.5172 8.92392 24.2083 8.3885L23.9517 7.94516C23.6419 7.41029 23.1325 7.0202 22.5353 6.86052C21.9382 6.70085 21.3021 6.78464 20.7667 7.0935L20.5917 7.18683C20.237 7.39162 19.8346 7.49944 19.425 7.49944C19.0154 7.49944 18.613 7.39162 18.2583 7.18683L17.7567 6.89516C17.4023 6.69057 17.108 6.3964 16.9032 6.04214C16.6984 5.68788 16.5904 5.28601 16.59 4.87683V4.66683C16.59 4.04799 16.3442 3.4545 15.9066 3.01691C15.469 2.57933 14.8755 2.3335 14.2567 2.3335Z" stroke="#09090B" stroke-width="1.5" stroke-linecap="round" stroke-linejoin="round"/>
<path d="M14 17.5002C15.933 17.5002 17.5 15.9332 17.5 14.0002C17.5 12.0672 15.933 10.5002 14 10.5002C12.067 10.5002 10.5 12.0672 10.5 14.0002C10.5 15.9332 12.067 17.5002 14 17.5002Z" stroke="#09090B" stroke-width="1.5" stroke-linecap="round" stroke-linejoin="round"/>
</svg>
