<svg width="32" height="32" viewBox="0 0 32 32" fill="none" xmlns="http://www.w3.org/2000/svg">
<path d="M16 2.95947C18.7424 2.95952 21.1535 3.91573 23.2529 5.84717C25.3235 7.75196 26.3739 10.3096 26.374 13.5757C26.374 14.9148 26.079 16.2521 25.4805 17.5894C24.8708 18.9518 24.1053 20.2557 23.1846 21.5024C22.2578 22.7574 21.2511 23.9286 20.1641 25.0161C19.0648 26.116 18.0393 27.0898 17.0879 27.937L17.083 27.9419L17.0771 27.9468C16.9382 28.0782 16.7781 28.1734 16.5918 28.2339C16.3812 28.3022 16.1808 28.3345 15.9893 28.3345C15.7979 28.3345 15.6023 28.302 15.4004 28.2349C15.2222 28.1756 15.0694 28.0824 14.9365 27.9526L14.9277 27.9438L14.918 27.936L14.1875 27.2769C13.4436 26.5944 12.6591 25.8408 11.835 25.0161C10.748 23.9287 9.74113 22.7573 8.81445 21.5024C7.89394 20.2559 7.13035 18.9514 6.52344 17.5894C5.92755 16.2521 5.63379 14.9151 5.63379 13.5757C5.63389 10.3095 6.68301 7.7519 8.75098 5.84717C10.8477 3.91586 13.2575 2.95947 16 2.95947ZM15.999 4.23877C13.4615 4.23887 11.2984 5.11332 9.54199 6.85986C7.77738 8.61469 6.90537 10.8678 6.90527 13.5757C6.90527 15.4227 7.67771 17.4436 9.14062 19.6226C10.604 21.802 12.782 24.2303 15.6592 26.9067L15.9951 27.2202L16.3359 26.9106C19.2808 24.239 21.4792 21.8091 22.9121 19.6216C24.3411 17.4398 25.0947 15.4194 25.0947 13.5757C25.0946 10.8677 24.2218 8.61472 22.457 6.85986C20.7001 5.11327 18.5368 4.23877 15.999 4.23877ZM15.9971 11.436C16.529 11.4361 16.9679 11.6176 17.3418 11.9897C17.715 12.3614 17.8965 12.799 17.8965 13.3306C17.8965 13.8627 17.7152 14.2994 17.3438 14.6704C16.9724 15.0412 16.5353 15.2221 16.0029 15.2222C15.47 15.2222 15.0328 15.042 14.6621 14.6733C14.2921 14.3047 14.1104 13.8688 14.1104 13.3364C14.1104 12.8034 14.2905 12.3635 14.6602 11.9897L14.6611 11.9907C15.03 11.6183 15.4656 11.436 15.9971 11.436Z" fill="black" stroke="black"/>
</svg>
