<svg width="28" height="29" viewBox="0 0 28 29" fill="none" xmlns="http://www.w3.org/2000/svg">
<path d="M11.6667 16.0941C11.6667 16.7129 11.9125 17.3064 12.3501 17.744C12.7877 18.1816 13.3812 18.4274 14 18.4274C14.6188 18.4274 15.2123 18.1816 15.6499 17.744C16.0875 17.3064 16.3333 16.7129 16.3333 16.0941C16.3333 15.4752 16.0875 14.8817 15.6499 14.4442C15.2123 14.0066 14.6188 13.7607 14 13.7607C13.3812 13.7607 12.7877 14.0066 12.3501 14.4442C11.9125 14.8817 11.6667 15.4752 11.6667 16.0941Z" stroke="#09090B" stroke-width="2" stroke-linecap="round" stroke-linejoin="round"/>
<path d="M15.6917 14.4024L18.0833 12.0107" stroke="#09090B" stroke-width="2" stroke-linecap="round" stroke-linejoin="round"/>
<path d="M7.46667 24.2604C5.76117 22.9048 4.51956 21.0523 3.91391 18.9596C3.30825 16.8668 3.36854 14.6376 4.08642 12.5806C4.8043 10.5237 6.14422 8.74101 7.92048 7.4796C9.69675 6.21819 11.8214 5.54053 14 5.54053C16.1786 5.54053 18.3032 6.21819 20.0795 7.4796C21.8558 8.74101 23.1957 10.5237 23.9136 12.5806C24.6315 14.6376 24.6917 16.8668 24.0861 18.9596C23.4804 21.0523 22.2388 22.9048 20.5333 24.2604H7.46667Z" stroke="#09090B" stroke-width="2" stroke-linecap="round" stroke-linejoin="round"/>
</svg>
