<svg width="28" height="29" viewBox="0 0 28 29" fill="none" xmlns="http://www.w3.org/2000/svg">
<path d="M10.5 4.42725H4.66667C4.02233 4.42725 3.5 4.94958 3.5 5.59391V11.4272C3.5 12.0716 4.02233 12.5939 4.66667 12.5939H10.5C11.1443 12.5939 11.6667 12.0716 11.6667 11.4272V5.59391C11.6667 4.94958 11.1443 4.42725 10.5 4.42725Z" stroke="#09090B" stroke-width="2" stroke-linecap="round" stroke-linejoin="round"/>
<path d="M23.3333 4.42725H17.5C16.8557 4.42725 16.3333 4.94958 16.3333 5.59391V11.4272C16.3333 12.0716 16.8557 12.5939 17.5 12.5939H23.3333C23.9777 12.5939 24.5 12.0716 24.5 11.4272V5.59391C24.5 4.94958 23.9777 4.42725 23.3333 4.42725Z" stroke="#09090B" stroke-width="2" stroke-linecap="round" stroke-linejoin="round"/>
<path d="M23.3333 17.2606H17.5C16.8557 17.2606 16.3333 17.7829 16.3333 18.4272V24.2606C16.3333 24.9049 16.8557 25.4272 17.5 25.4272H23.3333C23.9777 25.4272 24.5 24.9049 24.5 24.2606V18.4272C24.5 17.7829 23.9777 17.2606 23.3333 17.2606Z" stroke="#09090B" stroke-width="2" stroke-linecap="round" stroke-linejoin="round"/>
<path d="M10.5 17.2606H4.66667C4.02233 17.2606 3.5 17.7829 3.5 18.4272V24.2606C3.5 24.9049 4.02233 25.4272 4.66667 25.4272H10.5C11.1443 25.4272 11.6667 24.9049 11.6667 24.2606V18.4272C11.6667 17.7829 11.1443 17.2606 10.5 17.2606Z" stroke="#09090B" stroke-width="2" stroke-linecap="round" stroke-linejoin="round"/>
</svg>
