<svg width="28" height="29" viewBox="0 0 28 29" fill="none" xmlns="http://www.w3.org/2000/svg">
<path d="M15.1667 6.76074V9.09408M15.1667 20.7607V23.0941M15.1667 13.7607V16.0941M2.33333 11.4274C3.26159 11.4274 4.15183 11.7962 4.80821 12.4525C5.46458 13.1089 5.83333 13.9992 5.83333 14.9274C5.83333 15.8557 5.46458 16.7459 4.80821 17.4023C4.15183 18.0587 3.26159 18.4274 2.33333 18.4274V20.7607C2.33333 21.3796 2.57916 21.9731 3.01675 22.4107C3.45433 22.8482 4.04783 23.0941 4.66667 23.0941H23.3333C23.9522 23.0941 24.5457 22.8482 24.9832 22.4107C25.4208 21.9731 25.6667 21.3796 25.6667 20.7607V18.4274C24.7384 18.4274 23.8482 18.0587 23.1918 17.4023C22.5354 16.7459 22.1667 15.8557 22.1667 14.9274C22.1667 13.9992 22.5354 13.1089 23.1918 12.4525C23.8482 11.7962 24.7384 11.4274 25.6667 11.4274V9.09408C25.6667 8.47524 25.4208 7.88174 24.9832 7.44416C24.5457 7.00657 23.9522 6.76074 23.3333 6.76074H4.66667C4.04783 6.76074 3.45433 7.00657 3.01675 7.44416C2.57916 7.88174 2.33333 8.47524 2.33333 9.09408V11.4274Z" stroke="#09090B" stroke-width="2" stroke-linecap="round" stroke-linejoin="round"/>
</svg>
