<svg width="28" height="28" viewBox="0 0 28 28" fill="none" xmlns="http://www.w3.org/2000/svg">
<path d="M10.5 5.8335H8.16668C7.54784 5.8335 6.95435 6.07933 6.51676 6.51691C6.07918 6.9545 5.83334 7.54799 5.83334 8.16683V22.1668C5.83334 22.7857 6.07918 23.3792 6.51676 23.8167C6.95435 24.2543 7.54784 24.5002 8.16668 24.5002H19.8333C20.4522 24.5002 21.0457 24.2543 21.4833 23.8167C21.9208 23.3792 22.1667 22.7857 22.1667 22.1668V8.16683C22.1667 7.54799 21.9208 6.9545 21.4833 6.51691C21.0457 6.07933 20.4522 5.8335 19.8333 5.8335H17.5" stroke="#09090B" stroke-width="2" stroke-linecap="round" stroke-linejoin="round"/>
<path d="M10.5 5.83333C10.5 5.21449 10.7458 4.621 11.1834 4.18342C11.621 3.74583 12.2145 3.5 12.8333 3.5H15.1667C15.7855 3.5 16.379 3.74583 16.8166 4.18342C17.2542 4.621 17.5 5.21449 17.5 5.83333C17.5 6.45217 17.2542 7.04566 16.8166 7.48325C16.379 7.92083 15.7855 8.16667 15.1667 8.16667H12.8333C12.2145 8.16667 11.621 7.92083 11.1834 7.48325C10.7458 7.04566 10.5 6.45217 10.5 5.83333Z" stroke="#09090B" stroke-width="2" stroke-linecap="round" stroke-linejoin="round"/>
<path d="M16.3333 12.8335H13.4167C12.9525 12.8335 12.5074 13.0179 12.1792 13.3461C11.851 13.6742 11.6667 14.1194 11.6667 14.5835C11.6667 15.0476 11.851 15.4927 12.1792 15.8209C12.5074 16.1491 12.9525 16.3335 13.4167 16.3335H14.5833C15.0475 16.3335 15.4926 16.5179 15.8208 16.8461C16.1489 17.1742 16.3333 17.6194 16.3333 18.0835C16.3333 18.5476 16.1489 18.9927 15.8208 19.3209C15.4926 19.6491 15.0475 19.8335 14.5833 19.8335H11.6667" stroke="#09090B" stroke-width="2" stroke-linecap="round" stroke-linejoin="round"/>
<path d="M14 19.8332V20.9998M14 11.6665V12.8332" stroke="#09090B" stroke-width="2" stroke-linecap="round" stroke-linejoin="round"/>
</svg>
