<svg width="20" height="20" viewBox="0 0 20 20" fill="none" xmlns="http://www.w3.org/2000/svg">
<path d="M5.41663 8.33317C5.64674 8.33317 5.83329 8.14662 5.83329 7.9165C5.83329 7.68639 5.64674 7.49984 5.41663 7.49984C5.18651 7.49984 4.99996 7.68639 4.99996 7.9165C4.99996 8.14662 5.18651 8.33317 5.41663 8.33317Z" fill="#09090B"/>
<path d="M12.5 4.1665L17.75 9.4165C17.9364 9.60231 18.0844 9.8231 18.1853 10.0662C18.2862 10.3093 18.3382 10.5699 18.3382 10.8332C18.3382 11.0964 18.2862 11.357 18.1853 11.6001C18.0844 11.8432 17.9364 12.064 17.75 12.2498L14.1666 15.8332M7.98829 4.65484C7.67581 4.34225 7.25195 4.1666 6.80996 4.1665H2.49996C2.27895 4.1665 2.06698 4.2543 1.9107 4.41058C1.75442 4.56686 1.66663 4.77882 1.66663 4.99984V9.30984C1.66672 9.75183 1.84238 10.1757 2.15496 10.4882L6.90829 15.2415C7.28705 15.6179 7.79933 15.8291 8.33329 15.8291C8.86725 15.8291 9.37953 15.6179 9.75829 15.2415L12.7416 12.2582C13.118 11.8794 13.3292 11.3671 13.3292 10.8332C13.3292 10.2992 13.118 9.78693 12.7416 9.40817L7.98829 4.65484ZM5.83329 7.9165C5.83329 8.14662 5.64674 8.33317 5.41663 8.33317C5.18651 8.33317 4.99996 8.14662 4.99996 7.9165C4.99996 7.68639 5.18651 7.49984 5.41663 7.49984C5.64674 7.49984 5.83329 7.68639 5.83329 7.9165Z" stroke="#09090B" stroke-width="2" stroke-linecap="round" stroke-linejoin="round"/>
</svg>
