<svg width="32" height="32" viewBox="0 0 32 32" fill="none" xmlns="http://www.w3.org/2000/svg">
<path d="M23.3333 8.6665H23.3466M9.33329 2.6665H22.6666C26.3485 2.6665 29.3333 5.65127 29.3333 9.33317V22.6665C29.3333 26.3484 26.3485 29.3332 22.6666 29.3332H9.33329C5.65139 29.3332 2.66663 26.3484 2.66663 22.6665V9.33317C2.66663 5.65127 5.65139 2.6665 9.33329 2.6665ZM21.3336 15.1599C21.4981 16.2696 21.3086 17.4029 20.7919 18.3986C20.2752 19.3943 19.4577 20.2018 18.4557 20.7061C17.4537 21.2105 16.3182 21.386 15.2106 21.2078C14.1031 21.0296 13.0799 20.5067 12.2867 19.7135C11.4934 18.9202 10.9705 17.8971 10.7923 16.7895C10.6141 15.682 10.7896 14.5464 11.294 13.5444C11.7983 12.5424 12.6058 11.7249 13.6015 11.2082C14.5973 10.6916 15.7306 10.502 16.8402 10.6666C17.9721 10.8344 19.02 11.3619 19.8291 12.171C20.6383 12.9801 21.1657 14.028 21.3336 15.1599Z" stroke="#09090B" stroke-width="2" stroke-linecap="round" stroke-linejoin="round"/>
</svg>
