<svg width="28" height="29" viewBox="0 0 28 29" fill="none" xmlns="http://www.w3.org/2000/svg">
<path d="M14.2567 2.79736H13.7433C13.1245 2.79736 12.531 3.0432 12.0934 3.48078C11.6558 3.91837 11.41 4.51186 11.41 5.1307V5.3407C11.4096 5.74988 11.3016 6.15175 11.0968 6.50601C10.892 6.86026 10.5977 7.15444 10.2433 7.35903L9.74167 7.6507C9.38696 7.85549 8.98459 7.9633 8.575 7.9633C8.16542 7.9633 7.76305 7.85549 7.40834 7.6507L7.23334 7.55736C6.69791 7.2485 6.06181 7.16471 5.46467 7.32439C4.86753 7.48406 4.35815 7.87416 4.04834 8.40903L3.79167 8.85236C3.48281 9.38779 3.39902 10.0239 3.55869 10.621C3.71837 11.2182 4.10846 11.7276 4.64334 12.0374L4.81834 12.154C5.17099 12.3576 5.46422 12.65 5.66889 13.002C5.87357 13.354 5.98254 13.7535 5.985 14.1607V14.7557C5.98663 15.1669 5.87959 15.5711 5.67472 15.9276C5.46985 16.2841 5.17441 16.5801 4.81834 16.7857L4.64334 16.8907C4.10846 17.2005 3.71837 17.7099 3.55869 18.307C3.39902 18.9042 3.48281 19.5403 3.79167 20.0757L4.04834 20.519C4.35815 21.0539 4.86753 21.444 5.46467 21.6037C6.06181 21.7633 6.69791 21.6796 7.23334 21.3707L7.40834 21.2774C7.76305 21.0726 8.16542 20.9648 8.575 20.9648C8.98459 20.9648 9.38696 21.0726 9.74167 21.2774L10.2433 21.569C10.5977 21.7736 10.892 22.0678 11.0968 22.4221C11.3016 22.7763 11.4096 23.1782 11.41 23.5874V23.7974C11.41 24.4162 11.6558 25.0097 12.0934 25.4473C12.531 25.8849 13.1245 26.1307 13.7433 26.1307H14.2567C14.8755 26.1307 15.469 25.8849 15.9066 25.4473C16.3442 25.0097 16.59 24.4162 16.59 23.7974V23.5874C16.5904 23.1782 16.6984 22.7763 16.9032 22.4221C17.108 22.0678 17.4023 21.7736 17.7567 21.569L18.2583 21.2774C18.613 21.0726 19.0154 20.9648 19.425 20.9648C19.8346 20.9648 20.237 21.0726 20.5917 21.2774L20.7667 21.3707C21.3021 21.6796 21.9382 21.7633 22.5353 21.6037C23.1325 21.444 23.6419 21.0539 23.9517 20.519L24.2083 20.064C24.5172 19.5286 24.601 18.8925 24.4413 18.2954C24.2816 17.6982 23.8915 17.1888 23.3567 16.879L23.1817 16.7857C22.8256 16.5801 22.5302 16.2841 22.3253 15.9276C22.1204 15.5711 22.0134 15.1669 22.015 14.7557V14.1724C22.0134 13.7612 22.1204 13.3569 22.3253 13.0004C22.5302 12.644 22.8256 12.3479 23.1817 12.1424L23.3567 12.0374C23.8915 11.7276 24.2816 11.2182 24.4413 10.621C24.601 10.0239 24.5172 9.38779 24.2083 8.85236L23.9517 8.40903C23.6419 7.87416 23.1325 7.48406 22.5353 7.32439C21.9382 7.16471 21.3021 7.2485 20.7667 7.55736L20.5917 7.6507C20.237 7.85549 19.8346 7.9633 19.425 7.9633C19.0154 7.9633 18.613 7.85549 18.2583 7.6507L17.7567 7.35903C17.4023 7.15444 17.108 6.86026 16.9032 6.50601C16.6984 6.15175 16.5904 5.74988 16.59 5.3407V5.1307C16.59 4.51186 16.3442 3.91837 15.9066 3.48078C15.469 3.0432 14.8755 2.79736 14.2567 2.79736Z" stroke="#09090B" stroke-width="2" stroke-linecap="round" stroke-linejoin="round"/>
<path d="M14 17.964C15.933 17.964 17.5 16.397 17.5 14.464C17.5 12.531 15.933 10.964 14 10.964C12.067 10.964 10.5 12.531 10.5 14.464C10.5 16.397 12.067 17.964 14 17.964Z" stroke="#09090B" stroke-width="2" stroke-linecap="round" stroke-linejoin="round"/>
</svg>
